G04 #@! TF.GenerationSoftware,KiCad,Pcbnew,5.1.10-88a1d61d58~88~ubuntu20.04.1*
G04 #@! TF.CreationDate,2021-07-31T21:39:33-05:00*
G04 #@! TF.ProjectId,panelv6,70616e65-6c76-4362-9e6b-696361645f70,rev?*
G04 #@! TF.SameCoordinates,Original*
G04 #@! TF.FileFunction,Copper,L1,Top*
G04 #@! TF.FilePolarity,Positive*
%FSLAX46Y46*%
G04 Gerber Fmt 4.6, Leading zero omitted, Abs format (unit mm)*
G04 Created by KiCad (PCBNEW 5.1.10-88a1d61d58~88~ubuntu20.04.1) date 2021-07-31 21:39:33*
%MOMM*%
%LPD*%
G01*
G04 APERTURE LIST*
G04 #@! TA.AperFunction,EtchedComponent*
%ADD10C,0.010000*%
G04 #@! TD*
G04 APERTURE END LIST*
D10*
G36*
X54109039Y-178108605D02*
G01*
X54120965Y-178120309D01*
X54131054Y-178142661D01*
X54139472Y-178178144D01*
X54146383Y-178229242D01*
X54151954Y-178298440D01*
X54156349Y-178388220D01*
X54159734Y-178501067D01*
X54162275Y-178639464D01*
X54164136Y-178805895D01*
X54165483Y-179002843D01*
X54166482Y-179232793D01*
X54167297Y-179498228D01*
X54168095Y-179801631D01*
X54168788Y-180058060D01*
X54169633Y-180413867D01*
X54170029Y-180728948D01*
X54169959Y-181004911D01*
X54169408Y-181243361D01*
X54168361Y-181445904D01*
X54166803Y-181614147D01*
X54164719Y-181749696D01*
X54162092Y-181854156D01*
X54158909Y-181929135D01*
X54155152Y-181976238D01*
X54150809Y-181997071D01*
X54150321Y-181997796D01*
X54106131Y-182022522D01*
X54050119Y-182022479D01*
X54008867Y-182001160D01*
X54004272Y-181986651D01*
X54000214Y-181951544D01*
X53996667Y-181893850D01*
X53993606Y-181811583D01*
X53991003Y-181702755D01*
X53988834Y-181565378D01*
X53987073Y-181397464D01*
X53985692Y-181197027D01*
X53984668Y-180962079D01*
X53983972Y-180690633D01*
X53983581Y-180380700D01*
X53983467Y-180054230D01*
X53983467Y-178132700D01*
X54039659Y-178118596D01*
X54060586Y-178112545D01*
X54079015Y-178107207D01*
X54095111Y-178105066D01*
X54109039Y-178108605D01*
G37*
X54109039Y-178108605D02*
X54120965Y-178120309D01*
X54131054Y-178142661D01*
X54139472Y-178178144D01*
X54146383Y-178229242D01*
X54151954Y-178298440D01*
X54156349Y-178388220D01*
X54159734Y-178501067D01*
X54162275Y-178639464D01*
X54164136Y-178805895D01*
X54165483Y-179002843D01*
X54166482Y-179232793D01*
X54167297Y-179498228D01*
X54168095Y-179801631D01*
X54168788Y-180058060D01*
X54169633Y-180413867D01*
X54170029Y-180728948D01*
X54169959Y-181004911D01*
X54169408Y-181243361D01*
X54168361Y-181445904D01*
X54166803Y-181614147D01*
X54164719Y-181749696D01*
X54162092Y-181854156D01*
X54158909Y-181929135D01*
X54155152Y-181976238D01*
X54150809Y-181997071D01*
X54150321Y-181997796D01*
X54106131Y-182022522D01*
X54050119Y-182022479D01*
X54008867Y-182001160D01*
X54004272Y-181986651D01*
X54000214Y-181951544D01*
X53996667Y-181893850D01*
X53993606Y-181811583D01*
X53991003Y-181702755D01*
X53988834Y-181565378D01*
X53987073Y-181397464D01*
X53985692Y-181197027D01*
X53984668Y-180962079D01*
X53983972Y-180690633D01*
X53983581Y-180380700D01*
X53983467Y-180054230D01*
X53983467Y-178132700D01*
X54039659Y-178118596D01*
X54060586Y-178112545D01*
X54079015Y-178107207D01*
X54095111Y-178105066D01*
X54109039Y-178108605D01*
G36*
X172134970Y-178250249D02*
G01*
X172152733Y-178263127D01*
X172158012Y-178278768D01*
X172162577Y-178315902D01*
X172166469Y-178376787D01*
X172169726Y-178463681D01*
X172172387Y-178578841D01*
X172174491Y-178724525D01*
X172176078Y-178902992D01*
X172177186Y-179116500D01*
X172177855Y-179367307D01*
X172178124Y-179657670D01*
X172178133Y-179729977D01*
X172177951Y-180029717D01*
X172177377Y-180289384D01*
X172176372Y-180511235D01*
X172174899Y-180697529D01*
X172172916Y-180850522D01*
X172170386Y-180972474D01*
X172167269Y-181065642D01*
X172163527Y-181132284D01*
X172159119Y-181174659D01*
X172154007Y-181195024D01*
X172152733Y-181196827D01*
X172102782Y-181220577D01*
X172045715Y-181212351D01*
X171999417Y-181175183D01*
X171992814Y-181161935D01*
X171987141Y-181140422D01*
X171982330Y-181107623D01*
X171978311Y-181060519D01*
X171975017Y-180996087D01*
X171972378Y-180911307D01*
X171970326Y-180803158D01*
X171968793Y-180668619D01*
X171967710Y-180504669D01*
X171967007Y-180308288D01*
X171966618Y-180076454D01*
X171966473Y-179806146D01*
X171966467Y-179723875D01*
X171966805Y-179400620D01*
X171967819Y-179117553D01*
X171969502Y-178874976D01*
X171971851Y-178673189D01*
X171974861Y-178512495D01*
X171978528Y-178393193D01*
X171982846Y-178315586D01*
X171987811Y-178279974D01*
X171988378Y-178278668D01*
X172025735Y-178247851D01*
X172081198Y-178237753D01*
X172134970Y-178250249D01*
G37*
X172134970Y-178250249D02*
X172152733Y-178263127D01*
X172158012Y-178278768D01*
X172162577Y-178315902D01*
X172166469Y-178376787D01*
X172169726Y-178463681D01*
X172172387Y-178578841D01*
X172174491Y-178724525D01*
X172176078Y-178902992D01*
X172177186Y-179116500D01*
X172177855Y-179367307D01*
X172178124Y-179657670D01*
X172178133Y-179729977D01*
X172177951Y-180029717D01*
X172177377Y-180289384D01*
X172176372Y-180511235D01*
X172174899Y-180697529D01*
X172172916Y-180850522D01*
X172170386Y-180972474D01*
X172167269Y-181065642D01*
X172163527Y-181132284D01*
X172159119Y-181174659D01*
X172154007Y-181195024D01*
X172152733Y-181196827D01*
X172102782Y-181220577D01*
X172045715Y-181212351D01*
X171999417Y-181175183D01*
X171992814Y-181161935D01*
X171987141Y-181140422D01*
X171982330Y-181107623D01*
X171978311Y-181060519D01*
X171975017Y-180996087D01*
X171972378Y-180911307D01*
X171970326Y-180803158D01*
X171968793Y-180668619D01*
X171967710Y-180504669D01*
X171967007Y-180308288D01*
X171966618Y-180076454D01*
X171966473Y-179806146D01*
X171966467Y-179723875D01*
X171966805Y-179400620D01*
X171967819Y-179117553D01*
X171969502Y-178874976D01*
X171971851Y-178673189D01*
X171974861Y-178512495D01*
X171978528Y-178393193D01*
X171982846Y-178315586D01*
X171987811Y-178279974D01*
X171988378Y-178278668D01*
X172025735Y-178247851D01*
X172081198Y-178237753D01*
X172134970Y-178250249D01*
G36*
X49948872Y-175681090D02*
G01*
X50130901Y-175681704D01*
X50413254Y-175682793D01*
X50656288Y-175683843D01*
X50863016Y-175684953D01*
X51036450Y-175686221D01*
X51179606Y-175687743D01*
X51295495Y-175689618D01*
X51387132Y-175691944D01*
X51457530Y-175694819D01*
X51509702Y-175698340D01*
X51546662Y-175702604D01*
X51571423Y-175707711D01*
X51586999Y-175713757D01*
X51596403Y-175720841D01*
X51602648Y-175729060D01*
X51602915Y-175729477D01*
X51618545Y-175789724D01*
X51611468Y-175819435D01*
X51592997Y-175867060D01*
X50136049Y-175867060D01*
X49834649Y-175866880D01*
X49573333Y-175866313D01*
X49349854Y-175865321D01*
X49161964Y-175863866D01*
X49007416Y-175861910D01*
X48883961Y-175859413D01*
X48789353Y-175856336D01*
X48721343Y-175852643D01*
X48677684Y-175848294D01*
X48656129Y-175843250D01*
X48653700Y-175841660D01*
X48631143Y-175794367D01*
X48633871Y-175738516D01*
X48657105Y-175700170D01*
X48676470Y-175695128D01*
X48722656Y-175690869D01*
X48797471Y-175687370D01*
X48902725Y-175684610D01*
X49040226Y-175682566D01*
X49211782Y-175681214D01*
X49419203Y-175680533D01*
X49664296Y-175680499D01*
X49948872Y-175681090D01*
G37*
X49948872Y-175681090D02*
X50130901Y-175681704D01*
X50413254Y-175682793D01*
X50656288Y-175683843D01*
X50863016Y-175684953D01*
X51036450Y-175686221D01*
X51179606Y-175687743D01*
X51295495Y-175689618D01*
X51387132Y-175691944D01*
X51457530Y-175694819D01*
X51509702Y-175698340D01*
X51546662Y-175702604D01*
X51571423Y-175707711D01*
X51586999Y-175713757D01*
X51596403Y-175720841D01*
X51602648Y-175729060D01*
X51602915Y-175729477D01*
X51618545Y-175789724D01*
X51611468Y-175819435D01*
X51592997Y-175867060D01*
X50136049Y-175867060D01*
X49834649Y-175866880D01*
X49573333Y-175866313D01*
X49349854Y-175865321D01*
X49161964Y-175863866D01*
X49007416Y-175861910D01*
X48883961Y-175859413D01*
X48789353Y-175856336D01*
X48721343Y-175852643D01*
X48677684Y-175848294D01*
X48656129Y-175843250D01*
X48653700Y-175841660D01*
X48631143Y-175794367D01*
X48633871Y-175738516D01*
X48657105Y-175700170D01*
X48676470Y-175695128D01*
X48722656Y-175690869D01*
X48797471Y-175687370D01*
X48902725Y-175684610D01*
X49040226Y-175682566D01*
X49211782Y-175681214D01*
X49419203Y-175680533D01*
X49664296Y-175680499D01*
X49948872Y-175681090D01*
G36*
X176580800Y-175867060D02*
G01*
X175512628Y-175867060D01*
X175272541Y-175867010D01*
X175071278Y-175866775D01*
X174905331Y-175866220D01*
X174771191Y-175865216D01*
X174665348Y-175863629D01*
X174584294Y-175861329D01*
X174524520Y-175858184D01*
X174482517Y-175854061D01*
X174454776Y-175848829D01*
X174437789Y-175842356D01*
X174428046Y-175834510D01*
X174422545Y-175826118D01*
X174402571Y-175773578D01*
X174413345Y-175733756D01*
X174433895Y-175709822D01*
X174445323Y-175702227D01*
X174465431Y-175695865D01*
X174497698Y-175690629D01*
X174545601Y-175686414D01*
X174612616Y-175683113D01*
X174702223Y-175680621D01*
X174817898Y-175678831D01*
X174963119Y-175677637D01*
X175141363Y-175676933D01*
X175356108Y-175676613D01*
X175523978Y-175676560D01*
X176580800Y-175676560D01*
X176580800Y-175867060D01*
G37*
X176580800Y-175867060D02*
X175512628Y-175867060D01*
X175272541Y-175867010D01*
X175071278Y-175866775D01*
X174905331Y-175866220D01*
X174771191Y-175865216D01*
X174665348Y-175863629D01*
X174584294Y-175861329D01*
X174524520Y-175858184D01*
X174482517Y-175854061D01*
X174454776Y-175848829D01*
X174437789Y-175842356D01*
X174428046Y-175834510D01*
X174422545Y-175826118D01*
X174402571Y-175773578D01*
X174413345Y-175733756D01*
X174433895Y-175709822D01*
X174445323Y-175702227D01*
X174465431Y-175695865D01*
X174497698Y-175690629D01*
X174545601Y-175686414D01*
X174612616Y-175683113D01*
X174702223Y-175680621D01*
X174817898Y-175678831D01*
X174963119Y-175677637D01*
X175141363Y-175676933D01*
X175356108Y-175676613D01*
X175523978Y-175676560D01*
X176580800Y-175676560D01*
X176580800Y-175867060D01*
G36*
X50127838Y-33669632D02*
G01*
X50435057Y-33670339D01*
X50712517Y-33671494D01*
X50958612Y-33673082D01*
X51171739Y-33675084D01*
X51350290Y-33677483D01*
X51492661Y-33680262D01*
X51597246Y-33683402D01*
X51662440Y-33686887D01*
X51685505Y-33690036D01*
X51728034Y-33725187D01*
X51740678Y-33776759D01*
X51720129Y-33828223D01*
X51714400Y-33834493D01*
X51689046Y-33839086D01*
X51625041Y-33843261D01*
X51526066Y-33847019D01*
X51395801Y-33850360D01*
X51237926Y-33853283D01*
X51056122Y-33855788D01*
X50854068Y-33857876D01*
X50635446Y-33859547D01*
X50403936Y-33860800D01*
X50163219Y-33861636D01*
X49916973Y-33862054D01*
X49668881Y-33862055D01*
X49422622Y-33861638D01*
X49181877Y-33860804D01*
X48950326Y-33859552D01*
X48731649Y-33857883D01*
X48529527Y-33855797D01*
X48347641Y-33853293D01*
X48189670Y-33850371D01*
X48059295Y-33847032D01*
X47960197Y-33843276D01*
X47896056Y-33839102D01*
X47870551Y-33834511D01*
X47870533Y-33834493D01*
X47845061Y-33784368D01*
X47853245Y-33731814D01*
X47891779Y-33693361D01*
X47899428Y-33690036D01*
X47930629Y-33686278D01*
X48002557Y-33682850D01*
X48113606Y-33679769D01*
X48262172Y-33677053D01*
X48446647Y-33674720D01*
X48665428Y-33672786D01*
X48916908Y-33671270D01*
X49199483Y-33670188D01*
X49511546Y-33669559D01*
X49792467Y-33669393D01*
X50127838Y-33669632D01*
G37*
X50127838Y-33669632D02*
X50435057Y-33670339D01*
X50712517Y-33671494D01*
X50958612Y-33673082D01*
X51171739Y-33675084D01*
X51350290Y-33677483D01*
X51492661Y-33680262D01*
X51597246Y-33683402D01*
X51662440Y-33686887D01*
X51685505Y-33690036D01*
X51728034Y-33725187D01*
X51740678Y-33776759D01*
X51720129Y-33828223D01*
X51714400Y-33834493D01*
X51689046Y-33839086D01*
X51625041Y-33843261D01*
X51526066Y-33847019D01*
X51395801Y-33850360D01*
X51237926Y-33853283D01*
X51056122Y-33855788D01*
X50854068Y-33857876D01*
X50635446Y-33859547D01*
X50403936Y-33860800D01*
X50163219Y-33861636D01*
X49916973Y-33862054D01*
X49668881Y-33862055D01*
X49422622Y-33861638D01*
X49181877Y-33860804D01*
X48950326Y-33859552D01*
X48731649Y-33857883D01*
X48529527Y-33855797D01*
X48347641Y-33853293D01*
X48189670Y-33850371D01*
X48059295Y-33847032D01*
X47960197Y-33843276D01*
X47896056Y-33839102D01*
X47870551Y-33834511D01*
X47870533Y-33834493D01*
X47845061Y-33784368D01*
X47853245Y-33731814D01*
X47891779Y-33693361D01*
X47899428Y-33690036D01*
X47930629Y-33686278D01*
X48002557Y-33682850D01*
X48113606Y-33679769D01*
X48262172Y-33677053D01*
X48446647Y-33674720D01*
X48665428Y-33672786D01*
X48916908Y-33671270D01*
X49199483Y-33670188D01*
X49511546Y-33669559D01*
X49792467Y-33669393D01*
X50127838Y-33669632D01*
G36*
X176580800Y-33859893D02*
G01*
X175578911Y-33859893D01*
X175376905Y-33859604D01*
X175187934Y-33858775D01*
X175016195Y-33857464D01*
X174865885Y-33855730D01*
X174741200Y-33853631D01*
X174646337Y-33851225D01*
X174585493Y-33848571D01*
X174562911Y-33845782D01*
X174550057Y-33809407D01*
X174551287Y-33756089D01*
X174564929Y-33708173D01*
X174574200Y-33694793D01*
X174591739Y-33688464D01*
X174632372Y-33683168D01*
X174698731Y-33678840D01*
X174793444Y-33675415D01*
X174919144Y-33672826D01*
X175078459Y-33671008D01*
X175274020Y-33669894D01*
X175508458Y-33669421D01*
X175590200Y-33669393D01*
X176580800Y-33669393D01*
X176580800Y-33859893D01*
G37*
X176580800Y-33859893D02*
X175578911Y-33859893D01*
X175376905Y-33859604D01*
X175187934Y-33858775D01*
X175016195Y-33857464D01*
X174865885Y-33855730D01*
X174741200Y-33853631D01*
X174646337Y-33851225D01*
X174585493Y-33848571D01*
X174562911Y-33845782D01*
X174550057Y-33809407D01*
X174551287Y-33756089D01*
X174564929Y-33708173D01*
X174574200Y-33694793D01*
X174591739Y-33688464D01*
X174632372Y-33683168D01*
X174698731Y-33678840D01*
X174793444Y-33675415D01*
X174919144Y-33672826D01*
X175078459Y-33671008D01*
X175274020Y-33669894D01*
X175508458Y-33669421D01*
X175590200Y-33669393D01*
X176580800Y-33669393D01*
X176580800Y-33859893D01*
G36*
X172133861Y-27539205D02*
G01*
X172172992Y-27565219D01*
X172177388Y-27572002D01*
X172181836Y-27601746D01*
X172185778Y-27673444D01*
X172189215Y-27787141D01*
X172192149Y-27942883D01*
X172194578Y-28140714D01*
X172196505Y-28380679D01*
X172197929Y-28662824D01*
X172198851Y-28987194D01*
X172199271Y-29353833D01*
X172199300Y-29487585D01*
X172199283Y-29811983D01*
X172199192Y-30096704D01*
X172198969Y-30344404D01*
X172198555Y-30557740D01*
X172197892Y-30739366D01*
X172196921Y-30891941D01*
X172195583Y-31018119D01*
X172193819Y-31120558D01*
X172191572Y-31201912D01*
X172188781Y-31264839D01*
X172185390Y-31311995D01*
X172181338Y-31346035D01*
X172176567Y-31369617D01*
X172171019Y-31385396D01*
X172164635Y-31396028D01*
X172157356Y-31404169D01*
X172156967Y-31404560D01*
X172119023Y-31437032D01*
X172086460Y-31442422D01*
X172051133Y-31431465D01*
X172013061Y-31406753D01*
X172003832Y-31396094D01*
X172001493Y-31371907D01*
X171999332Y-31309060D01*
X171997350Y-31211228D01*
X171995552Y-31082082D01*
X171993941Y-30925296D01*
X171992519Y-30744545D01*
X171991290Y-30543501D01*
X171990258Y-30325837D01*
X171989426Y-30095228D01*
X171988796Y-29855346D01*
X171988372Y-29609864D01*
X171988157Y-29362457D01*
X171988154Y-29116797D01*
X171988367Y-28876558D01*
X171988799Y-28645413D01*
X171989453Y-28427036D01*
X171990332Y-28225100D01*
X171991440Y-28043279D01*
X171992779Y-27885245D01*
X171994353Y-27754672D01*
X171996165Y-27655233D01*
X171998219Y-27590603D01*
X172000481Y-27564541D01*
X172030237Y-27538133D01*
X172080486Y-27529932D01*
X172133861Y-27539205D01*
G37*
X172133861Y-27539205D02*
X172172992Y-27565219D01*
X172177388Y-27572002D01*
X172181836Y-27601746D01*
X172185778Y-27673444D01*
X172189215Y-27787141D01*
X172192149Y-27942883D01*
X172194578Y-28140714D01*
X172196505Y-28380679D01*
X172197929Y-28662824D01*
X172198851Y-28987194D01*
X172199271Y-29353833D01*
X172199300Y-29487585D01*
X172199283Y-29811983D01*
X172199192Y-30096704D01*
X172198969Y-30344404D01*
X172198555Y-30557740D01*
X172197892Y-30739366D01*
X172196921Y-30891941D01*
X172195583Y-31018119D01*
X172193819Y-31120558D01*
X172191572Y-31201912D01*
X172188781Y-31264839D01*
X172185390Y-31311995D01*
X172181338Y-31346035D01*
X172176567Y-31369617D01*
X172171019Y-31385396D01*
X172164635Y-31396028D01*
X172157356Y-31404169D01*
X172156967Y-31404560D01*
X172119023Y-31437032D01*
X172086460Y-31442422D01*
X172051133Y-31431465D01*
X172013061Y-31406753D01*
X172003832Y-31396094D01*
X172001493Y-31371907D01*
X171999332Y-31309060D01*
X171997350Y-31211228D01*
X171995552Y-31082082D01*
X171993941Y-30925296D01*
X171992519Y-30744545D01*
X171991290Y-30543501D01*
X171990258Y-30325837D01*
X171989426Y-30095228D01*
X171988796Y-29855346D01*
X171988372Y-29609864D01*
X171988157Y-29362457D01*
X171988154Y-29116797D01*
X171988367Y-28876558D01*
X171988799Y-28645413D01*
X171989453Y-28427036D01*
X171990332Y-28225100D01*
X171991440Y-28043279D01*
X171992779Y-27885245D01*
X171994353Y-27754672D01*
X171996165Y-27655233D01*
X171998219Y-27590603D01*
X172000481Y-27564541D01*
X172030237Y-27538133D01*
X172080486Y-27529932D01*
X172133861Y-27539205D01*
G36*
X54129504Y-28348303D02*
G01*
X54142491Y-28356788D01*
X54148753Y-28366309D01*
X54154143Y-28385658D01*
X54158726Y-28417741D01*
X54162564Y-28465464D01*
X54165719Y-28531732D01*
X54168254Y-28619451D01*
X54170233Y-28731525D01*
X54171717Y-28870862D01*
X54172769Y-29040365D01*
X54173453Y-29242941D01*
X54173830Y-29481495D01*
X54173963Y-29758933D01*
X54173967Y-29815418D01*
X54173783Y-30114198D01*
X54173204Y-30372910D01*
X54172193Y-30593818D01*
X54170708Y-30779187D01*
X54168710Y-30931280D01*
X54166161Y-31052362D01*
X54163020Y-31144697D01*
X54159248Y-31210548D01*
X54154806Y-31252180D01*
X54149655Y-31271857D01*
X54148567Y-31273327D01*
X54100912Y-31296544D01*
X54047155Y-31291703D01*
X54007204Y-31260964D01*
X54005378Y-31257785D01*
X54001856Y-31230523D01*
X53998594Y-31165239D01*
X53995603Y-31066245D01*
X53992896Y-30937850D01*
X53990487Y-30784365D01*
X53988389Y-30610102D01*
X53986613Y-30419371D01*
X53985174Y-30216483D01*
X53984083Y-30005748D01*
X53983354Y-29791478D01*
X53982999Y-29577983D01*
X53983032Y-29369574D01*
X53983466Y-29170562D01*
X53984312Y-28985258D01*
X53985584Y-28817971D01*
X53987296Y-28673014D01*
X53989458Y-28554697D01*
X53992086Y-28467330D01*
X53995191Y-28415225D01*
X53996868Y-28403953D01*
X54027028Y-28361356D01*
X54077443Y-28340797D01*
X54129504Y-28348303D01*
G37*
X54129504Y-28348303D02*
X54142491Y-28356788D01*
X54148753Y-28366309D01*
X54154143Y-28385658D01*
X54158726Y-28417741D01*
X54162564Y-28465464D01*
X54165719Y-28531732D01*
X54168254Y-28619451D01*
X54170233Y-28731525D01*
X54171717Y-28870862D01*
X54172769Y-29040365D01*
X54173453Y-29242941D01*
X54173830Y-29481495D01*
X54173963Y-29758933D01*
X54173967Y-29815418D01*
X54173783Y-30114198D01*
X54173204Y-30372910D01*
X54172193Y-30593818D01*
X54170708Y-30779187D01*
X54168710Y-30931280D01*
X54166161Y-31052362D01*
X54163020Y-31144697D01*
X54159248Y-31210548D01*
X54154806Y-31252180D01*
X54149655Y-31271857D01*
X54148567Y-31273327D01*
X54100912Y-31296544D01*
X54047155Y-31291703D01*
X54007204Y-31260964D01*
X54005378Y-31257785D01*
X54001856Y-31230523D01*
X53998594Y-31165239D01*
X53995603Y-31066245D01*
X53992896Y-30937850D01*
X53990487Y-30784365D01*
X53988389Y-30610102D01*
X53986613Y-30419371D01*
X53985174Y-30216483D01*
X53984083Y-30005748D01*
X53983354Y-29791478D01*
X53982999Y-29577983D01*
X53983032Y-29369574D01*
X53983466Y-29170562D01*
X53984312Y-28985258D01*
X53985584Y-28817971D01*
X53987296Y-28673014D01*
X53989458Y-28554697D01*
X53992086Y-28467330D01*
X53995191Y-28415225D01*
X53996868Y-28403953D01*
X54027028Y-28361356D01*
X54077443Y-28340797D01*
X54129504Y-28348303D01*
G36*
X54096339Y-178111145D02*
G01*
X54108265Y-178122849D01*
X54118354Y-178145201D01*
X54126772Y-178180684D01*
X54133683Y-178231782D01*
X54139254Y-178300980D01*
X54143649Y-178390760D01*
X54147034Y-178503607D01*
X54149575Y-178642004D01*
X54151436Y-178808435D01*
X54152783Y-179005383D01*
X54153782Y-179235333D01*
X54154597Y-179500768D01*
X54155395Y-179804171D01*
X54156088Y-180060600D01*
X54156933Y-180416407D01*
X54157329Y-180731488D01*
X54157259Y-181007451D01*
X54156708Y-181245901D01*
X54155661Y-181448444D01*
X54154103Y-181616687D01*
X54152019Y-181752236D01*
X54149392Y-181856696D01*
X54146209Y-181931675D01*
X54142452Y-181978778D01*
X54138109Y-181999611D01*
X54137621Y-182000336D01*
X54093431Y-182025062D01*
X54037419Y-182025019D01*
X53996167Y-182003700D01*
X53991572Y-181989191D01*
X53987514Y-181954084D01*
X53983967Y-181896390D01*
X53980906Y-181814123D01*
X53978303Y-181705295D01*
X53976134Y-181567918D01*
X53974373Y-181400004D01*
X53972992Y-181199567D01*
X53971968Y-180964619D01*
X53971272Y-180693173D01*
X53970881Y-180383240D01*
X53970767Y-180056770D01*
X53970767Y-178135240D01*
X54026959Y-178121136D01*
X54047886Y-178115085D01*
X54066315Y-178109747D01*
X54082411Y-178107606D01*
X54096339Y-178111145D01*
G37*
X54096339Y-178111145D02*
X54108265Y-178122849D01*
X54118354Y-178145201D01*
X54126772Y-178180684D01*
X54133683Y-178231782D01*
X54139254Y-178300980D01*
X54143649Y-178390760D01*
X54147034Y-178503607D01*
X54149575Y-178642004D01*
X54151436Y-178808435D01*
X54152783Y-179005383D01*
X54153782Y-179235333D01*
X54154597Y-179500768D01*
X54155395Y-179804171D01*
X54156088Y-180060600D01*
X54156933Y-180416407D01*
X54157329Y-180731488D01*
X54157259Y-181007451D01*
X54156708Y-181245901D01*
X54155661Y-181448444D01*
X54154103Y-181616687D01*
X54152019Y-181752236D01*
X54149392Y-181856696D01*
X54146209Y-181931675D01*
X54142452Y-181978778D01*
X54138109Y-181999611D01*
X54137621Y-182000336D01*
X54093431Y-182025062D01*
X54037419Y-182025019D01*
X53996167Y-182003700D01*
X53991572Y-181989191D01*
X53987514Y-181954084D01*
X53983967Y-181896390D01*
X53980906Y-181814123D01*
X53978303Y-181705295D01*
X53976134Y-181567918D01*
X53974373Y-181400004D01*
X53972992Y-181199567D01*
X53971968Y-180964619D01*
X53971272Y-180693173D01*
X53970881Y-180383240D01*
X53970767Y-180056770D01*
X53970767Y-178135240D01*
X54026959Y-178121136D01*
X54047886Y-178115085D01*
X54066315Y-178109747D01*
X54082411Y-178107606D01*
X54096339Y-178111145D01*
G36*
X172122270Y-178252789D02*
G01*
X172140033Y-178265667D01*
X172145312Y-178281308D01*
X172149877Y-178318442D01*
X172153769Y-178379327D01*
X172157026Y-178466221D01*
X172159687Y-178581381D01*
X172161791Y-178727065D01*
X172163378Y-178905532D01*
X172164486Y-179119040D01*
X172165155Y-179369847D01*
X172165424Y-179660210D01*
X172165433Y-179732517D01*
X172165251Y-180032257D01*
X172164677Y-180291924D01*
X172163672Y-180513775D01*
X172162199Y-180700069D01*
X172160216Y-180853062D01*
X172157686Y-180975014D01*
X172154569Y-181068182D01*
X172150827Y-181134824D01*
X172146419Y-181177199D01*
X172141307Y-181197564D01*
X172140033Y-181199367D01*
X172090082Y-181223117D01*
X172033015Y-181214891D01*
X171986717Y-181177723D01*
X171980114Y-181164475D01*
X171974441Y-181142962D01*
X171969630Y-181110163D01*
X171965611Y-181063059D01*
X171962317Y-180998627D01*
X171959678Y-180913847D01*
X171957626Y-180805698D01*
X171956093Y-180671159D01*
X171955010Y-180507209D01*
X171954307Y-180310828D01*
X171953918Y-180078994D01*
X171953773Y-179808686D01*
X171953767Y-179726415D01*
X171954105Y-179403160D01*
X171955119Y-179120093D01*
X171956802Y-178877516D01*
X171959151Y-178675729D01*
X171962161Y-178515035D01*
X171965828Y-178395733D01*
X171970146Y-178318126D01*
X171975111Y-178282514D01*
X171975678Y-178281208D01*
X172013035Y-178250391D01*
X172068498Y-178240293D01*
X172122270Y-178252789D01*
G37*
X172122270Y-178252789D02*
X172140033Y-178265667D01*
X172145312Y-178281308D01*
X172149877Y-178318442D01*
X172153769Y-178379327D01*
X172157026Y-178466221D01*
X172159687Y-178581381D01*
X172161791Y-178727065D01*
X172163378Y-178905532D01*
X172164486Y-179119040D01*
X172165155Y-179369847D01*
X172165424Y-179660210D01*
X172165433Y-179732517D01*
X172165251Y-180032257D01*
X172164677Y-180291924D01*
X172163672Y-180513775D01*
X172162199Y-180700069D01*
X172160216Y-180853062D01*
X172157686Y-180975014D01*
X172154569Y-181068182D01*
X172150827Y-181134824D01*
X172146419Y-181177199D01*
X172141307Y-181197564D01*
X172140033Y-181199367D01*
X172090082Y-181223117D01*
X172033015Y-181214891D01*
X171986717Y-181177723D01*
X171980114Y-181164475D01*
X171974441Y-181142962D01*
X171969630Y-181110163D01*
X171965611Y-181063059D01*
X171962317Y-180998627D01*
X171959678Y-180913847D01*
X171957626Y-180805698D01*
X171956093Y-180671159D01*
X171955010Y-180507209D01*
X171954307Y-180310828D01*
X171953918Y-180078994D01*
X171953773Y-179808686D01*
X171953767Y-179726415D01*
X171954105Y-179403160D01*
X171955119Y-179120093D01*
X171956802Y-178877516D01*
X171959151Y-178675729D01*
X171962161Y-178515035D01*
X171965828Y-178395733D01*
X171970146Y-178318126D01*
X171975111Y-178282514D01*
X171975678Y-178281208D01*
X172013035Y-178250391D01*
X172068498Y-178240293D01*
X172122270Y-178252789D01*
G36*
X49936172Y-175683630D02*
G01*
X50118201Y-175684244D01*
X50400554Y-175685333D01*
X50643588Y-175686383D01*
X50850316Y-175687493D01*
X51023750Y-175688761D01*
X51166906Y-175690283D01*
X51282795Y-175692158D01*
X51374432Y-175694484D01*
X51444830Y-175697359D01*
X51497002Y-175700880D01*
X51533962Y-175705144D01*
X51558723Y-175710251D01*
X51574299Y-175716297D01*
X51583703Y-175723381D01*
X51589948Y-175731600D01*
X51590215Y-175732017D01*
X51605845Y-175792264D01*
X51598768Y-175821975D01*
X51580297Y-175869600D01*
X50123349Y-175869600D01*
X49821949Y-175869420D01*
X49560633Y-175868853D01*
X49337154Y-175867861D01*
X49149264Y-175866406D01*
X48994716Y-175864450D01*
X48871261Y-175861953D01*
X48776653Y-175858876D01*
X48708643Y-175855183D01*
X48664984Y-175850834D01*
X48643429Y-175845790D01*
X48641000Y-175844200D01*
X48618443Y-175796907D01*
X48621171Y-175741056D01*
X48644405Y-175702710D01*
X48663770Y-175697668D01*
X48709956Y-175693409D01*
X48784771Y-175689910D01*
X48890025Y-175687150D01*
X49027526Y-175685106D01*
X49199082Y-175683754D01*
X49406503Y-175683073D01*
X49651596Y-175683039D01*
X49936172Y-175683630D01*
G37*
X49936172Y-175683630D02*
X50118201Y-175684244D01*
X50400554Y-175685333D01*
X50643588Y-175686383D01*
X50850316Y-175687493D01*
X51023750Y-175688761D01*
X51166906Y-175690283D01*
X51282795Y-175692158D01*
X51374432Y-175694484D01*
X51444830Y-175697359D01*
X51497002Y-175700880D01*
X51533962Y-175705144D01*
X51558723Y-175710251D01*
X51574299Y-175716297D01*
X51583703Y-175723381D01*
X51589948Y-175731600D01*
X51590215Y-175732017D01*
X51605845Y-175792264D01*
X51598768Y-175821975D01*
X51580297Y-175869600D01*
X50123349Y-175869600D01*
X49821949Y-175869420D01*
X49560633Y-175868853D01*
X49337154Y-175867861D01*
X49149264Y-175866406D01*
X48994716Y-175864450D01*
X48871261Y-175861953D01*
X48776653Y-175858876D01*
X48708643Y-175855183D01*
X48664984Y-175850834D01*
X48643429Y-175845790D01*
X48641000Y-175844200D01*
X48618443Y-175796907D01*
X48621171Y-175741056D01*
X48644405Y-175702710D01*
X48663770Y-175697668D01*
X48709956Y-175693409D01*
X48784771Y-175689910D01*
X48890025Y-175687150D01*
X49027526Y-175685106D01*
X49199082Y-175683754D01*
X49406503Y-175683073D01*
X49651596Y-175683039D01*
X49936172Y-175683630D01*
G36*
X176568100Y-175869600D02*
G01*
X175499928Y-175869600D01*
X175259841Y-175869550D01*
X175058578Y-175869315D01*
X174892631Y-175868760D01*
X174758491Y-175867756D01*
X174652648Y-175866169D01*
X174571594Y-175863869D01*
X174511820Y-175860724D01*
X174469817Y-175856601D01*
X174442076Y-175851369D01*
X174425089Y-175844896D01*
X174415346Y-175837050D01*
X174409845Y-175828658D01*
X174389871Y-175776118D01*
X174400645Y-175736296D01*
X174421195Y-175712362D01*
X174432623Y-175704767D01*
X174452731Y-175698405D01*
X174484998Y-175693169D01*
X174532901Y-175688954D01*
X174599916Y-175685653D01*
X174689523Y-175683161D01*
X174805198Y-175681371D01*
X174950419Y-175680177D01*
X175128663Y-175679473D01*
X175343408Y-175679153D01*
X175511278Y-175679100D01*
X176568100Y-175679100D01*
X176568100Y-175869600D01*
G37*
X176568100Y-175869600D02*
X175499928Y-175869600D01*
X175259841Y-175869550D01*
X175058578Y-175869315D01*
X174892631Y-175868760D01*
X174758491Y-175867756D01*
X174652648Y-175866169D01*
X174571594Y-175863869D01*
X174511820Y-175860724D01*
X174469817Y-175856601D01*
X174442076Y-175851369D01*
X174425089Y-175844896D01*
X174415346Y-175837050D01*
X174409845Y-175828658D01*
X174389871Y-175776118D01*
X174400645Y-175736296D01*
X174421195Y-175712362D01*
X174432623Y-175704767D01*
X174452731Y-175698405D01*
X174484998Y-175693169D01*
X174532901Y-175688954D01*
X174599916Y-175685653D01*
X174689523Y-175683161D01*
X174805198Y-175681371D01*
X174950419Y-175680177D01*
X175128663Y-175679473D01*
X175343408Y-175679153D01*
X175511278Y-175679100D01*
X176568100Y-175679100D01*
X176568100Y-175869600D01*
G36*
X106657258Y-90298667D02*
G01*
X106665183Y-90298868D01*
X106979106Y-90315532D01*
X107266067Y-90350207D01*
X107537132Y-90405646D01*
X107803370Y-90484603D01*
X108075849Y-90589832D01*
X108356918Y-90719774D01*
X108682853Y-90896544D01*
X108968503Y-91085303D01*
X109214327Y-91286558D01*
X109420786Y-91500813D01*
X109588340Y-91728575D01*
X109717450Y-91970349D01*
X109808575Y-92226641D01*
X109837188Y-92346242D01*
X109855091Y-92462238D01*
X109869216Y-92613282D01*
X109879370Y-92792242D01*
X109885360Y-92991985D01*
X109886993Y-93205378D01*
X109884074Y-93425289D01*
X109876412Y-93644585D01*
X109873800Y-93697203D01*
X109864745Y-93856380D01*
X109854525Y-94007259D01*
X109842538Y-94153379D01*
X109828182Y-94298278D01*
X109810853Y-94445495D01*
X109789952Y-94598568D01*
X109764873Y-94761035D01*
X109735017Y-94936436D01*
X109699780Y-95128307D01*
X109658560Y-95340188D01*
X109610755Y-95575616D01*
X109555762Y-95838131D01*
X109492980Y-96131271D01*
X109421807Y-96458574D01*
X109341836Y-96822683D01*
X109307857Y-96979068D01*
X109276987Y-97125397D01*
X109250436Y-97255587D01*
X109229416Y-97363556D01*
X109215138Y-97443221D01*
X109208813Y-97488500D01*
X109208635Y-97491656D01*
X109225377Y-97579953D01*
X109276020Y-97659901D01*
X109352183Y-97721028D01*
X109412131Y-97745913D01*
X109467902Y-97755697D01*
X109554353Y-97764050D01*
X109659834Y-97770107D01*
X109772696Y-97773000D01*
X109776683Y-97773033D01*
X109928545Y-97772149D01*
X110046869Y-97764999D01*
X110140302Y-97748855D01*
X110217490Y-97720989D01*
X110287082Y-97678675D01*
X110357724Y-97619185D01*
X110402766Y-97575555D01*
X110542015Y-97436517D01*
X110734654Y-96949683D01*
X110802066Y-96778485D01*
X110878747Y-96582366D01*
X110958992Y-96376004D01*
X111037097Y-96174075D01*
X111107359Y-95991257D01*
X111121278Y-95954850D01*
X111247497Y-95626281D01*
X111361749Y-95333901D01*
X111465999Y-95073924D01*
X111562212Y-94842565D01*
X111652355Y-94636038D01*
X111738394Y-94450558D01*
X111822292Y-94282338D01*
X111906017Y-94127594D01*
X111991534Y-93982539D01*
X112080808Y-93843388D01*
X112175806Y-93706355D01*
X112278492Y-93567655D01*
X112390833Y-93423502D01*
X112514793Y-93270109D01*
X112516118Y-93268492D01*
X112614209Y-93150535D01*
X112694284Y-93061724D01*
X112764245Y-92997731D01*
X112831991Y-92954230D01*
X112905424Y-92926894D01*
X112992444Y-92911394D01*
X113100952Y-92903404D01*
X113188681Y-92900126D01*
X113455661Y-92905974D01*
X113696682Y-92942017D01*
X113916516Y-93009339D01*
X114119938Y-93109023D01*
X114126651Y-93113011D01*
X114180279Y-93150166D01*
X114235220Y-93199515D01*
X114293375Y-93263980D01*
X114356646Y-93346485D01*
X114426936Y-93449953D01*
X114506145Y-93577307D01*
X114596175Y-93731470D01*
X114698928Y-93915364D01*
X114816306Y-94131914D01*
X114935823Y-94356767D01*
X115007923Y-94492875D01*
X115074077Y-94616846D01*
X115131587Y-94723699D01*
X115177758Y-94808454D01*
X115209892Y-94866130D01*
X115225294Y-94891745D01*
X115225764Y-94892305D01*
X115242745Y-94881961D01*
X115278475Y-94842039D01*
X115328340Y-94778265D01*
X115387729Y-94696365D01*
X115413350Y-94659472D01*
X115524078Y-94502635D01*
X115624061Y-94372909D01*
X115722683Y-94260165D01*
X115829331Y-94154276D01*
X115953391Y-94045112D01*
X116073767Y-93946791D01*
X116274225Y-93791245D01*
X116451632Y-93664213D01*
X116611390Y-93562865D01*
X116758900Y-93484370D01*
X116899565Y-93425897D01*
X117038786Y-93384616D01*
X117181966Y-93357697D01*
X117203542Y-93354796D01*
X117291736Y-93342081D01*
X117365124Y-93328907D01*
X117412658Y-93317373D01*
X117422890Y-93313137D01*
X117469948Y-93263969D01*
X117514488Y-93177951D01*
X117557109Y-93053498D01*
X117598412Y-92889025D01*
X117617070Y-92799810D01*
X117696427Y-92455498D01*
X117791250Y-92148428D01*
X117903548Y-91875703D01*
X118035328Y-91634429D01*
X118188598Y-91421710D01*
X118365367Y-91234651D01*
X118567641Y-91070356D01*
X118797428Y-90925930D01*
X118981226Y-90832533D01*
X119316423Y-90696895D01*
X119665889Y-90594234D01*
X120024615Y-90524579D01*
X120387591Y-90487959D01*
X120749806Y-90484404D01*
X121106252Y-90513942D01*
X121451917Y-90576603D01*
X121781791Y-90672416D01*
X122090865Y-90801410D01*
X122116774Y-90814286D01*
X122417862Y-90988385D01*
X122697691Y-91195044D01*
X122953330Y-91430528D01*
X123181852Y-91691101D01*
X123380326Y-91973028D01*
X123545824Y-92272574D01*
X123675416Y-92586002D01*
X123766174Y-92909578D01*
X123768575Y-92920870D01*
X123817146Y-93223527D01*
X123842435Y-93553329D01*
X123844535Y-93902125D01*
X123823541Y-94261767D01*
X123779547Y-94624105D01*
X123746605Y-94816206D01*
X123680100Y-95081156D01*
X123580777Y-95339992D01*
X123528675Y-95449169D01*
X123456608Y-95581425D01*
X123375428Y-95707419D01*
X123280440Y-95832730D01*
X123166947Y-95962936D01*
X123030255Y-96103614D01*
X122865668Y-96260344D01*
X122779586Y-96339105D01*
X122747813Y-96368773D01*
X122720829Y-96397929D01*
X122697137Y-96431009D01*
X122675240Y-96472449D01*
X122653640Y-96526682D01*
X122630841Y-96598144D01*
X122605345Y-96691270D01*
X122575656Y-96810494D01*
X122540276Y-96960253D01*
X122497707Y-97144980D01*
X122477011Y-97235433D01*
X122441386Y-97391252D01*
X122408442Y-97535323D01*
X122379471Y-97662000D01*
X122355764Y-97765637D01*
X122338614Y-97840587D01*
X122329310Y-97881205D01*
X122328421Y-97885077D01*
X122317745Y-97931471D01*
X123561381Y-97939806D01*
X123823835Y-97941631D01*
X124047722Y-97943406D01*
X124236810Y-97945270D01*
X124394865Y-97947362D01*
X124525654Y-97949822D01*
X124632942Y-97952789D01*
X124720498Y-97956401D01*
X124792087Y-97960800D01*
X124851476Y-97966123D01*
X124902431Y-97972509D01*
X124948720Y-97980100D01*
X124994109Y-97989032D01*
X125015454Y-97993572D01*
X125389779Y-98090599D01*
X125739311Y-98214110D01*
X126062110Y-98362798D01*
X126356233Y-98535358D01*
X126619741Y-98730484D01*
X126850692Y-98946868D01*
X127047145Y-99183204D01*
X127207159Y-99438187D01*
X127231376Y-99484838D01*
X127311186Y-99664245D01*
X127389738Y-99881168D01*
X127465923Y-100130790D01*
X127538633Y-100408293D01*
X127606762Y-100708861D01*
X127669201Y-101027677D01*
X127724842Y-101359922D01*
X127772579Y-101700781D01*
X127804367Y-101976767D01*
X127812202Y-102078454D01*
X127818755Y-102216047D01*
X127824024Y-102383138D01*
X127828012Y-102573318D01*
X127830716Y-102780180D01*
X127832137Y-102997314D01*
X127832275Y-103218312D01*
X127831129Y-103436768D01*
X127828699Y-103646271D01*
X127824984Y-103840415D01*
X127819986Y-104012791D01*
X127813703Y-104156990D01*
X127806135Y-104266605D01*
X127804454Y-104283933D01*
X127742447Y-104757458D01*
X127657790Y-105196627D01*
X127549926Y-105603197D01*
X127418298Y-105978924D01*
X127262347Y-106325563D01*
X127081517Y-106644873D01*
X127029189Y-106725381D01*
X126962519Y-106823503D01*
X126899490Y-106912065D01*
X126835080Y-106997198D01*
X126764267Y-107085031D01*
X126682028Y-107181694D01*
X126583340Y-107293315D01*
X126463182Y-107426025D01*
X126386004Y-107510357D01*
X126294513Y-107611702D01*
X126216819Y-107700962D01*
X126156435Y-107773850D01*
X126116871Y-107826078D01*
X126101639Y-107853358D01*
X126102745Y-107856232D01*
X126154242Y-107882026D01*
X126228258Y-107930216D01*
X126316274Y-107994412D01*
X126409772Y-108068224D01*
X126500231Y-108145259D01*
X126554490Y-108195107D01*
X126749249Y-108408269D01*
X126913044Y-108644922D01*
X127042207Y-108898896D01*
X127133065Y-109164025D01*
X127134579Y-109169836D01*
X127159577Y-109260142D01*
X127180524Y-109317269D01*
X127201534Y-109349580D01*
X127226720Y-109365434D01*
X127231604Y-109367061D01*
X127267714Y-109373495D01*
X127338574Y-109382347D01*
X127436724Y-109392824D01*
X127554702Y-109404134D01*
X127685048Y-109415482D01*
X127694267Y-109416243D01*
X128021257Y-109444605D01*
X128309132Y-109472901D01*
X128561106Y-109501718D01*
X128780390Y-109531643D01*
X128970198Y-109563260D01*
X129133744Y-109597156D01*
X129274241Y-109633916D01*
X129394901Y-109674127D01*
X129498938Y-109718374D01*
X129576408Y-109759425D01*
X129663537Y-109819750D01*
X129762238Y-109902685D01*
X129859705Y-109996232D01*
X129943128Y-110088391D01*
X129982121Y-110139485D01*
X130055262Y-110253134D01*
X130118217Y-110369369D01*
X130171874Y-110492482D01*
X130217123Y-110626762D01*
X130254850Y-110776500D01*
X130285945Y-110945984D01*
X130311296Y-111139506D01*
X130331791Y-111361356D01*
X130348318Y-111615824D01*
X130361767Y-111907200D01*
X130364798Y-111987591D01*
X130372899Y-112245396D01*
X130376793Y-112467149D01*
X130376113Y-112658958D01*
X130370492Y-112826930D01*
X130359562Y-112977171D01*
X130342956Y-113115790D01*
X130320307Y-113248893D01*
X130291247Y-113382588D01*
X130277514Y-113438517D01*
X130211645Y-113653757D01*
X130124119Y-113870124D01*
X130019028Y-114081099D01*
X129900466Y-114280161D01*
X129772526Y-114460793D01*
X129639302Y-114616474D01*
X129504886Y-114740685D01*
X129423647Y-114798471D01*
X129273088Y-114883559D01*
X129124458Y-114946959D01*
X128958161Y-114996683D01*
X128911350Y-115007959D01*
X128830558Y-115020863D01*
X128714014Y-115031432D01*
X128568232Y-115039665D01*
X128399730Y-115045560D01*
X128215022Y-115049116D01*
X128020625Y-115050329D01*
X127823056Y-115049198D01*
X127628829Y-115045722D01*
X127444461Y-115039898D01*
X127276467Y-115031725D01*
X127131365Y-115021201D01*
X127016933Y-115008502D01*
X126631900Y-114943480D01*
X126274418Y-114860151D01*
X125932531Y-114755418D01*
X125686967Y-114664082D01*
X125444923Y-114562067D01*
X125241490Y-114463943D01*
X125073393Y-114367457D01*
X124937360Y-114270355D01*
X124830116Y-114170384D01*
X124748386Y-114065290D01*
X124704940Y-113988163D01*
X124671874Y-113931068D01*
X124639475Y-113892252D01*
X124626224Y-113883792D01*
X124598900Y-113877554D01*
X124534641Y-113863932D01*
X124438020Y-113843865D01*
X124313609Y-113818291D01*
X124165981Y-113788150D01*
X123999709Y-113754378D01*
X123819364Y-113717916D01*
X123744779Y-113702882D01*
X122896209Y-113531987D01*
X122644113Y-113625402D01*
X122352879Y-113722458D01*
X122041154Y-113806906D01*
X121730196Y-113873147D01*
X121651183Y-113886847D01*
X121503225Y-113905238D01*
X121322081Y-113918216D01*
X121116548Y-113925824D01*
X120895421Y-113928106D01*
X120667495Y-113925106D01*
X120441564Y-113916867D01*
X120226425Y-113903435D01*
X120030873Y-113884852D01*
X119979017Y-113878497D01*
X119848579Y-113861954D01*
X119730717Y-113848112D01*
X119619074Y-113836568D01*
X119507297Y-113826913D01*
X119389031Y-113818741D01*
X119257922Y-113811646D01*
X119107616Y-113805222D01*
X118931757Y-113799062D01*
X118723991Y-113792759D01*
X118571433Y-113788465D01*
X118373929Y-113782553D01*
X118213955Y-113776614D01*
X118086710Y-113770313D01*
X117987392Y-113763310D01*
X117911199Y-113755268D01*
X117853330Y-113745850D01*
X117809433Y-113734856D01*
X117606036Y-113653231D01*
X117430793Y-113543155D01*
X117286003Y-113406934D01*
X117173963Y-113246873D01*
X117096972Y-113065280D01*
X117080057Y-113002766D01*
X117057560Y-112873265D01*
X117049746Y-112732196D01*
X117056815Y-112571797D01*
X117078964Y-112384309D01*
X117099210Y-112257713D01*
X117118755Y-112138858D01*
X117135919Y-112024649D01*
X117149087Y-111926541D01*
X117156644Y-111855990D01*
X117157418Y-111844869D01*
X117163850Y-111732889D01*
X116997097Y-111658844D01*
X116921533Y-111626204D01*
X116862488Y-111602424D01*
X116829106Y-111591114D01*
X116824971Y-111590908D01*
X116819696Y-111612760D01*
X116808626Y-111669118D01*
X116793113Y-111752764D01*
X116774506Y-111856477D01*
X116762459Y-111925100D01*
X116712899Y-112191699D01*
X116663017Y-112420479D01*
X116611059Y-112615929D01*
X116555269Y-112782538D01*
X116493892Y-112924795D01*
X116425174Y-113047191D01*
X116347359Y-113154214D01*
X116258692Y-113250354D01*
X116235866Y-113272062D01*
X116110828Y-113375292D01*
X115972999Y-113463068D01*
X115819766Y-113535677D01*
X115648521Y-113593406D01*
X115456653Y-113636544D01*
X115241553Y-113665379D01*
X115000609Y-113680198D01*
X114731212Y-113681289D01*
X114430752Y-113668940D01*
X114096618Y-113643439D01*
X113726201Y-113605074D01*
X113482896Y-113575677D01*
X113300633Y-113551685D01*
X113154335Y-113529397D01*
X113037813Y-113506622D01*
X112944878Y-113481167D01*
X112869340Y-113450840D01*
X112805011Y-113413450D01*
X112745702Y-113366803D01*
X112685224Y-113308710D01*
X112662472Y-113285095D01*
X112516038Y-113101999D01*
X112392663Y-112885790D01*
X112303108Y-112665933D01*
X112234453Y-112464850D01*
X112229647Y-111727484D01*
X112228330Y-111555204D01*
X112226744Y-111396806D01*
X112224968Y-111257154D01*
X112223078Y-111141110D01*
X112221154Y-111053538D01*
X112219271Y-110999301D01*
X112217762Y-110983040D01*
X112198405Y-110991400D01*
X112147838Y-111018675D01*
X112071138Y-111061973D01*
X111973379Y-111118403D01*
X111859638Y-111185075D01*
X111776849Y-111234136D01*
X111343017Y-111492311D01*
X111331137Y-112359581D01*
X111328125Y-112574454D01*
X111325350Y-112751446D01*
X111322538Y-112895005D01*
X111319416Y-113009579D01*
X111315710Y-113099618D01*
X111311145Y-113169570D01*
X111305448Y-113223884D01*
X111298345Y-113267009D01*
X111289561Y-113303392D01*
X111278823Y-113337483D01*
X111269246Y-113364433D01*
X111207659Y-113488579D01*
X111120714Y-113602540D01*
X111017728Y-113696619D01*
X110908014Y-113761118D01*
X110877141Y-113772626D01*
X110780444Y-113799900D01*
X110688078Y-113816166D01*
X110590591Y-113821521D01*
X110478535Y-113816059D01*
X110342459Y-113799877D01*
X110210534Y-113779372D01*
X110060218Y-113757034D01*
X109888751Y-113735593D01*
X109716549Y-113717389D01*
X109564027Y-113704764D01*
X109554433Y-113704138D01*
X109430431Y-113694491D01*
X109311786Y-113682154D01*
X109209365Y-113668470D01*
X109134035Y-113654784D01*
X109113964Y-113649623D01*
X109000864Y-113601829D01*
X108906371Y-113529494D01*
X108827590Y-113428608D01*
X108761624Y-113295159D01*
X108705576Y-113125137D01*
X108688925Y-113060977D01*
X108659667Y-112953369D01*
X108621369Y-112828074D01*
X108580748Y-112706695D01*
X108566454Y-112667051D01*
X108489945Y-112460164D01*
X108328981Y-112652912D01*
X108040927Y-112975372D01*
X107742744Y-113263114D01*
X107427363Y-113521754D01*
X107087713Y-113756906D01*
X106716725Y-113974185D01*
X106565307Y-114053617D01*
X106199517Y-114239991D01*
X105985468Y-114255381D01*
X105850597Y-114269960D01*
X105740513Y-114295500D01*
X105648741Y-114336937D01*
X105568807Y-114399205D01*
X105494235Y-114487241D01*
X105418553Y-114605978D01*
X105343226Y-114744934D01*
X105181446Y-115030638D01*
X105005226Y-115291337D01*
X104818229Y-115522393D01*
X104624118Y-115719167D01*
X104479275Y-115839064D01*
X104231509Y-115999373D01*
X103958224Y-116130195D01*
X103666497Y-116229052D01*
X103363407Y-116293462D01*
X103109183Y-116318943D01*
X103009600Y-116323963D01*
X102917795Y-116328894D01*
X102847406Y-116332990D01*
X102823433Y-116334568D01*
X102773490Y-116335479D01*
X102692561Y-116334010D01*
X102591911Y-116330471D01*
X102484767Y-116325278D01*
X102069162Y-116282002D01*
X101661906Y-116198372D01*
X101262367Y-116074109D01*
X100869915Y-115908937D01*
X100483919Y-115702578D01*
X100103750Y-115454757D01*
X99728776Y-115165195D01*
X99606100Y-115060461D01*
X99485320Y-114953181D01*
X99371175Y-114847791D01*
X99258080Y-114738656D01*
X99140449Y-114620140D01*
X99012696Y-114486606D01*
X98869237Y-114332419D01*
X98704486Y-114151942D01*
X98690960Y-114137017D01*
X98584411Y-114019489D01*
X98485110Y-113910126D01*
X98397199Y-113813476D01*
X98324820Y-113734086D01*
X98272115Y-113676504D01*
X98243226Y-113645280D01*
X98241715Y-113643687D01*
X98195146Y-113594858D01*
X97951174Y-113887104D01*
X97763987Y-114103414D01*
X97591202Y-114285663D01*
X97428387Y-114437705D01*
X97271109Y-114563390D01*
X97114935Y-114666571D01*
X96958388Y-114749706D01*
X96844390Y-114799136D01*
X96729300Y-114838744D01*
X96601845Y-114871588D01*
X96450752Y-114900727D01*
X96333268Y-114919316D01*
X95949165Y-114965836D01*
X95596526Y-114986061D01*
X95273312Y-114979575D01*
X94977489Y-114945966D01*
X94707019Y-114884818D01*
X94459865Y-114795720D01*
X94233991Y-114678255D01*
X94027360Y-114532011D01*
X93907597Y-114426301D01*
X93803716Y-114317689D01*
X93700133Y-114192829D01*
X93605008Y-114062824D01*
X93526502Y-113938772D01*
X93475744Y-113838913D01*
X93418795Y-113674669D01*
X93370379Y-113472402D01*
X93330950Y-113235645D01*
X93300963Y-112967930D01*
X93280872Y-112672790D01*
X93271133Y-112353757D01*
X93270265Y-112242600D01*
X93277975Y-111935162D01*
X93303782Y-111661711D01*
X93349434Y-111417184D01*
X93416677Y-111196520D01*
X93507258Y-110994656D01*
X93622924Y-110806531D01*
X93765422Y-110627083D01*
X93863991Y-110522012D01*
X93977456Y-110415264D01*
X94089722Y-110328171D01*
X94209460Y-110256218D01*
X94345342Y-110194888D01*
X94506038Y-110139668D01*
X94700219Y-110086040D01*
X94702058Y-110085573D01*
X94938850Y-110025472D01*
X95605600Y-110030604D01*
X95799198Y-110032388D01*
X95956258Y-110034667D01*
X96082576Y-110037761D01*
X96183947Y-110041993D01*
X96266166Y-110047686D01*
X96335029Y-110055163D01*
X96396330Y-110064745D01*
X96455866Y-110076755D01*
X96462850Y-110078304D01*
X96728439Y-110153098D01*
X96970236Y-110255131D01*
X97200629Y-110389660D01*
X97207916Y-110394537D01*
X97319362Y-110465900D01*
X97403529Y-110511457D01*
X97464837Y-110533457D01*
X97486459Y-110536282D01*
X97557568Y-110538683D01*
X98169084Y-109355233D01*
X98276235Y-109147633D01*
X98377413Y-108951152D01*
X98470971Y-108769015D01*
X98555265Y-108604448D01*
X98628650Y-108460675D01*
X98689479Y-108340922D01*
X98736109Y-108248412D01*
X98766892Y-108186372D01*
X98780185Y-108158025D01*
X98780600Y-108156662D01*
X98760909Y-108147802D01*
X98705335Y-108130371D01*
X98619125Y-108105819D01*
X98507527Y-108075596D01*
X98375787Y-108041152D01*
X98229152Y-108003935D01*
X98214392Y-108000247D01*
X97906574Y-107921275D01*
X97636901Y-107846925D01*
X97401671Y-107775405D01*
X97197184Y-107704921D01*
X97019739Y-107633678D01*
X96865637Y-107559885D01*
X96731177Y-107481746D01*
X96612658Y-107397469D01*
X96506380Y-107305259D01*
X96408643Y-107203324D01*
X96315746Y-107089870D01*
X96303860Y-107074218D01*
X96163898Y-106860087D01*
X96037245Y-106607893D01*
X95924448Y-106319934D01*
X95826058Y-105998511D01*
X95742622Y-105645924D01*
X95674690Y-105264473D01*
X95622809Y-104856459D01*
X95587530Y-104424182D01*
X95570004Y-103998183D01*
X95566515Y-103827093D01*
X95564871Y-103690513D01*
X95565387Y-103580646D01*
X95568379Y-103489696D01*
X95574161Y-103409867D01*
X95583050Y-103333363D01*
X95595359Y-103252387D01*
X95601672Y-103214895D01*
X95678832Y-102874134D01*
X95789424Y-102552297D01*
X95931812Y-102252810D01*
X96104359Y-101979098D01*
X96305425Y-101734587D01*
X96313190Y-101726358D01*
X96488651Y-101556930D01*
X96667664Y-101418051D01*
X96864353Y-101299279D01*
X96949683Y-101255772D01*
X97112166Y-101182866D01*
X97266180Y-101128882D01*
X97423674Y-101091078D01*
X97596597Y-101066713D01*
X97796895Y-101053046D01*
X97840608Y-101051378D01*
X98160033Y-101040467D01*
X98208184Y-100889492D01*
X98324341Y-100591196D01*
X98476484Y-100312589D01*
X98665122Y-100053125D01*
X98890764Y-99812256D01*
X99153918Y-99589436D01*
X99455094Y-99384118D01*
X99775302Y-99205584D01*
X99894343Y-99148036D01*
X100039225Y-99082331D01*
X100199138Y-99012986D01*
X100363272Y-98944518D01*
X100520817Y-98881443D01*
X100660964Y-98828280D01*
X100764365Y-98792290D01*
X100874881Y-98756436D01*
X100730236Y-98466893D01*
X100622206Y-98242826D01*
X100534467Y-98042171D01*
X100462687Y-97853903D01*
X100402533Y-97666999D01*
X100370050Y-97550283D01*
X100287010Y-97154050D01*
X100245582Y-96753949D01*
X100245959Y-96352906D01*
X100271986Y-96067059D01*
X100286207Y-95952219D01*
X100302619Y-95812275D01*
X100319270Y-95664250D01*
X100334211Y-95525172D01*
X100335344Y-95514263D01*
X100360664Y-95301953D01*
X100390562Y-95123474D01*
X100428030Y-94970350D01*
X100476058Y-94834109D01*
X100537638Y-94706277D01*
X100615761Y-94578381D01*
X100713418Y-94441947D01*
X100714254Y-94440841D01*
X100935794Y-94182514D01*
X101186839Y-93954089D01*
X101466144Y-93756371D01*
X101772461Y-93590168D01*
X102104546Y-93456288D01*
X102346851Y-93383493D01*
X102454463Y-93355714D01*
X102548194Y-93332734D01*
X102636305Y-93312979D01*
X102727055Y-93294877D01*
X102828704Y-93276854D01*
X102949512Y-93257337D01*
X103097738Y-93234751D01*
X103233209Y-93214655D01*
X103361194Y-93195516D01*
X103474005Y-93178128D01*
X103565275Y-93163515D01*
X103628635Y-93152701D01*
X103657720Y-93146709D01*
X103658860Y-93146186D01*
X103663317Y-93124448D01*
X103673398Y-93066026D01*
X103688265Y-92976072D01*
X103707080Y-92859739D01*
X103729006Y-92722180D01*
X103753203Y-92568547D01*
X103763185Y-92504683D01*
X103797767Y-92286836D01*
X103828195Y-92105531D01*
X103855808Y-91955336D01*
X103881946Y-91830818D01*
X103907950Y-91726545D01*
X103935159Y-91637085D01*
X103964913Y-91557004D01*
X103998552Y-91480870D01*
X104032578Y-91412543D01*
X104161453Y-91206206D01*
X104323706Y-91020738D01*
X104520275Y-90855514D01*
X104752096Y-90709907D01*
X105020107Y-90583294D01*
X105325245Y-90475046D01*
X105517223Y-90421045D01*
X105745504Y-90367674D01*
X105960026Y-90330199D01*
X106174412Y-90307173D01*
X106402282Y-90297146D01*
X106657258Y-90298667D01*
G37*
X106657258Y-90298667D02*
X106665183Y-90298868D01*
X106979106Y-90315532D01*
X107266067Y-90350207D01*
X107537132Y-90405646D01*
X107803370Y-90484603D01*
X108075849Y-90589832D01*
X108356918Y-90719774D01*
X108682853Y-90896544D01*
X108968503Y-91085303D01*
X109214327Y-91286558D01*
X109420786Y-91500813D01*
X109588340Y-91728575D01*
X109717450Y-91970349D01*
X109808575Y-92226641D01*
X109837188Y-92346242D01*
X109855091Y-92462238D01*
X109869216Y-92613282D01*
X109879370Y-92792242D01*
X109885360Y-92991985D01*
X109886993Y-93205378D01*
X109884074Y-93425289D01*
X109876412Y-93644585D01*
X109873800Y-93697203D01*
X109864745Y-93856380D01*
X109854525Y-94007259D01*
X109842538Y-94153379D01*
X109828182Y-94298278D01*
X109810853Y-94445495D01*
X109789952Y-94598568D01*
X109764873Y-94761035D01*
X109735017Y-94936436D01*
X109699780Y-95128307D01*
X109658560Y-95340188D01*
X109610755Y-95575616D01*
X109555762Y-95838131D01*
X109492980Y-96131271D01*
X109421807Y-96458574D01*
X109341836Y-96822683D01*
X109307857Y-96979068D01*
X109276987Y-97125397D01*
X109250436Y-97255587D01*
X109229416Y-97363556D01*
X109215138Y-97443221D01*
X109208813Y-97488500D01*
X109208635Y-97491656D01*
X109225377Y-97579953D01*
X109276020Y-97659901D01*
X109352183Y-97721028D01*
X109412131Y-97745913D01*
X109467902Y-97755697D01*
X109554353Y-97764050D01*
X109659834Y-97770107D01*
X109772696Y-97773000D01*
X109776683Y-97773033D01*
X109928545Y-97772149D01*
X110046869Y-97764999D01*
X110140302Y-97748855D01*
X110217490Y-97720989D01*
X110287082Y-97678675D01*
X110357724Y-97619185D01*
X110402766Y-97575555D01*
X110542015Y-97436517D01*
X110734654Y-96949683D01*
X110802066Y-96778485D01*
X110878747Y-96582366D01*
X110958992Y-96376004D01*
X111037097Y-96174075D01*
X111107359Y-95991257D01*
X111121278Y-95954850D01*
X111247497Y-95626281D01*
X111361749Y-95333901D01*
X111465999Y-95073924D01*
X111562212Y-94842565D01*
X111652355Y-94636038D01*
X111738394Y-94450558D01*
X111822292Y-94282338D01*
X111906017Y-94127594D01*
X111991534Y-93982539D01*
X112080808Y-93843388D01*
X112175806Y-93706355D01*
X112278492Y-93567655D01*
X112390833Y-93423502D01*
X112514793Y-93270109D01*
X112516118Y-93268492D01*
X112614209Y-93150535D01*
X112694284Y-93061724D01*
X112764245Y-92997731D01*
X112831991Y-92954230D01*
X112905424Y-92926894D01*
X112992444Y-92911394D01*
X113100952Y-92903404D01*
X113188681Y-92900126D01*
X113455661Y-92905974D01*
X113696682Y-92942017D01*
X113916516Y-93009339D01*
X114119938Y-93109023D01*
X114126651Y-93113011D01*
X114180279Y-93150166D01*
X114235220Y-93199515D01*
X114293375Y-93263980D01*
X114356646Y-93346485D01*
X114426936Y-93449953D01*
X114506145Y-93577307D01*
X114596175Y-93731470D01*
X114698928Y-93915364D01*
X114816306Y-94131914D01*
X114935823Y-94356767D01*
X115007923Y-94492875D01*
X115074077Y-94616846D01*
X115131587Y-94723699D01*
X115177758Y-94808454D01*
X115209892Y-94866130D01*
X115225294Y-94891745D01*
X115225764Y-94892305D01*
X115242745Y-94881961D01*
X115278475Y-94842039D01*
X115328340Y-94778265D01*
X115387729Y-94696365D01*
X115413350Y-94659472D01*
X115524078Y-94502635D01*
X115624061Y-94372909D01*
X115722683Y-94260165D01*
X115829331Y-94154276D01*
X115953391Y-94045112D01*
X116073767Y-93946791D01*
X116274225Y-93791245D01*
X116451632Y-93664213D01*
X116611390Y-93562865D01*
X116758900Y-93484370D01*
X116899565Y-93425897D01*
X117038786Y-93384616D01*
X117181966Y-93357697D01*
X117203542Y-93354796D01*
X117291736Y-93342081D01*
X117365124Y-93328907D01*
X117412658Y-93317373D01*
X117422890Y-93313137D01*
X117469948Y-93263969D01*
X117514488Y-93177951D01*
X117557109Y-93053498D01*
X117598412Y-92889025D01*
X117617070Y-92799810D01*
X117696427Y-92455498D01*
X117791250Y-92148428D01*
X117903548Y-91875703D01*
X118035328Y-91634429D01*
X118188598Y-91421710D01*
X118365367Y-91234651D01*
X118567641Y-91070356D01*
X118797428Y-90925930D01*
X118981226Y-90832533D01*
X119316423Y-90696895D01*
X119665889Y-90594234D01*
X120024615Y-90524579D01*
X120387591Y-90487959D01*
X120749806Y-90484404D01*
X121106252Y-90513942D01*
X121451917Y-90576603D01*
X121781791Y-90672416D01*
X122090865Y-90801410D01*
X122116774Y-90814286D01*
X122417862Y-90988385D01*
X122697691Y-91195044D01*
X122953330Y-91430528D01*
X123181852Y-91691101D01*
X123380326Y-91973028D01*
X123545824Y-92272574D01*
X123675416Y-92586002D01*
X123766174Y-92909578D01*
X123768575Y-92920870D01*
X123817146Y-93223527D01*
X123842435Y-93553329D01*
X123844535Y-93902125D01*
X123823541Y-94261767D01*
X123779547Y-94624105D01*
X123746605Y-94816206D01*
X123680100Y-95081156D01*
X123580777Y-95339992D01*
X123528675Y-95449169D01*
X123456608Y-95581425D01*
X123375428Y-95707419D01*
X123280440Y-95832730D01*
X123166947Y-95962936D01*
X123030255Y-96103614D01*
X122865668Y-96260344D01*
X122779586Y-96339105D01*
X122747813Y-96368773D01*
X122720829Y-96397929D01*
X122697137Y-96431009D01*
X122675240Y-96472449D01*
X122653640Y-96526682D01*
X122630841Y-96598144D01*
X122605345Y-96691270D01*
X122575656Y-96810494D01*
X122540276Y-96960253D01*
X122497707Y-97144980D01*
X122477011Y-97235433D01*
X122441386Y-97391252D01*
X122408442Y-97535323D01*
X122379471Y-97662000D01*
X122355764Y-97765637D01*
X122338614Y-97840587D01*
X122329310Y-97881205D01*
X122328421Y-97885077D01*
X122317745Y-97931471D01*
X123561381Y-97939806D01*
X123823835Y-97941631D01*
X124047722Y-97943406D01*
X124236810Y-97945270D01*
X124394865Y-97947362D01*
X124525654Y-97949822D01*
X124632942Y-97952789D01*
X124720498Y-97956401D01*
X124792087Y-97960800D01*
X124851476Y-97966123D01*
X124902431Y-97972509D01*
X124948720Y-97980100D01*
X124994109Y-97989032D01*
X125015454Y-97993572D01*
X125389779Y-98090599D01*
X125739311Y-98214110D01*
X126062110Y-98362798D01*
X126356233Y-98535358D01*
X126619741Y-98730484D01*
X126850692Y-98946868D01*
X127047145Y-99183204D01*
X127207159Y-99438187D01*
X127231376Y-99484838D01*
X127311186Y-99664245D01*
X127389738Y-99881168D01*
X127465923Y-100130790D01*
X127538633Y-100408293D01*
X127606762Y-100708861D01*
X127669201Y-101027677D01*
X127724842Y-101359922D01*
X127772579Y-101700781D01*
X127804367Y-101976767D01*
X127812202Y-102078454D01*
X127818755Y-102216047D01*
X127824024Y-102383138D01*
X127828012Y-102573318D01*
X127830716Y-102780180D01*
X127832137Y-102997314D01*
X127832275Y-103218312D01*
X127831129Y-103436768D01*
X127828699Y-103646271D01*
X127824984Y-103840415D01*
X127819986Y-104012791D01*
X127813703Y-104156990D01*
X127806135Y-104266605D01*
X127804454Y-104283933D01*
X127742447Y-104757458D01*
X127657790Y-105196627D01*
X127549926Y-105603197D01*
X127418298Y-105978924D01*
X127262347Y-106325563D01*
X127081517Y-106644873D01*
X127029189Y-106725381D01*
X126962519Y-106823503D01*
X126899490Y-106912065D01*
X126835080Y-106997198D01*
X126764267Y-107085031D01*
X126682028Y-107181694D01*
X126583340Y-107293315D01*
X126463182Y-107426025D01*
X126386004Y-107510357D01*
X126294513Y-107611702D01*
X126216819Y-107700962D01*
X126156435Y-107773850D01*
X126116871Y-107826078D01*
X126101639Y-107853358D01*
X126102745Y-107856232D01*
X126154242Y-107882026D01*
X126228258Y-107930216D01*
X126316274Y-107994412D01*
X126409772Y-108068224D01*
X126500231Y-108145259D01*
X126554490Y-108195107D01*
X126749249Y-108408269D01*
X126913044Y-108644922D01*
X127042207Y-108898896D01*
X127133065Y-109164025D01*
X127134579Y-109169836D01*
X127159577Y-109260142D01*
X127180524Y-109317269D01*
X127201534Y-109349580D01*
X127226720Y-109365434D01*
X127231604Y-109367061D01*
X127267714Y-109373495D01*
X127338574Y-109382347D01*
X127436724Y-109392824D01*
X127554702Y-109404134D01*
X127685048Y-109415482D01*
X127694267Y-109416243D01*
X128021257Y-109444605D01*
X128309132Y-109472901D01*
X128561106Y-109501718D01*
X128780390Y-109531643D01*
X128970198Y-109563260D01*
X129133744Y-109597156D01*
X129274241Y-109633916D01*
X129394901Y-109674127D01*
X129498938Y-109718374D01*
X129576408Y-109759425D01*
X129663537Y-109819750D01*
X129762238Y-109902685D01*
X129859705Y-109996232D01*
X129943128Y-110088391D01*
X129982121Y-110139485D01*
X130055262Y-110253134D01*
X130118217Y-110369369D01*
X130171874Y-110492482D01*
X130217123Y-110626762D01*
X130254850Y-110776500D01*
X130285945Y-110945984D01*
X130311296Y-111139506D01*
X130331791Y-111361356D01*
X130348318Y-111615824D01*
X130361767Y-111907200D01*
X130364798Y-111987591D01*
X130372899Y-112245396D01*
X130376793Y-112467149D01*
X130376113Y-112658958D01*
X130370492Y-112826930D01*
X130359562Y-112977171D01*
X130342956Y-113115790D01*
X130320307Y-113248893D01*
X130291247Y-113382588D01*
X130277514Y-113438517D01*
X130211645Y-113653757D01*
X130124119Y-113870124D01*
X130019028Y-114081099D01*
X129900466Y-114280161D01*
X129772526Y-114460793D01*
X129639302Y-114616474D01*
X129504886Y-114740685D01*
X129423647Y-114798471D01*
X129273088Y-114883559D01*
X129124458Y-114946959D01*
X128958161Y-114996683D01*
X128911350Y-115007959D01*
X128830558Y-115020863D01*
X128714014Y-115031432D01*
X128568232Y-115039665D01*
X128399730Y-115045560D01*
X128215022Y-115049116D01*
X128020625Y-115050329D01*
X127823056Y-115049198D01*
X127628829Y-115045722D01*
X127444461Y-115039898D01*
X127276467Y-115031725D01*
X127131365Y-115021201D01*
X127016933Y-115008502D01*
X126631900Y-114943480D01*
X126274418Y-114860151D01*
X125932531Y-114755418D01*
X125686967Y-114664082D01*
X125444923Y-114562067D01*
X125241490Y-114463943D01*
X125073393Y-114367457D01*
X124937360Y-114270355D01*
X124830116Y-114170384D01*
X124748386Y-114065290D01*
X124704940Y-113988163D01*
X124671874Y-113931068D01*
X124639475Y-113892252D01*
X124626224Y-113883792D01*
X124598900Y-113877554D01*
X124534641Y-113863932D01*
X124438020Y-113843865D01*
X124313609Y-113818291D01*
X124165981Y-113788150D01*
X123999709Y-113754378D01*
X123819364Y-113717916D01*
X123744779Y-113702882D01*
X122896209Y-113531987D01*
X122644113Y-113625402D01*
X122352879Y-113722458D01*
X122041154Y-113806906D01*
X121730196Y-113873147D01*
X121651183Y-113886847D01*
X121503225Y-113905238D01*
X121322081Y-113918216D01*
X121116548Y-113925824D01*
X120895421Y-113928106D01*
X120667495Y-113925106D01*
X120441564Y-113916867D01*
X120226425Y-113903435D01*
X120030873Y-113884852D01*
X119979017Y-113878497D01*
X119848579Y-113861954D01*
X119730717Y-113848112D01*
X119619074Y-113836568D01*
X119507297Y-113826913D01*
X119389031Y-113818741D01*
X119257922Y-113811646D01*
X119107616Y-113805222D01*
X118931757Y-113799062D01*
X118723991Y-113792759D01*
X118571433Y-113788465D01*
X118373929Y-113782553D01*
X118213955Y-113776614D01*
X118086710Y-113770313D01*
X117987392Y-113763310D01*
X117911199Y-113755268D01*
X117853330Y-113745850D01*
X117809433Y-113734856D01*
X117606036Y-113653231D01*
X117430793Y-113543155D01*
X117286003Y-113406934D01*
X117173963Y-113246873D01*
X117096972Y-113065280D01*
X117080057Y-113002766D01*
X117057560Y-112873265D01*
X117049746Y-112732196D01*
X117056815Y-112571797D01*
X117078964Y-112384309D01*
X117099210Y-112257713D01*
X117118755Y-112138858D01*
X117135919Y-112024649D01*
X117149087Y-111926541D01*
X117156644Y-111855990D01*
X117157418Y-111844869D01*
X117163850Y-111732889D01*
X116997097Y-111658844D01*
X116921533Y-111626204D01*
X116862488Y-111602424D01*
X116829106Y-111591114D01*
X116824971Y-111590908D01*
X116819696Y-111612760D01*
X116808626Y-111669118D01*
X116793113Y-111752764D01*
X116774506Y-111856477D01*
X116762459Y-111925100D01*
X116712899Y-112191699D01*
X116663017Y-112420479D01*
X116611059Y-112615929D01*
X116555269Y-112782538D01*
X116493892Y-112924795D01*
X116425174Y-113047191D01*
X116347359Y-113154214D01*
X116258692Y-113250354D01*
X116235866Y-113272062D01*
X116110828Y-113375292D01*
X115972999Y-113463068D01*
X115819766Y-113535677D01*
X115648521Y-113593406D01*
X115456653Y-113636544D01*
X115241553Y-113665379D01*
X115000609Y-113680198D01*
X114731212Y-113681289D01*
X114430752Y-113668940D01*
X114096618Y-113643439D01*
X113726201Y-113605074D01*
X113482896Y-113575677D01*
X113300633Y-113551685D01*
X113154335Y-113529397D01*
X113037813Y-113506622D01*
X112944878Y-113481167D01*
X112869340Y-113450840D01*
X112805011Y-113413450D01*
X112745702Y-113366803D01*
X112685224Y-113308710D01*
X112662472Y-113285095D01*
X112516038Y-113101999D01*
X112392663Y-112885790D01*
X112303108Y-112665933D01*
X112234453Y-112464850D01*
X112229647Y-111727484D01*
X112228330Y-111555204D01*
X112226744Y-111396806D01*
X112224968Y-111257154D01*
X112223078Y-111141110D01*
X112221154Y-111053538D01*
X112219271Y-110999301D01*
X112217762Y-110983040D01*
X112198405Y-110991400D01*
X112147838Y-111018675D01*
X112071138Y-111061973D01*
X111973379Y-111118403D01*
X111859638Y-111185075D01*
X111776849Y-111234136D01*
X111343017Y-111492311D01*
X111331137Y-112359581D01*
X111328125Y-112574454D01*
X111325350Y-112751446D01*
X111322538Y-112895005D01*
X111319416Y-113009579D01*
X111315710Y-113099618D01*
X111311145Y-113169570D01*
X111305448Y-113223884D01*
X111298345Y-113267009D01*
X111289561Y-113303392D01*
X111278823Y-113337483D01*
X111269246Y-113364433D01*
X111207659Y-113488579D01*
X111120714Y-113602540D01*
X111017728Y-113696619D01*
X110908014Y-113761118D01*
X110877141Y-113772626D01*
X110780444Y-113799900D01*
X110688078Y-113816166D01*
X110590591Y-113821521D01*
X110478535Y-113816059D01*
X110342459Y-113799877D01*
X110210534Y-113779372D01*
X110060218Y-113757034D01*
X109888751Y-113735593D01*
X109716549Y-113717389D01*
X109564027Y-113704764D01*
X109554433Y-113704138D01*
X109430431Y-113694491D01*
X109311786Y-113682154D01*
X109209365Y-113668470D01*
X109134035Y-113654784D01*
X109113964Y-113649623D01*
X109000864Y-113601829D01*
X108906371Y-113529494D01*
X108827590Y-113428608D01*
X108761624Y-113295159D01*
X108705576Y-113125137D01*
X108688925Y-113060977D01*
X108659667Y-112953369D01*
X108621369Y-112828074D01*
X108580748Y-112706695D01*
X108566454Y-112667051D01*
X108489945Y-112460164D01*
X108328981Y-112652912D01*
X108040927Y-112975372D01*
X107742744Y-113263114D01*
X107427363Y-113521754D01*
X107087713Y-113756906D01*
X106716725Y-113974185D01*
X106565307Y-114053617D01*
X106199517Y-114239991D01*
X105985468Y-114255381D01*
X105850597Y-114269960D01*
X105740513Y-114295500D01*
X105648741Y-114336937D01*
X105568807Y-114399205D01*
X105494235Y-114487241D01*
X105418553Y-114605978D01*
X105343226Y-114744934D01*
X105181446Y-115030638D01*
X105005226Y-115291337D01*
X104818229Y-115522393D01*
X104624118Y-115719167D01*
X104479275Y-115839064D01*
X104231509Y-115999373D01*
X103958224Y-116130195D01*
X103666497Y-116229052D01*
X103363407Y-116293462D01*
X103109183Y-116318943D01*
X103009600Y-116323963D01*
X102917795Y-116328894D01*
X102847406Y-116332990D01*
X102823433Y-116334568D01*
X102773490Y-116335479D01*
X102692561Y-116334010D01*
X102591911Y-116330471D01*
X102484767Y-116325278D01*
X102069162Y-116282002D01*
X101661906Y-116198372D01*
X101262367Y-116074109D01*
X100869915Y-115908937D01*
X100483919Y-115702578D01*
X100103750Y-115454757D01*
X99728776Y-115165195D01*
X99606100Y-115060461D01*
X99485320Y-114953181D01*
X99371175Y-114847791D01*
X99258080Y-114738656D01*
X99140449Y-114620140D01*
X99012696Y-114486606D01*
X98869237Y-114332419D01*
X98704486Y-114151942D01*
X98690960Y-114137017D01*
X98584411Y-114019489D01*
X98485110Y-113910126D01*
X98397199Y-113813476D01*
X98324820Y-113734086D01*
X98272115Y-113676504D01*
X98243226Y-113645280D01*
X98241715Y-113643687D01*
X98195146Y-113594858D01*
X97951174Y-113887104D01*
X97763987Y-114103414D01*
X97591202Y-114285663D01*
X97428387Y-114437705D01*
X97271109Y-114563390D01*
X97114935Y-114666571D01*
X96958388Y-114749706D01*
X96844390Y-114799136D01*
X96729300Y-114838744D01*
X96601845Y-114871588D01*
X96450752Y-114900727D01*
X96333268Y-114919316D01*
X95949165Y-114965836D01*
X95596526Y-114986061D01*
X95273312Y-114979575D01*
X94977489Y-114945966D01*
X94707019Y-114884818D01*
X94459865Y-114795720D01*
X94233991Y-114678255D01*
X94027360Y-114532011D01*
X93907597Y-114426301D01*
X93803716Y-114317689D01*
X93700133Y-114192829D01*
X93605008Y-114062824D01*
X93526502Y-113938772D01*
X93475744Y-113838913D01*
X93418795Y-113674669D01*
X93370379Y-113472402D01*
X93330950Y-113235645D01*
X93300963Y-112967930D01*
X93280872Y-112672790D01*
X93271133Y-112353757D01*
X93270265Y-112242600D01*
X93277975Y-111935162D01*
X93303782Y-111661711D01*
X93349434Y-111417184D01*
X93416677Y-111196520D01*
X93507258Y-110994656D01*
X93622924Y-110806531D01*
X93765422Y-110627083D01*
X93863991Y-110522012D01*
X93977456Y-110415264D01*
X94089722Y-110328171D01*
X94209460Y-110256218D01*
X94345342Y-110194888D01*
X94506038Y-110139668D01*
X94700219Y-110086040D01*
X94702058Y-110085573D01*
X94938850Y-110025472D01*
X95605600Y-110030604D01*
X95799198Y-110032388D01*
X95956258Y-110034667D01*
X96082576Y-110037761D01*
X96183947Y-110041993D01*
X96266166Y-110047686D01*
X96335029Y-110055163D01*
X96396330Y-110064745D01*
X96455866Y-110076755D01*
X96462850Y-110078304D01*
X96728439Y-110153098D01*
X96970236Y-110255131D01*
X97200629Y-110389660D01*
X97207916Y-110394537D01*
X97319362Y-110465900D01*
X97403529Y-110511457D01*
X97464837Y-110533457D01*
X97486459Y-110536282D01*
X97557568Y-110538683D01*
X98169084Y-109355233D01*
X98276235Y-109147633D01*
X98377413Y-108951152D01*
X98470971Y-108769015D01*
X98555265Y-108604448D01*
X98628650Y-108460675D01*
X98689479Y-108340922D01*
X98736109Y-108248412D01*
X98766892Y-108186372D01*
X98780185Y-108158025D01*
X98780600Y-108156662D01*
X98760909Y-108147802D01*
X98705335Y-108130371D01*
X98619125Y-108105819D01*
X98507527Y-108075596D01*
X98375787Y-108041152D01*
X98229152Y-108003935D01*
X98214392Y-108000247D01*
X97906574Y-107921275D01*
X97636901Y-107846925D01*
X97401671Y-107775405D01*
X97197184Y-107704921D01*
X97019739Y-107633678D01*
X96865637Y-107559885D01*
X96731177Y-107481746D01*
X96612658Y-107397469D01*
X96506380Y-107305259D01*
X96408643Y-107203324D01*
X96315746Y-107089870D01*
X96303860Y-107074218D01*
X96163898Y-106860087D01*
X96037245Y-106607893D01*
X95924448Y-106319934D01*
X95826058Y-105998511D01*
X95742622Y-105645924D01*
X95674690Y-105264473D01*
X95622809Y-104856459D01*
X95587530Y-104424182D01*
X95570004Y-103998183D01*
X95566515Y-103827093D01*
X95564871Y-103690513D01*
X95565387Y-103580646D01*
X95568379Y-103489696D01*
X95574161Y-103409867D01*
X95583050Y-103333363D01*
X95595359Y-103252387D01*
X95601672Y-103214895D01*
X95678832Y-102874134D01*
X95789424Y-102552297D01*
X95931812Y-102252810D01*
X96104359Y-101979098D01*
X96305425Y-101734587D01*
X96313190Y-101726358D01*
X96488651Y-101556930D01*
X96667664Y-101418051D01*
X96864353Y-101299279D01*
X96949683Y-101255772D01*
X97112166Y-101182866D01*
X97266180Y-101128882D01*
X97423674Y-101091078D01*
X97596597Y-101066713D01*
X97796895Y-101053046D01*
X97840608Y-101051378D01*
X98160033Y-101040467D01*
X98208184Y-100889492D01*
X98324341Y-100591196D01*
X98476484Y-100312589D01*
X98665122Y-100053125D01*
X98890764Y-99812256D01*
X99153918Y-99589436D01*
X99455094Y-99384118D01*
X99775302Y-99205584D01*
X99894343Y-99148036D01*
X100039225Y-99082331D01*
X100199138Y-99012986D01*
X100363272Y-98944518D01*
X100520817Y-98881443D01*
X100660964Y-98828280D01*
X100764365Y-98792290D01*
X100874881Y-98756436D01*
X100730236Y-98466893D01*
X100622206Y-98242826D01*
X100534467Y-98042171D01*
X100462687Y-97853903D01*
X100402533Y-97666999D01*
X100370050Y-97550283D01*
X100287010Y-97154050D01*
X100245582Y-96753949D01*
X100245959Y-96352906D01*
X100271986Y-96067059D01*
X100286207Y-95952219D01*
X100302619Y-95812275D01*
X100319270Y-95664250D01*
X100334211Y-95525172D01*
X100335344Y-95514263D01*
X100360664Y-95301953D01*
X100390562Y-95123474D01*
X100428030Y-94970350D01*
X100476058Y-94834109D01*
X100537638Y-94706277D01*
X100615761Y-94578381D01*
X100713418Y-94441947D01*
X100714254Y-94440841D01*
X100935794Y-94182514D01*
X101186839Y-93954089D01*
X101466144Y-93756371D01*
X101772461Y-93590168D01*
X102104546Y-93456288D01*
X102346851Y-93383493D01*
X102454463Y-93355714D01*
X102548194Y-93332734D01*
X102636305Y-93312979D01*
X102727055Y-93294877D01*
X102828704Y-93276854D01*
X102949512Y-93257337D01*
X103097738Y-93234751D01*
X103233209Y-93214655D01*
X103361194Y-93195516D01*
X103474005Y-93178128D01*
X103565275Y-93163515D01*
X103628635Y-93152701D01*
X103657720Y-93146709D01*
X103658860Y-93146186D01*
X103663317Y-93124448D01*
X103673398Y-93066026D01*
X103688265Y-92976072D01*
X103707080Y-92859739D01*
X103729006Y-92722180D01*
X103753203Y-92568547D01*
X103763185Y-92504683D01*
X103797767Y-92286836D01*
X103828195Y-92105531D01*
X103855808Y-91955336D01*
X103881946Y-91830818D01*
X103907950Y-91726545D01*
X103935159Y-91637085D01*
X103964913Y-91557004D01*
X103998552Y-91480870D01*
X104032578Y-91412543D01*
X104161453Y-91206206D01*
X104323706Y-91020738D01*
X104520275Y-90855514D01*
X104752096Y-90709907D01*
X105020107Y-90583294D01*
X105325245Y-90475046D01*
X105517223Y-90421045D01*
X105745504Y-90367674D01*
X105960026Y-90330199D01*
X106174412Y-90307173D01*
X106402282Y-90297146D01*
X106657258Y-90298667D01*
G36*
X94566194Y-103373244D02*
G01*
X94546193Y-103444946D01*
X94516870Y-103515448D01*
X94473760Y-103592541D01*
X94412400Y-103684016D01*
X94328324Y-103797662D01*
X94306946Y-103825618D01*
X94239371Y-103916534D01*
X94176865Y-104005858D01*
X94126792Y-104082755D01*
X94098366Y-104132535D01*
X94062936Y-104238693D01*
X94049745Y-104357454D01*
X94059738Y-104470810D01*
X94077581Y-104529514D01*
X94105311Y-104595178D01*
X94236331Y-104563119D01*
X94316537Y-104548932D01*
X94422849Y-104537599D01*
X94539059Y-104530628D01*
X94600603Y-104529205D01*
X94707519Y-104529329D01*
X94783547Y-104532864D01*
X94840098Y-104541547D01*
X94888584Y-104557113D01*
X94939270Y-104580716D01*
X95032191Y-104645020D01*
X95096537Y-104731670D01*
X95134593Y-104845256D01*
X95148645Y-104990370D01*
X95148786Y-105001472D01*
X95138700Y-105139456D01*
X95103644Y-105245390D01*
X95040220Y-105323647D01*
X94945032Y-105378598D01*
X94830246Y-105411571D01*
X94700726Y-105437990D01*
X95149432Y-106453753D01*
X95288972Y-106768788D01*
X95413835Y-107048737D01*
X95525846Y-107297496D01*
X95626833Y-107518962D01*
X95718624Y-107717033D01*
X95803045Y-107895605D01*
X95881923Y-108058574D01*
X95957086Y-108209839D01*
X96030360Y-108353295D01*
X96103573Y-108492839D01*
X96119328Y-108522419D01*
X96212080Y-108696807D01*
X96286729Y-108839049D01*
X96345601Y-108954072D01*
X96391024Y-109046808D01*
X96425324Y-109122185D01*
X96450829Y-109185134D01*
X96469865Y-109240583D01*
X96484761Y-109293463D01*
X96486435Y-109300085D01*
X96502679Y-109389526D01*
X96510653Y-109486973D01*
X96510691Y-109581982D01*
X96503128Y-109664110D01*
X96488299Y-109722916D01*
X96472145Y-109745729D01*
X96439254Y-109755985D01*
X96374285Y-109769006D01*
X96287268Y-109783220D01*
X96188236Y-109797051D01*
X96087221Y-109808927D01*
X96039517Y-109813603D01*
X95983028Y-109814615D01*
X95905000Y-109811144D01*
X95849017Y-109806503D01*
X95747941Y-109789526D01*
X95651371Y-109758245D01*
X95558075Y-109710700D01*
X95466823Y-109644931D01*
X95376385Y-109558977D01*
X95285531Y-109450878D01*
X95193029Y-109318673D01*
X95097649Y-109160402D01*
X94998160Y-108974105D01*
X94893333Y-108757821D01*
X94781937Y-108509589D01*
X94662740Y-108227450D01*
X94534514Y-107909442D01*
X94396026Y-107553606D01*
X94335656Y-107395433D01*
X94283414Y-107261945D01*
X94226760Y-107123983D01*
X94171013Y-106994075D01*
X94121494Y-106884750D01*
X94099411Y-106839073D01*
X93995810Y-106631963D01*
X93878064Y-106733240D01*
X93772335Y-106835695D01*
X93670371Y-106955009D01*
X93582906Y-107077544D01*
X93523371Y-107183767D01*
X93488393Y-107300084D01*
X93477131Y-107437492D01*
X93489465Y-107582098D01*
X93525275Y-107720007D01*
X93528057Y-107727474D01*
X93554869Y-107804450D01*
X93565481Y-107858000D01*
X93561782Y-107902971D01*
X93553903Y-107930730D01*
X93512149Y-107998773D01*
X93445286Y-108038983D01*
X93359566Y-108051965D01*
X93261244Y-108038321D01*
X93156572Y-107998653D01*
X93051804Y-107933564D01*
X92984478Y-107875848D01*
X92885621Y-107760547D01*
X92818053Y-107631725D01*
X92792038Y-107554183D01*
X92771346Y-107462837D01*
X92750953Y-107337800D01*
X92731711Y-107187710D01*
X92714474Y-107021206D01*
X92700095Y-106846927D01*
X92689427Y-106673512D01*
X92683323Y-106509598D01*
X92682304Y-106442933D01*
X92680815Y-106275096D01*
X92678184Y-106148388D01*
X92673019Y-106061603D01*
X92663928Y-106013539D01*
X92649517Y-106002991D01*
X92628394Y-106028755D01*
X92599166Y-106089626D01*
X92560441Y-106184401D01*
X92515817Y-106298982D01*
X92465087Y-106429256D01*
X92425554Y-106525319D01*
X92393013Y-106592392D01*
X92363259Y-106635695D01*
X92332087Y-106660450D01*
X92295292Y-106671877D01*
X92248669Y-106675198D01*
X92212590Y-106675477D01*
X92106637Y-106658265D01*
X92024301Y-106606063D01*
X91973079Y-106533824D01*
X91960612Y-106505234D01*
X91951040Y-106472192D01*
X91943998Y-106429031D01*
X91939123Y-106370082D01*
X91936050Y-106289675D01*
X91934414Y-106182142D01*
X91933851Y-106041815D01*
X91933896Y-105924350D01*
X91934291Y-105759953D01*
X91935298Y-105631748D01*
X91937393Y-105533596D01*
X91941052Y-105459355D01*
X91946755Y-105402886D01*
X91954976Y-105358047D01*
X91966193Y-105318699D01*
X91980883Y-105278700D01*
X91984822Y-105268718D01*
X92058390Y-105129428D01*
X92162830Y-105007530D01*
X92300888Y-104900826D01*
X92475309Y-104807119D01*
X92647872Y-104738270D01*
X92735245Y-104704910D01*
X92788553Y-104677223D01*
X92814892Y-104650986D01*
X92820458Y-104635619D01*
X92880806Y-104359543D01*
X92954265Y-104121545D01*
X93042747Y-103918874D01*
X93148166Y-103748782D01*
X93272433Y-103608521D01*
X93417461Y-103495341D01*
X93585164Y-103406495D01*
X93707852Y-103360289D01*
X93779271Y-103338430D01*
X93845569Y-103322500D01*
X93916494Y-103311271D01*
X94001793Y-103303514D01*
X94111213Y-103298002D01*
X94233348Y-103294084D01*
X94586180Y-103284293D01*
X94566194Y-103373244D01*
G37*
X94566194Y-103373244D02*
X94546193Y-103444946D01*
X94516870Y-103515448D01*
X94473760Y-103592541D01*
X94412400Y-103684016D01*
X94328324Y-103797662D01*
X94306946Y-103825618D01*
X94239371Y-103916534D01*
X94176865Y-104005858D01*
X94126792Y-104082755D01*
X94098366Y-104132535D01*
X94062936Y-104238693D01*
X94049745Y-104357454D01*
X94059738Y-104470810D01*
X94077581Y-104529514D01*
X94105311Y-104595178D01*
X94236331Y-104563119D01*
X94316537Y-104548932D01*
X94422849Y-104537599D01*
X94539059Y-104530628D01*
X94600603Y-104529205D01*
X94707519Y-104529329D01*
X94783547Y-104532864D01*
X94840098Y-104541547D01*
X94888584Y-104557113D01*
X94939270Y-104580716D01*
X95032191Y-104645020D01*
X95096537Y-104731670D01*
X95134593Y-104845256D01*
X95148645Y-104990370D01*
X95148786Y-105001472D01*
X95138700Y-105139456D01*
X95103644Y-105245390D01*
X95040220Y-105323647D01*
X94945032Y-105378598D01*
X94830246Y-105411571D01*
X94700726Y-105437990D01*
X95149432Y-106453753D01*
X95288972Y-106768788D01*
X95413835Y-107048737D01*
X95525846Y-107297496D01*
X95626833Y-107518962D01*
X95718624Y-107717033D01*
X95803045Y-107895605D01*
X95881923Y-108058574D01*
X95957086Y-108209839D01*
X96030360Y-108353295D01*
X96103573Y-108492839D01*
X96119328Y-108522419D01*
X96212080Y-108696807D01*
X96286729Y-108839049D01*
X96345601Y-108954072D01*
X96391024Y-109046808D01*
X96425324Y-109122185D01*
X96450829Y-109185134D01*
X96469865Y-109240583D01*
X96484761Y-109293463D01*
X96486435Y-109300085D01*
X96502679Y-109389526D01*
X96510653Y-109486973D01*
X96510691Y-109581982D01*
X96503128Y-109664110D01*
X96488299Y-109722916D01*
X96472145Y-109745729D01*
X96439254Y-109755985D01*
X96374285Y-109769006D01*
X96287268Y-109783220D01*
X96188236Y-109797051D01*
X96087221Y-109808927D01*
X96039517Y-109813603D01*
X95983028Y-109814615D01*
X95905000Y-109811144D01*
X95849017Y-109806503D01*
X95747941Y-109789526D01*
X95651371Y-109758245D01*
X95558075Y-109710700D01*
X95466823Y-109644931D01*
X95376385Y-109558977D01*
X95285531Y-109450878D01*
X95193029Y-109318673D01*
X95097649Y-109160402D01*
X94998160Y-108974105D01*
X94893333Y-108757821D01*
X94781937Y-108509589D01*
X94662740Y-108227450D01*
X94534514Y-107909442D01*
X94396026Y-107553606D01*
X94335656Y-107395433D01*
X94283414Y-107261945D01*
X94226760Y-107123983D01*
X94171013Y-106994075D01*
X94121494Y-106884750D01*
X94099411Y-106839073D01*
X93995810Y-106631963D01*
X93878064Y-106733240D01*
X93772335Y-106835695D01*
X93670371Y-106955009D01*
X93582906Y-107077544D01*
X93523371Y-107183767D01*
X93488393Y-107300084D01*
X93477131Y-107437492D01*
X93489465Y-107582098D01*
X93525275Y-107720007D01*
X93528057Y-107727474D01*
X93554869Y-107804450D01*
X93565481Y-107858000D01*
X93561782Y-107902971D01*
X93553903Y-107930730D01*
X93512149Y-107998773D01*
X93445286Y-108038983D01*
X93359566Y-108051965D01*
X93261244Y-108038321D01*
X93156572Y-107998653D01*
X93051804Y-107933564D01*
X92984478Y-107875848D01*
X92885621Y-107760547D01*
X92818053Y-107631725D01*
X92792038Y-107554183D01*
X92771346Y-107462837D01*
X92750953Y-107337800D01*
X92731711Y-107187710D01*
X92714474Y-107021206D01*
X92700095Y-106846927D01*
X92689427Y-106673512D01*
X92683323Y-106509598D01*
X92682304Y-106442933D01*
X92680815Y-106275096D01*
X92678184Y-106148388D01*
X92673019Y-106061603D01*
X92663928Y-106013539D01*
X92649517Y-106002991D01*
X92628394Y-106028755D01*
X92599166Y-106089626D01*
X92560441Y-106184401D01*
X92515817Y-106298982D01*
X92465087Y-106429256D01*
X92425554Y-106525319D01*
X92393013Y-106592392D01*
X92363259Y-106635695D01*
X92332087Y-106660450D01*
X92295292Y-106671877D01*
X92248669Y-106675198D01*
X92212590Y-106675477D01*
X92106637Y-106658265D01*
X92024301Y-106606063D01*
X91973079Y-106533824D01*
X91960612Y-106505234D01*
X91951040Y-106472192D01*
X91943998Y-106429031D01*
X91939123Y-106370082D01*
X91936050Y-106289675D01*
X91934414Y-106182142D01*
X91933851Y-106041815D01*
X91933896Y-105924350D01*
X91934291Y-105759953D01*
X91935298Y-105631748D01*
X91937393Y-105533596D01*
X91941052Y-105459355D01*
X91946755Y-105402886D01*
X91954976Y-105358047D01*
X91966193Y-105318699D01*
X91980883Y-105278700D01*
X91984822Y-105268718D01*
X92058390Y-105129428D01*
X92162830Y-105007530D01*
X92300888Y-104900826D01*
X92475309Y-104807119D01*
X92647872Y-104738270D01*
X92735245Y-104704910D01*
X92788553Y-104677223D01*
X92814892Y-104650986D01*
X92820458Y-104635619D01*
X92880806Y-104359543D01*
X92954265Y-104121545D01*
X93042747Y-103918874D01*
X93148166Y-103748782D01*
X93272433Y-103608521D01*
X93417461Y-103495341D01*
X93585164Y-103406495D01*
X93707852Y-103360289D01*
X93779271Y-103338430D01*
X93845569Y-103322500D01*
X93916494Y-103311271D01*
X94001793Y-103303514D01*
X94111213Y-103298002D01*
X94233348Y-103294084D01*
X94586180Y-103284293D01*
X94566194Y-103373244D01*
G36*
X129879578Y-97996852D02*
G01*
X130083293Y-98024040D01*
X130285572Y-98065972D01*
X130473747Y-98120454D01*
X130635152Y-98185292D01*
X130646754Y-98190972D01*
X130780625Y-98257598D01*
X131168904Y-98170653D01*
X131349419Y-98130532D01*
X131495684Y-98099033D01*
X131614667Y-98075124D01*
X131713336Y-98057773D01*
X131798658Y-98045947D01*
X131877601Y-98038615D01*
X131957133Y-98034744D01*
X132044222Y-98033301D01*
X132096933Y-98033169D01*
X132287713Y-98039113D01*
X132450547Y-98058464D01*
X132598383Y-98093699D01*
X132744174Y-98147296D01*
X132783102Y-98164436D01*
X132995756Y-98283618D01*
X133184545Y-98436062D01*
X133346926Y-98618456D01*
X133480356Y-98827493D01*
X133582294Y-99059862D01*
X133645093Y-99286606D01*
X133659498Y-99375081D01*
X133659430Y-99445113D01*
X133645329Y-99516469D01*
X133615867Y-99599193D01*
X133575259Y-99657335D01*
X133519584Y-99691220D01*
X133444924Y-99701171D01*
X133347358Y-99687509D01*
X133222968Y-99650560D01*
X133067834Y-99590645D01*
X133015138Y-99568422D01*
X132861542Y-99504373D01*
X132737327Y-99457306D01*
X132634055Y-99425176D01*
X132543290Y-99405941D01*
X132456594Y-99397557D01*
X132365531Y-99397980D01*
X132321589Y-99400452D01*
X132184233Y-99414592D01*
X132087581Y-99435596D01*
X132032000Y-99463343D01*
X132017855Y-99497712D01*
X132018509Y-99500684D01*
X132032553Y-99528126D01*
X132066850Y-99585457D01*
X132118073Y-99667410D01*
X132182898Y-99768715D01*
X132257997Y-99884105D01*
X132318431Y-99975767D01*
X132403396Y-100105600D01*
X132484293Y-100232292D01*
X132556841Y-100348899D01*
X132616755Y-100448477D01*
X132659754Y-100524082D01*
X132675547Y-100554827D01*
X132705436Y-100620905D01*
X132724819Y-100676019D01*
X132735951Y-100732769D01*
X132741089Y-100803758D01*
X132742487Y-100901588D01*
X132742517Y-100929017D01*
X132741415Y-101037182D01*
X132736845Y-101115096D01*
X132726914Y-101174812D01*
X132709726Y-101228382D01*
X132687460Y-101279232D01*
X132643574Y-101360276D01*
X132591357Y-101439557D01*
X132561658Y-101477189D01*
X132523051Y-101515953D01*
X132465839Y-101567201D01*
X132397521Y-101624947D01*
X132325597Y-101683208D01*
X132257565Y-101735999D01*
X132200925Y-101777338D01*
X132163176Y-101801239D01*
X132151833Y-101804206D01*
X132087631Y-101718529D01*
X132020935Y-101625445D01*
X131958459Y-101534741D01*
X131906915Y-101456202D01*
X131873017Y-101399615D01*
X131869012Y-101391927D01*
X131846121Y-101333050D01*
X131820863Y-101247820D01*
X131797656Y-101151672D01*
X131791156Y-101119947D01*
X131752005Y-100960090D01*
X131702285Y-100837006D01*
X131638573Y-100745739D01*
X131557442Y-100681336D01*
X131459316Y-100639981D01*
X131402474Y-100627021D01*
X131366434Y-100634175D01*
X131344378Y-100668012D01*
X131329490Y-100735103D01*
X131324386Y-100770007D01*
X131323095Y-100866511D01*
X131340533Y-100999946D01*
X131355761Y-101077936D01*
X131391392Y-101299676D01*
X131411341Y-101546699D01*
X131415183Y-101804801D01*
X131402494Y-102059777D01*
X131388966Y-102188433D01*
X131354190Y-102406826D01*
X131301611Y-102658163D01*
X131232659Y-102937677D01*
X131148761Y-103240599D01*
X131051348Y-103562161D01*
X130941846Y-103897594D01*
X130821685Y-104242130D01*
X130692293Y-104591000D01*
X130593158Y-104844850D01*
X130349271Y-105423682D01*
X130093369Y-105966430D01*
X129822362Y-106478393D01*
X129533161Y-106964869D01*
X129222676Y-107431157D01*
X128887817Y-107882554D01*
X128649961Y-108177290D01*
X128556466Y-108293023D01*
X128455758Y-108423529D01*
X128358820Y-108554233D01*
X128276639Y-108670561D01*
X128263099Y-108690582D01*
X128095597Y-108940600D01*
X127777991Y-108940600D01*
X127655878Y-108940360D01*
X127569412Y-108939007D01*
X127511908Y-108935596D01*
X127476682Y-108929177D01*
X127457047Y-108918805D01*
X127446319Y-108903531D01*
X127441901Y-108892975D01*
X127396626Y-108778551D01*
X127354242Y-108677336D01*
X127308968Y-108576412D01*
X127255025Y-108462861D01*
X127192743Y-108336077D01*
X127137497Y-108223462D01*
X127098739Y-108139747D01*
X127073577Y-108076201D01*
X127059112Y-108024089D01*
X127052451Y-107974679D01*
X127050698Y-107919238D01*
X127050680Y-107907598D01*
X127056867Y-107819517D01*
X127077435Y-107734418D01*
X127115646Y-107646333D01*
X127174763Y-107549297D01*
X127258047Y-107437343D01*
X127368761Y-107304504D01*
X127400143Y-107268433D01*
X127573122Y-107068070D01*
X127727555Y-106882291D01*
X127867187Y-106705359D01*
X127995766Y-106531537D01*
X128117038Y-106355087D01*
X128234750Y-106170270D01*
X128352648Y-105971351D01*
X128474480Y-105752590D01*
X128603992Y-105508251D01*
X128744931Y-105232596D01*
X128796178Y-105130600D01*
X128901524Y-104918825D01*
X128991360Y-104734697D01*
X129070083Y-104568502D01*
X129142091Y-104410525D01*
X129211781Y-104251052D01*
X129283550Y-104080369D01*
X129361795Y-103888761D01*
X129390195Y-103818267D01*
X129468210Y-103616834D01*
X129552891Y-103385464D01*
X129640505Y-103135258D01*
X129727315Y-102877313D01*
X129809586Y-102622730D01*
X129883584Y-102382607D01*
X129945574Y-102168043D01*
X129945788Y-102167267D01*
X129977409Y-102058819D01*
X130019512Y-101923102D01*
X130068076Y-101772617D01*
X130119078Y-101619866D01*
X130159714Y-101502216D01*
X130210204Y-101356430D01*
X130246666Y-101244327D01*
X130270224Y-101160063D01*
X130282004Y-101097794D01*
X130283129Y-101051674D01*
X130274724Y-101015860D01*
X130259014Y-100986174D01*
X130229096Y-100976566D01*
X130164895Y-100980560D01*
X130071754Y-100996864D01*
X129955017Y-101024184D01*
X129820026Y-101061227D01*
X129672125Y-101106701D01*
X129516656Y-101159313D01*
X129461398Y-101179190D01*
X129286262Y-101241206D01*
X129144545Y-101286531D01*
X129031248Y-101316252D01*
X128941372Y-101331455D01*
X128869917Y-101333228D01*
X128811884Y-101322657D01*
X128807694Y-101321318D01*
X128748015Y-101292441D01*
X128703100Y-101255180D01*
X128699749Y-101250770D01*
X128674130Y-101181249D01*
X128671110Y-101084852D01*
X128689113Y-100969457D01*
X128726566Y-100842940D01*
X128781892Y-100713178D01*
X128822181Y-100638456D01*
X128963293Y-100438919D01*
X129137218Y-100263446D01*
X129340118Y-100114922D01*
X129568152Y-99996233D01*
X129776099Y-99921764D01*
X129870033Y-99891054D01*
X129935927Y-99859330D01*
X129987572Y-99819089D01*
X130012673Y-99793085D01*
X130062508Y-99732217D01*
X130082043Y-99686659D01*
X130073114Y-99644160D01*
X130041898Y-99597948D01*
X129979931Y-99535793D01*
X129905077Y-99496250D01*
X129807806Y-99475835D01*
X129694517Y-99470932D01*
X129545107Y-99482440D01*
X129400579Y-99517731D01*
X129254262Y-99579705D01*
X129099484Y-99671265D01*
X128929575Y-99795312D01*
X128906350Y-99813718D01*
X128847974Y-99856183D01*
X128770371Y-99906946D01*
X128682113Y-99961072D01*
X128591768Y-100013626D01*
X128507908Y-100059672D01*
X128439101Y-100094274D01*
X128393919Y-100112497D01*
X128384779Y-100114100D01*
X128376933Y-100095039D01*
X128365073Y-100045225D01*
X128352606Y-99980074D01*
X128332105Y-99743670D01*
X128349412Y-99498231D01*
X128402541Y-99249164D01*
X128489507Y-99001872D01*
X128608323Y-98761762D01*
X128757002Y-98534239D01*
X128933559Y-98324706D01*
X128977215Y-98280305D01*
X129109808Y-98162681D01*
X129237743Y-98079492D01*
X129371040Y-98025469D01*
X129518511Y-97995492D01*
X129687094Y-97986605D01*
X129879578Y-97996852D01*
G37*
X129879578Y-97996852D02*
X130083293Y-98024040D01*
X130285572Y-98065972D01*
X130473747Y-98120454D01*
X130635152Y-98185292D01*
X130646754Y-98190972D01*
X130780625Y-98257598D01*
X131168904Y-98170653D01*
X131349419Y-98130532D01*
X131495684Y-98099033D01*
X131614667Y-98075124D01*
X131713336Y-98057773D01*
X131798658Y-98045947D01*
X131877601Y-98038615D01*
X131957133Y-98034744D01*
X132044222Y-98033301D01*
X132096933Y-98033169D01*
X132287713Y-98039113D01*
X132450547Y-98058464D01*
X132598383Y-98093699D01*
X132744174Y-98147296D01*
X132783102Y-98164436D01*
X132995756Y-98283618D01*
X133184545Y-98436062D01*
X133346926Y-98618456D01*
X133480356Y-98827493D01*
X133582294Y-99059862D01*
X133645093Y-99286606D01*
X133659498Y-99375081D01*
X133659430Y-99445113D01*
X133645329Y-99516469D01*
X133615867Y-99599193D01*
X133575259Y-99657335D01*
X133519584Y-99691220D01*
X133444924Y-99701171D01*
X133347358Y-99687509D01*
X133222968Y-99650560D01*
X133067834Y-99590645D01*
X133015138Y-99568422D01*
X132861542Y-99504373D01*
X132737327Y-99457306D01*
X132634055Y-99425176D01*
X132543290Y-99405941D01*
X132456594Y-99397557D01*
X132365531Y-99397980D01*
X132321589Y-99400452D01*
X132184233Y-99414592D01*
X132087581Y-99435596D01*
X132032000Y-99463343D01*
X132017855Y-99497712D01*
X132018509Y-99500684D01*
X132032553Y-99528126D01*
X132066850Y-99585457D01*
X132118073Y-99667410D01*
X132182898Y-99768715D01*
X132257997Y-99884105D01*
X132318431Y-99975767D01*
X132403396Y-100105600D01*
X132484293Y-100232292D01*
X132556841Y-100348899D01*
X132616755Y-100448477D01*
X132659754Y-100524082D01*
X132675547Y-100554827D01*
X132705436Y-100620905D01*
X132724819Y-100676019D01*
X132735951Y-100732769D01*
X132741089Y-100803758D01*
X132742487Y-100901588D01*
X132742517Y-100929017D01*
X132741415Y-101037182D01*
X132736845Y-101115096D01*
X132726914Y-101174812D01*
X132709726Y-101228382D01*
X132687460Y-101279232D01*
X132643574Y-101360276D01*
X132591357Y-101439557D01*
X132561658Y-101477189D01*
X132523051Y-101515953D01*
X132465839Y-101567201D01*
X132397521Y-101624947D01*
X132325597Y-101683208D01*
X132257565Y-101735999D01*
X132200925Y-101777338D01*
X132163176Y-101801239D01*
X132151833Y-101804206D01*
X132087631Y-101718529D01*
X132020935Y-101625445D01*
X131958459Y-101534741D01*
X131906915Y-101456202D01*
X131873017Y-101399615D01*
X131869012Y-101391927D01*
X131846121Y-101333050D01*
X131820863Y-101247820D01*
X131797656Y-101151672D01*
X131791156Y-101119947D01*
X131752005Y-100960090D01*
X131702285Y-100837006D01*
X131638573Y-100745739D01*
X131557442Y-100681336D01*
X131459316Y-100639981D01*
X131402474Y-100627021D01*
X131366434Y-100634175D01*
X131344378Y-100668012D01*
X131329490Y-100735103D01*
X131324386Y-100770007D01*
X131323095Y-100866511D01*
X131340533Y-100999946D01*
X131355761Y-101077936D01*
X131391392Y-101299676D01*
X131411341Y-101546699D01*
X131415183Y-101804801D01*
X131402494Y-102059777D01*
X131388966Y-102188433D01*
X131354190Y-102406826D01*
X131301611Y-102658163D01*
X131232659Y-102937677D01*
X131148761Y-103240599D01*
X131051348Y-103562161D01*
X130941846Y-103897594D01*
X130821685Y-104242130D01*
X130692293Y-104591000D01*
X130593158Y-104844850D01*
X130349271Y-105423682D01*
X130093369Y-105966430D01*
X129822362Y-106478393D01*
X129533161Y-106964869D01*
X129222676Y-107431157D01*
X128887817Y-107882554D01*
X128649961Y-108177290D01*
X128556466Y-108293023D01*
X128455758Y-108423529D01*
X128358820Y-108554233D01*
X128276639Y-108670561D01*
X128263099Y-108690582D01*
X128095597Y-108940600D01*
X127777991Y-108940600D01*
X127655878Y-108940360D01*
X127569412Y-108939007D01*
X127511908Y-108935596D01*
X127476682Y-108929177D01*
X127457047Y-108918805D01*
X127446319Y-108903531D01*
X127441901Y-108892975D01*
X127396626Y-108778551D01*
X127354242Y-108677336D01*
X127308968Y-108576412D01*
X127255025Y-108462861D01*
X127192743Y-108336077D01*
X127137497Y-108223462D01*
X127098739Y-108139747D01*
X127073577Y-108076201D01*
X127059112Y-108024089D01*
X127052451Y-107974679D01*
X127050698Y-107919238D01*
X127050680Y-107907598D01*
X127056867Y-107819517D01*
X127077435Y-107734418D01*
X127115646Y-107646333D01*
X127174763Y-107549297D01*
X127258047Y-107437343D01*
X127368761Y-107304504D01*
X127400143Y-107268433D01*
X127573122Y-107068070D01*
X127727555Y-106882291D01*
X127867187Y-106705359D01*
X127995766Y-106531537D01*
X128117038Y-106355087D01*
X128234750Y-106170270D01*
X128352648Y-105971351D01*
X128474480Y-105752590D01*
X128603992Y-105508251D01*
X128744931Y-105232596D01*
X128796178Y-105130600D01*
X128901524Y-104918825D01*
X128991360Y-104734697D01*
X129070083Y-104568502D01*
X129142091Y-104410525D01*
X129211781Y-104251052D01*
X129283550Y-104080369D01*
X129361795Y-103888761D01*
X129390195Y-103818267D01*
X129468210Y-103616834D01*
X129552891Y-103385464D01*
X129640505Y-103135258D01*
X129727315Y-102877313D01*
X129809586Y-102622730D01*
X129883584Y-102382607D01*
X129945574Y-102168043D01*
X129945788Y-102167267D01*
X129977409Y-102058819D01*
X130019512Y-101923102D01*
X130068076Y-101772617D01*
X130119078Y-101619866D01*
X130159714Y-101502216D01*
X130210204Y-101356430D01*
X130246666Y-101244327D01*
X130270224Y-101160063D01*
X130282004Y-101097794D01*
X130283129Y-101051674D01*
X130274724Y-101015860D01*
X130259014Y-100986174D01*
X130229096Y-100976566D01*
X130164895Y-100980560D01*
X130071754Y-100996864D01*
X129955017Y-101024184D01*
X129820026Y-101061227D01*
X129672125Y-101106701D01*
X129516656Y-101159313D01*
X129461398Y-101179190D01*
X129286262Y-101241206D01*
X129144545Y-101286531D01*
X129031248Y-101316252D01*
X128941372Y-101331455D01*
X128869917Y-101333228D01*
X128811884Y-101322657D01*
X128807694Y-101321318D01*
X128748015Y-101292441D01*
X128703100Y-101255180D01*
X128699749Y-101250770D01*
X128674130Y-101181249D01*
X128671110Y-101084852D01*
X128689113Y-100969457D01*
X128726566Y-100842940D01*
X128781892Y-100713178D01*
X128822181Y-100638456D01*
X128963293Y-100438919D01*
X129137218Y-100263446D01*
X129340118Y-100114922D01*
X129568152Y-99996233D01*
X129776099Y-99921764D01*
X129870033Y-99891054D01*
X129935927Y-99859330D01*
X129987572Y-99819089D01*
X130012673Y-99793085D01*
X130062508Y-99732217D01*
X130082043Y-99686659D01*
X130073114Y-99644160D01*
X130041898Y-99597948D01*
X129979931Y-99535793D01*
X129905077Y-99496250D01*
X129807806Y-99475835D01*
X129694517Y-99470932D01*
X129545107Y-99482440D01*
X129400579Y-99517731D01*
X129254262Y-99579705D01*
X129099484Y-99671265D01*
X128929575Y-99795312D01*
X128906350Y-99813718D01*
X128847974Y-99856183D01*
X128770371Y-99906946D01*
X128682113Y-99961072D01*
X128591768Y-100013626D01*
X128507908Y-100059672D01*
X128439101Y-100094274D01*
X128393919Y-100112497D01*
X128384779Y-100114100D01*
X128376933Y-100095039D01*
X128365073Y-100045225D01*
X128352606Y-99980074D01*
X128332105Y-99743670D01*
X128349412Y-99498231D01*
X128402541Y-99249164D01*
X128489507Y-99001872D01*
X128608323Y-98761762D01*
X128757002Y-98534239D01*
X128933559Y-98324706D01*
X128977215Y-98280305D01*
X129109808Y-98162681D01*
X129237743Y-98079492D01*
X129371040Y-98025469D01*
X129518511Y-97995492D01*
X129687094Y-97986605D01*
X129879578Y-97996852D01*
G36*
X98327927Y-93318863D02*
G01*
X98566015Y-93349389D01*
X98765381Y-93392570D01*
X98927930Y-93449169D01*
X99055570Y-93519950D01*
X99150206Y-93605675D01*
X99192139Y-93664941D01*
X99214420Y-93712685D01*
X99241828Y-93785629D01*
X99271778Y-93874945D01*
X99301687Y-93971808D01*
X99328971Y-94067389D01*
X99351045Y-94152862D01*
X99365328Y-94219401D01*
X99369233Y-94258176D01*
X99367438Y-94263817D01*
X99344262Y-94262444D01*
X99287329Y-94251501D01*
X99203724Y-94232565D01*
X99100528Y-94207211D01*
X99024017Y-94187433D01*
X98911620Y-94158691D01*
X98814020Y-94135369D01*
X98738313Y-94119033D01*
X98691597Y-94111248D01*
X98680054Y-94111590D01*
X98682310Y-94134484D01*
X98695409Y-94191537D01*
X98717690Y-94276465D01*
X98747491Y-94382983D01*
X98783152Y-94504806D01*
X98790172Y-94528229D01*
X98858161Y-94756504D01*
X98913211Y-94946329D01*
X98955779Y-95099412D01*
X98986320Y-95217459D01*
X99005291Y-95302178D01*
X99013150Y-95355278D01*
X99013433Y-95363242D01*
X99005068Y-95405871D01*
X98983679Y-95466347D01*
X98954827Y-95532704D01*
X98924070Y-95592972D01*
X98896968Y-95635184D01*
X98881181Y-95647933D01*
X98828444Y-95632027D01*
X98751587Y-95585770D01*
X98653565Y-95511354D01*
X98537332Y-95410972D01*
X98442912Y-95322778D01*
X98328532Y-95214379D01*
X98227103Y-95121129D01*
X98142012Y-95045938D01*
X98076645Y-94991715D01*
X98034389Y-94961368D01*
X98018632Y-94957805D01*
X98018600Y-94958334D01*
X98022983Y-94981713D01*
X98035269Y-95040412D01*
X98054166Y-95128433D01*
X98078379Y-95239775D01*
X98106616Y-95368438D01*
X98122782Y-95441655D01*
X98163541Y-95628312D01*
X98198533Y-95795656D01*
X98228372Y-95949240D01*
X98253668Y-96094616D01*
X98275033Y-96237336D01*
X98293080Y-96382953D01*
X98308419Y-96537018D01*
X98321663Y-96705084D01*
X98333424Y-96892703D01*
X98344312Y-97105428D01*
X98354941Y-97348810D01*
X98365921Y-97628402D01*
X98367069Y-97658767D01*
X98375090Y-97865556D01*
X98383597Y-98074415D01*
X98392267Y-98278101D01*
X98400775Y-98469374D01*
X98408800Y-98640991D01*
X98416018Y-98785711D01*
X98422106Y-98896291D01*
X98422787Y-98907600D01*
X98436148Y-99129385D01*
X98446526Y-99313718D01*
X98453640Y-99465393D01*
X98457210Y-99589205D01*
X98456954Y-99689950D01*
X98452591Y-99772421D01*
X98443840Y-99841413D01*
X98430421Y-99901722D01*
X98412052Y-99958141D01*
X98388453Y-100015466D01*
X98359343Y-100078492D01*
X98353451Y-100090906D01*
X98280980Y-100213591D01*
X98184928Y-100333468D01*
X98074894Y-100441059D01*
X97960478Y-100526884D01*
X97859850Y-100578374D01*
X97769713Y-100606909D01*
X97674148Y-100629340D01*
X97620529Y-100637659D01*
X97508209Y-100649436D01*
X97520816Y-100387060D01*
X97526048Y-100278380D01*
X97532713Y-100140213D01*
X97540193Y-99985355D01*
X97547870Y-99826602D01*
X97553934Y-99701350D01*
X97574783Y-99202243D01*
X97586973Y-98742828D01*
X97590482Y-98321351D01*
X97585289Y-97936061D01*
X97571371Y-97585205D01*
X97548707Y-97267032D01*
X97520372Y-97003702D01*
X97457352Y-96598476D01*
X97372898Y-96196320D01*
X97269573Y-95807068D01*
X97149938Y-95440556D01*
X97040549Y-95161742D01*
X97000118Y-95067134D01*
X96865692Y-95272432D01*
X96807258Y-95365671D01*
X96754272Y-95457402D01*
X96713466Y-95535571D01*
X96694662Y-95578707D01*
X96623973Y-95759076D01*
X96555195Y-95901064D01*
X96484917Y-96008292D01*
X96409731Y-96084375D01*
X96326229Y-96132933D01*
X96231002Y-96157584D01*
X96144653Y-96162529D01*
X95996508Y-96144821D01*
X95875669Y-96094809D01*
X95782266Y-96012590D01*
X95716432Y-95898267D01*
X95690925Y-95817267D01*
X95679383Y-95754076D01*
X95667460Y-95663489D01*
X95656984Y-95560383D01*
X95652650Y-95505830D01*
X95637350Y-95289643D01*
X95356696Y-95415871D01*
X95255811Y-95460702D01*
X95168395Y-95498521D01*
X95101806Y-95526223D01*
X95063404Y-95540705D01*
X95057561Y-95542100D01*
X95042709Y-95523007D01*
X95020819Y-95471699D01*
X94994710Y-95397128D01*
X94967201Y-95308250D01*
X94941112Y-95214017D01*
X94919260Y-95123384D01*
X94908062Y-95067254D01*
X94889225Y-94892727D01*
X94890319Y-94710964D01*
X94910968Y-94542133D01*
X94918525Y-94506903D01*
X94986353Y-94311236D01*
X95094946Y-94126109D01*
X95243990Y-93951849D01*
X95433168Y-93788785D01*
X95662162Y-93637243D01*
X95863274Y-93529664D01*
X96039517Y-93443354D01*
X96261767Y-93452760D01*
X96394718Y-93462680D01*
X96530847Y-93482465D01*
X96684014Y-93514415D01*
X96790385Y-93540515D01*
X96930184Y-93574128D01*
X97042534Y-93596676D01*
X97122897Y-93607349D01*
X97161251Y-93606765D01*
X97212468Y-93586723D01*
X97278134Y-93547419D01*
X97327878Y-93510271D01*
X97447304Y-93434870D01*
X97599941Y-93375949D01*
X97779519Y-93334706D01*
X97979767Y-93312342D01*
X98194417Y-93310057D01*
X98327927Y-93318863D01*
G37*
X98327927Y-93318863D02*
X98566015Y-93349389D01*
X98765381Y-93392570D01*
X98927930Y-93449169D01*
X99055570Y-93519950D01*
X99150206Y-93605675D01*
X99192139Y-93664941D01*
X99214420Y-93712685D01*
X99241828Y-93785629D01*
X99271778Y-93874945D01*
X99301687Y-93971808D01*
X99328971Y-94067389D01*
X99351045Y-94152862D01*
X99365328Y-94219401D01*
X99369233Y-94258176D01*
X99367438Y-94263817D01*
X99344262Y-94262444D01*
X99287329Y-94251501D01*
X99203724Y-94232565D01*
X99100528Y-94207211D01*
X99024017Y-94187433D01*
X98911620Y-94158691D01*
X98814020Y-94135369D01*
X98738313Y-94119033D01*
X98691597Y-94111248D01*
X98680054Y-94111590D01*
X98682310Y-94134484D01*
X98695409Y-94191537D01*
X98717690Y-94276465D01*
X98747491Y-94382983D01*
X98783152Y-94504806D01*
X98790172Y-94528229D01*
X98858161Y-94756504D01*
X98913211Y-94946329D01*
X98955779Y-95099412D01*
X98986320Y-95217459D01*
X99005291Y-95302178D01*
X99013150Y-95355278D01*
X99013433Y-95363242D01*
X99005068Y-95405871D01*
X98983679Y-95466347D01*
X98954827Y-95532704D01*
X98924070Y-95592972D01*
X98896968Y-95635184D01*
X98881181Y-95647933D01*
X98828444Y-95632027D01*
X98751587Y-95585770D01*
X98653565Y-95511354D01*
X98537332Y-95410972D01*
X98442912Y-95322778D01*
X98328532Y-95214379D01*
X98227103Y-95121129D01*
X98142012Y-95045938D01*
X98076645Y-94991715D01*
X98034389Y-94961368D01*
X98018632Y-94957805D01*
X98018600Y-94958334D01*
X98022983Y-94981713D01*
X98035269Y-95040412D01*
X98054166Y-95128433D01*
X98078379Y-95239775D01*
X98106616Y-95368438D01*
X98122782Y-95441655D01*
X98163541Y-95628312D01*
X98198533Y-95795656D01*
X98228372Y-95949240D01*
X98253668Y-96094616D01*
X98275033Y-96237336D01*
X98293080Y-96382953D01*
X98308419Y-96537018D01*
X98321663Y-96705084D01*
X98333424Y-96892703D01*
X98344312Y-97105428D01*
X98354941Y-97348810D01*
X98365921Y-97628402D01*
X98367069Y-97658767D01*
X98375090Y-97865556D01*
X98383597Y-98074415D01*
X98392267Y-98278101D01*
X98400775Y-98469374D01*
X98408800Y-98640991D01*
X98416018Y-98785711D01*
X98422106Y-98896291D01*
X98422787Y-98907600D01*
X98436148Y-99129385D01*
X98446526Y-99313718D01*
X98453640Y-99465393D01*
X98457210Y-99589205D01*
X98456954Y-99689950D01*
X98452591Y-99772421D01*
X98443840Y-99841413D01*
X98430421Y-99901722D01*
X98412052Y-99958141D01*
X98388453Y-100015466D01*
X98359343Y-100078492D01*
X98353451Y-100090906D01*
X98280980Y-100213591D01*
X98184928Y-100333468D01*
X98074894Y-100441059D01*
X97960478Y-100526884D01*
X97859850Y-100578374D01*
X97769713Y-100606909D01*
X97674148Y-100629340D01*
X97620529Y-100637659D01*
X97508209Y-100649436D01*
X97520816Y-100387060D01*
X97526048Y-100278380D01*
X97532713Y-100140213D01*
X97540193Y-99985355D01*
X97547870Y-99826602D01*
X97553934Y-99701350D01*
X97574783Y-99202243D01*
X97586973Y-98742828D01*
X97590482Y-98321351D01*
X97585289Y-97936061D01*
X97571371Y-97585205D01*
X97548707Y-97267032D01*
X97520372Y-97003702D01*
X97457352Y-96598476D01*
X97372898Y-96196320D01*
X97269573Y-95807068D01*
X97149938Y-95440556D01*
X97040549Y-95161742D01*
X97000118Y-95067134D01*
X96865692Y-95272432D01*
X96807258Y-95365671D01*
X96754272Y-95457402D01*
X96713466Y-95535571D01*
X96694662Y-95578707D01*
X96623973Y-95759076D01*
X96555195Y-95901064D01*
X96484917Y-96008292D01*
X96409731Y-96084375D01*
X96326229Y-96132933D01*
X96231002Y-96157584D01*
X96144653Y-96162529D01*
X95996508Y-96144821D01*
X95875669Y-96094809D01*
X95782266Y-96012590D01*
X95716432Y-95898267D01*
X95690925Y-95817267D01*
X95679383Y-95754076D01*
X95667460Y-95663489D01*
X95656984Y-95560383D01*
X95652650Y-95505830D01*
X95637350Y-95289643D01*
X95356696Y-95415871D01*
X95255811Y-95460702D01*
X95168395Y-95498521D01*
X95101806Y-95526223D01*
X95063404Y-95540705D01*
X95057561Y-95542100D01*
X95042709Y-95523007D01*
X95020819Y-95471699D01*
X94994710Y-95397128D01*
X94967201Y-95308250D01*
X94941112Y-95214017D01*
X94919260Y-95123384D01*
X94908062Y-95067254D01*
X94889225Y-94892727D01*
X94890319Y-94710964D01*
X94910968Y-94542133D01*
X94918525Y-94506903D01*
X94986353Y-94311236D01*
X95094946Y-94126109D01*
X95243990Y-93951849D01*
X95433168Y-93788785D01*
X95662162Y-93637243D01*
X95863274Y-93529664D01*
X96039517Y-93443354D01*
X96261767Y-93452760D01*
X96394718Y-93462680D01*
X96530847Y-93482465D01*
X96684014Y-93514415D01*
X96790385Y-93540515D01*
X96930184Y-93574128D01*
X97042534Y-93596676D01*
X97122897Y-93607349D01*
X97161251Y-93606765D01*
X97212468Y-93586723D01*
X97278134Y-93547419D01*
X97327878Y-93510271D01*
X97447304Y-93434870D01*
X97599941Y-93375949D01*
X97779519Y-93334706D01*
X97979767Y-93312342D01*
X98194417Y-93310057D01*
X98327927Y-93318863D01*
G36*
X130162792Y-87701244D02*
G01*
X130300977Y-87703069D01*
X130413972Y-87706833D01*
X130510344Y-87713070D01*
X130598661Y-87722315D01*
X130687490Y-87735102D01*
X130772191Y-87749585D01*
X131001174Y-87795820D01*
X131193427Y-87846516D01*
X131354491Y-87903765D01*
X131489901Y-87969659D01*
X131605198Y-88046289D01*
X131646024Y-88079637D01*
X131723963Y-88166154D01*
X131795661Y-88280246D01*
X131853640Y-88407177D01*
X131890425Y-88532208D01*
X131897125Y-88574666D01*
X131910869Y-88696146D01*
X132093860Y-88655174D01*
X132177102Y-88638878D01*
X132264632Y-88627235D01*
X132365646Y-88619578D01*
X132489340Y-88615239D01*
X132644909Y-88613551D01*
X132668433Y-88613491D01*
X132812161Y-88613729D01*
X132922809Y-88615594D01*
X133009620Y-88619922D01*
X133081841Y-88627549D01*
X133148715Y-88639311D01*
X133219488Y-88656044D01*
X133261343Y-88667106D01*
X133553181Y-88767164D01*
X133827291Y-88905192D01*
X134084211Y-89081547D01*
X134324477Y-89296586D01*
X134496600Y-89486500D01*
X134705622Y-89768093D01*
X134874052Y-90061268D01*
X135001696Y-90364962D01*
X135088361Y-90678110D01*
X135133856Y-90999649D01*
X135137987Y-91328513D01*
X135100562Y-91663640D01*
X135021388Y-92003964D01*
X134977569Y-92142535D01*
X134898052Y-92327746D01*
X134797966Y-92476059D01*
X134677129Y-92587674D01*
X134535358Y-92662793D01*
X134494972Y-92676393D01*
X134398334Y-92695432D01*
X134319495Y-92685950D01*
X134253887Y-92644708D01*
X134196940Y-92568469D01*
X134144085Y-92453993D01*
X134130686Y-92418223D01*
X134050078Y-92219044D01*
X133945698Y-92002515D01*
X133815456Y-91764604D01*
X133657262Y-91501279D01*
X133646487Y-91484025D01*
X133585602Y-91394734D01*
X133523786Y-91325347D01*
X133450026Y-91266358D01*
X133353310Y-91208263D01*
X133286504Y-91173330D01*
X133176433Y-91117553D01*
X133176433Y-91780213D01*
X133176016Y-91987396D01*
X133174300Y-92157692D01*
X133170592Y-92296545D01*
X133164197Y-92409396D01*
X133154421Y-92501689D01*
X133140568Y-92578867D01*
X133121945Y-92646371D01*
X133097857Y-92709645D01*
X133067609Y-92774132D01*
X133043692Y-92820459D01*
X132981995Y-92916102D01*
X132894760Y-93023563D01*
X132792335Y-93132210D01*
X132685070Y-93231408D01*
X132583314Y-93310522D01*
X132540131Y-93337861D01*
X132418240Y-93390152D01*
X132306989Y-93401675D01*
X132207111Y-93372821D01*
X132119340Y-93303981D01*
X132044409Y-93195546D01*
X131983051Y-93047906D01*
X131980427Y-93039735D01*
X131962258Y-92979081D01*
X131935247Y-92884357D01*
X131901290Y-92762438D01*
X131862285Y-92620203D01*
X131820129Y-92464528D01*
X131776720Y-92302291D01*
X131770183Y-92277687D01*
X131727627Y-92119129D01*
X131686650Y-91969808D01*
X131648989Y-91835796D01*
X131616380Y-91723168D01*
X131590560Y-91637995D01*
X131573264Y-91586353D01*
X131570723Y-91579971D01*
X131532619Y-91490252D01*
X131109082Y-92198551D01*
X131009034Y-92366286D01*
X130910718Y-92531900D01*
X130817478Y-92689703D01*
X130732661Y-92834003D01*
X130659611Y-92959108D01*
X130601674Y-93059328D01*
X130562195Y-93128972D01*
X130562124Y-93129100D01*
X130492825Y-93252030D01*
X130425970Y-93365857D01*
X130358965Y-93473777D01*
X130289213Y-93578989D01*
X130214121Y-93684689D01*
X130131092Y-93794074D01*
X130037531Y-93910342D01*
X129930844Y-94036689D01*
X129808436Y-94176314D01*
X129667711Y-94332412D01*
X129506074Y-94508182D01*
X129320930Y-94706820D01*
X129109684Y-94931523D01*
X129034119Y-95011605D01*
X128879940Y-95176380D01*
X128751234Y-95317647D01*
X128643065Y-95441349D01*
X128550501Y-95553433D01*
X128468608Y-95659843D01*
X128392450Y-95766524D01*
X128328789Y-95861479D01*
X128279333Y-95942418D01*
X128217250Y-96052267D01*
X128146038Y-96184056D01*
X128069191Y-96330815D01*
X127990206Y-96485574D01*
X127912578Y-96641362D01*
X127839803Y-96791208D01*
X127775377Y-96928142D01*
X127722795Y-97045194D01*
X127685553Y-97135394D01*
X127674449Y-97166210D01*
X127655532Y-97234415D01*
X127633008Y-97333278D01*
X127609216Y-97451541D01*
X127586495Y-97577950D01*
X127577658Y-97631877D01*
X127557634Y-97755383D01*
X127537806Y-97872852D01*
X127519969Y-97973981D01*
X127505919Y-98048463D01*
X127501092Y-98071517D01*
X127466856Y-98182924D01*
X127418659Y-98284104D01*
X127362761Y-98363865D01*
X127313715Y-98406551D01*
X127218022Y-98442048D01*
X127101474Y-98452644D01*
X126978221Y-98437242D01*
X126964017Y-98433691D01*
X126811249Y-98386872D01*
X126657778Y-98328290D01*
X126513853Y-98262670D01*
X126389725Y-98194739D01*
X126295642Y-98129221D01*
X126286218Y-98121185D01*
X126213511Y-98042183D01*
X126159995Y-97947649D01*
X126125567Y-97834412D01*
X126110122Y-97699304D01*
X126113556Y-97539154D01*
X126135767Y-97350793D01*
X126176651Y-97131051D01*
X126236103Y-96876758D01*
X126244460Y-96843850D01*
X126378496Y-96383273D01*
X126539898Y-95946523D01*
X126732412Y-95525241D01*
X126959781Y-95111067D01*
X127168661Y-94780168D01*
X127284304Y-94611110D01*
X127402448Y-94447986D01*
X127527328Y-94285709D01*
X127663183Y-94119197D01*
X127814250Y-93943364D01*
X127984765Y-93753128D01*
X128178967Y-93543404D01*
X128350649Y-93361933D01*
X128634414Y-93060113D01*
X128888812Y-92780352D01*
X129117404Y-92518102D01*
X129323750Y-92268818D01*
X129511412Y-92027952D01*
X129683950Y-91790959D01*
X129844926Y-91553292D01*
X129997901Y-91310404D01*
X130121993Y-91100461D01*
X130179625Y-90999168D01*
X130218974Y-90925334D01*
X130243364Y-90870016D01*
X130256118Y-90824268D01*
X130260562Y-90779148D01*
X130260120Y-90728873D01*
X130256724Y-90660744D01*
X130251848Y-90611968D01*
X130247683Y-90595460D01*
X130227986Y-90603283D01*
X130181343Y-90631127D01*
X130115209Y-90674341D01*
X130053646Y-90716592D01*
X129847442Y-90859298D01*
X129665516Y-90981536D01*
X129498899Y-91089042D01*
X129338620Y-91187550D01*
X129175708Y-91282797D01*
X129108394Y-91320931D01*
X129002251Y-91380196D01*
X128908545Y-91431785D01*
X128833636Y-91472255D01*
X128783888Y-91498161D01*
X128766239Y-91506140D01*
X128750310Y-91489058D01*
X128729276Y-91438211D01*
X128705066Y-91361579D01*
X128679607Y-91267144D01*
X128654829Y-91162885D01*
X128632660Y-91056784D01*
X128615028Y-90956819D01*
X128603861Y-90870972D01*
X128600902Y-90821933D01*
X128619038Y-90598359D01*
X128677167Y-90376614D01*
X128773135Y-90162491D01*
X128904788Y-89961787D01*
X128934327Y-89924837D01*
X129040470Y-89807917D01*
X129160670Y-89699794D01*
X129303638Y-89593386D01*
X129478085Y-89481606D01*
X129482850Y-89478727D01*
X129575475Y-89420213D01*
X129665901Y-89358632D01*
X129740431Y-89303496D01*
X129768600Y-89280316D01*
X129863850Y-89196879D01*
X129677370Y-89181297D01*
X129556277Y-89172624D01*
X129461656Y-89171687D01*
X129382761Y-89181535D01*
X129308845Y-89205220D01*
X129229160Y-89245792D01*
X129132960Y-89306300D01*
X129057098Y-89357349D01*
X128952364Y-89430231D01*
X128826566Y-89520349D01*
X128691937Y-89618795D01*
X128560706Y-89716657D01*
X128488017Y-89771903D01*
X128354357Y-89873572D01*
X128216054Y-89977301D01*
X128077319Y-90080069D01*
X127942365Y-90178854D01*
X127815404Y-90270634D01*
X127700650Y-90352389D01*
X127602314Y-90421096D01*
X127524609Y-90473734D01*
X127471747Y-90507281D01*
X127447941Y-90518716D01*
X127447225Y-90518447D01*
X127441188Y-90494405D01*
X127432721Y-90437054D01*
X127422995Y-90355263D01*
X127414157Y-90268306D01*
X127403439Y-89937624D01*
X127432144Y-89594659D01*
X127499968Y-89241745D01*
X127588878Y-88933484D01*
X127657063Y-88738521D01*
X127721275Y-88579856D01*
X127784959Y-88452109D01*
X127851564Y-88349901D01*
X127924534Y-88267852D01*
X128007319Y-88200582D01*
X128091439Y-88149111D01*
X128157830Y-88117852D01*
X128257068Y-88077409D01*
X128381360Y-88030438D01*
X128522909Y-87979596D01*
X128673921Y-87927540D01*
X128826599Y-87876927D01*
X128973149Y-87830414D01*
X129105775Y-87790657D01*
X129216683Y-87760314D01*
X129268303Y-87748006D01*
X129343115Y-87732656D01*
X129413794Y-87721005D01*
X129487952Y-87712556D01*
X129573203Y-87706812D01*
X129677157Y-87703275D01*
X129807428Y-87701449D01*
X129971627Y-87700836D01*
X129990850Y-87700822D01*
X130162792Y-87701244D01*
G37*
X130162792Y-87701244D02*
X130300977Y-87703069D01*
X130413972Y-87706833D01*
X130510344Y-87713070D01*
X130598661Y-87722315D01*
X130687490Y-87735102D01*
X130772191Y-87749585D01*
X131001174Y-87795820D01*
X131193427Y-87846516D01*
X131354491Y-87903765D01*
X131489901Y-87969659D01*
X131605198Y-88046289D01*
X131646024Y-88079637D01*
X131723963Y-88166154D01*
X131795661Y-88280246D01*
X131853640Y-88407177D01*
X131890425Y-88532208D01*
X131897125Y-88574666D01*
X131910869Y-88696146D01*
X132093860Y-88655174D01*
X132177102Y-88638878D01*
X132264632Y-88627235D01*
X132365646Y-88619578D01*
X132489340Y-88615239D01*
X132644909Y-88613551D01*
X132668433Y-88613491D01*
X132812161Y-88613729D01*
X132922809Y-88615594D01*
X133009620Y-88619922D01*
X133081841Y-88627549D01*
X133148715Y-88639311D01*
X133219488Y-88656044D01*
X133261343Y-88667106D01*
X133553181Y-88767164D01*
X133827291Y-88905192D01*
X134084211Y-89081547D01*
X134324477Y-89296586D01*
X134496600Y-89486500D01*
X134705622Y-89768093D01*
X134874052Y-90061268D01*
X135001696Y-90364962D01*
X135088361Y-90678110D01*
X135133856Y-90999649D01*
X135137987Y-91328513D01*
X135100562Y-91663640D01*
X135021388Y-92003964D01*
X134977569Y-92142535D01*
X134898052Y-92327746D01*
X134797966Y-92476059D01*
X134677129Y-92587674D01*
X134535358Y-92662793D01*
X134494972Y-92676393D01*
X134398334Y-92695432D01*
X134319495Y-92685950D01*
X134253887Y-92644708D01*
X134196940Y-92568469D01*
X134144085Y-92453993D01*
X134130686Y-92418223D01*
X134050078Y-92219044D01*
X133945698Y-92002515D01*
X133815456Y-91764604D01*
X133657262Y-91501279D01*
X133646487Y-91484025D01*
X133585602Y-91394734D01*
X133523786Y-91325347D01*
X133450026Y-91266358D01*
X133353310Y-91208263D01*
X133286504Y-91173330D01*
X133176433Y-91117553D01*
X133176433Y-91780213D01*
X133176016Y-91987396D01*
X133174300Y-92157692D01*
X133170592Y-92296545D01*
X133164197Y-92409396D01*
X133154421Y-92501689D01*
X133140568Y-92578867D01*
X133121945Y-92646371D01*
X133097857Y-92709645D01*
X133067609Y-92774132D01*
X133043692Y-92820459D01*
X132981995Y-92916102D01*
X132894760Y-93023563D01*
X132792335Y-93132210D01*
X132685070Y-93231408D01*
X132583314Y-93310522D01*
X132540131Y-93337861D01*
X132418240Y-93390152D01*
X132306989Y-93401675D01*
X132207111Y-93372821D01*
X132119340Y-93303981D01*
X132044409Y-93195546D01*
X131983051Y-93047906D01*
X131980427Y-93039735D01*
X131962258Y-92979081D01*
X131935247Y-92884357D01*
X131901290Y-92762438D01*
X131862285Y-92620203D01*
X131820129Y-92464528D01*
X131776720Y-92302291D01*
X131770183Y-92277687D01*
X131727627Y-92119129D01*
X131686650Y-91969808D01*
X131648989Y-91835796D01*
X131616380Y-91723168D01*
X131590560Y-91637995D01*
X131573264Y-91586353D01*
X131570723Y-91579971D01*
X131532619Y-91490252D01*
X131109082Y-92198551D01*
X131009034Y-92366286D01*
X130910718Y-92531900D01*
X130817478Y-92689703D01*
X130732661Y-92834003D01*
X130659611Y-92959108D01*
X130601674Y-93059328D01*
X130562195Y-93128972D01*
X130562124Y-93129100D01*
X130492825Y-93252030D01*
X130425970Y-93365857D01*
X130358965Y-93473777D01*
X130289213Y-93578989D01*
X130214121Y-93684689D01*
X130131092Y-93794074D01*
X130037531Y-93910342D01*
X129930844Y-94036689D01*
X129808436Y-94176314D01*
X129667711Y-94332412D01*
X129506074Y-94508182D01*
X129320930Y-94706820D01*
X129109684Y-94931523D01*
X129034119Y-95011605D01*
X128879940Y-95176380D01*
X128751234Y-95317647D01*
X128643065Y-95441349D01*
X128550501Y-95553433D01*
X128468608Y-95659843D01*
X128392450Y-95766524D01*
X128328789Y-95861479D01*
X128279333Y-95942418D01*
X128217250Y-96052267D01*
X128146038Y-96184056D01*
X128069191Y-96330815D01*
X127990206Y-96485574D01*
X127912578Y-96641362D01*
X127839803Y-96791208D01*
X127775377Y-96928142D01*
X127722795Y-97045194D01*
X127685553Y-97135394D01*
X127674449Y-97166210D01*
X127655532Y-97234415D01*
X127633008Y-97333278D01*
X127609216Y-97451541D01*
X127586495Y-97577950D01*
X127577658Y-97631877D01*
X127557634Y-97755383D01*
X127537806Y-97872852D01*
X127519969Y-97973981D01*
X127505919Y-98048463D01*
X127501092Y-98071517D01*
X127466856Y-98182924D01*
X127418659Y-98284104D01*
X127362761Y-98363865D01*
X127313715Y-98406551D01*
X127218022Y-98442048D01*
X127101474Y-98452644D01*
X126978221Y-98437242D01*
X126964017Y-98433691D01*
X126811249Y-98386872D01*
X126657778Y-98328290D01*
X126513853Y-98262670D01*
X126389725Y-98194739D01*
X126295642Y-98129221D01*
X126286218Y-98121185D01*
X126213511Y-98042183D01*
X126159995Y-97947649D01*
X126125567Y-97834412D01*
X126110122Y-97699304D01*
X126113556Y-97539154D01*
X126135767Y-97350793D01*
X126176651Y-97131051D01*
X126236103Y-96876758D01*
X126244460Y-96843850D01*
X126378496Y-96383273D01*
X126539898Y-95946523D01*
X126732412Y-95525241D01*
X126959781Y-95111067D01*
X127168661Y-94780168D01*
X127284304Y-94611110D01*
X127402448Y-94447986D01*
X127527328Y-94285709D01*
X127663183Y-94119197D01*
X127814250Y-93943364D01*
X127984765Y-93753128D01*
X128178967Y-93543404D01*
X128350649Y-93361933D01*
X128634414Y-93060113D01*
X128888812Y-92780352D01*
X129117404Y-92518102D01*
X129323750Y-92268818D01*
X129511412Y-92027952D01*
X129683950Y-91790959D01*
X129844926Y-91553292D01*
X129997901Y-91310404D01*
X130121993Y-91100461D01*
X130179625Y-90999168D01*
X130218974Y-90925334D01*
X130243364Y-90870016D01*
X130256118Y-90824268D01*
X130260562Y-90779148D01*
X130260120Y-90728873D01*
X130256724Y-90660744D01*
X130251848Y-90611968D01*
X130247683Y-90595460D01*
X130227986Y-90603283D01*
X130181343Y-90631127D01*
X130115209Y-90674341D01*
X130053646Y-90716592D01*
X129847442Y-90859298D01*
X129665516Y-90981536D01*
X129498899Y-91089042D01*
X129338620Y-91187550D01*
X129175708Y-91282797D01*
X129108394Y-91320931D01*
X129002251Y-91380196D01*
X128908545Y-91431785D01*
X128833636Y-91472255D01*
X128783888Y-91498161D01*
X128766239Y-91506140D01*
X128750310Y-91489058D01*
X128729276Y-91438211D01*
X128705066Y-91361579D01*
X128679607Y-91267144D01*
X128654829Y-91162885D01*
X128632660Y-91056784D01*
X128615028Y-90956819D01*
X128603861Y-90870972D01*
X128600902Y-90821933D01*
X128619038Y-90598359D01*
X128677167Y-90376614D01*
X128773135Y-90162491D01*
X128904788Y-89961787D01*
X128934327Y-89924837D01*
X129040470Y-89807917D01*
X129160670Y-89699794D01*
X129303638Y-89593386D01*
X129478085Y-89481606D01*
X129482850Y-89478727D01*
X129575475Y-89420213D01*
X129665901Y-89358632D01*
X129740431Y-89303496D01*
X129768600Y-89280316D01*
X129863850Y-89196879D01*
X129677370Y-89181297D01*
X129556277Y-89172624D01*
X129461656Y-89171687D01*
X129382761Y-89181535D01*
X129308845Y-89205220D01*
X129229160Y-89245792D01*
X129132960Y-89306300D01*
X129057098Y-89357349D01*
X128952364Y-89430231D01*
X128826566Y-89520349D01*
X128691937Y-89618795D01*
X128560706Y-89716657D01*
X128488017Y-89771903D01*
X128354357Y-89873572D01*
X128216054Y-89977301D01*
X128077319Y-90080069D01*
X127942365Y-90178854D01*
X127815404Y-90270634D01*
X127700650Y-90352389D01*
X127602314Y-90421096D01*
X127524609Y-90473734D01*
X127471747Y-90507281D01*
X127447941Y-90518716D01*
X127447225Y-90518447D01*
X127441188Y-90494405D01*
X127432721Y-90437054D01*
X127422995Y-90355263D01*
X127414157Y-90268306D01*
X127403439Y-89937624D01*
X127432144Y-89594659D01*
X127499968Y-89241745D01*
X127588878Y-88933484D01*
X127657063Y-88738521D01*
X127721275Y-88579856D01*
X127784959Y-88452109D01*
X127851564Y-88349901D01*
X127924534Y-88267852D01*
X128007319Y-88200582D01*
X128091439Y-88149111D01*
X128157830Y-88117852D01*
X128257068Y-88077409D01*
X128381360Y-88030438D01*
X128522909Y-87979596D01*
X128673921Y-87927540D01*
X128826599Y-87876927D01*
X128973149Y-87830414D01*
X129105775Y-87790657D01*
X129216683Y-87760314D01*
X129268303Y-87748006D01*
X129343115Y-87732656D01*
X129413794Y-87721005D01*
X129487952Y-87712556D01*
X129573203Y-87706812D01*
X129677157Y-87703275D01*
X129807428Y-87701449D01*
X129971627Y-87700836D01*
X129990850Y-87700822D01*
X130162792Y-87701244D01*
G36*
X125314440Y-90049206D02*
G01*
X125551969Y-90090973D01*
X125770412Y-90168920D01*
X125967711Y-90282321D01*
X126136829Y-90425387D01*
X126210618Y-90505923D01*
X126279899Y-90591979D01*
X126333797Y-90669647D01*
X126350271Y-90698418D01*
X126412088Y-90818319D01*
X126656302Y-90831910D01*
X126884693Y-90846065D01*
X127075099Y-90861700D01*
X127231871Y-90880114D01*
X127359357Y-90902606D01*
X127461906Y-90930478D01*
X127543867Y-90965028D01*
X127609590Y-91007556D01*
X127663422Y-91059362D01*
X127709714Y-91121746D01*
X127728506Y-91152355D01*
X127797186Y-91286687D01*
X127847530Y-91427650D01*
X127881561Y-91584170D01*
X127901304Y-91765171D01*
X127908369Y-91945195D01*
X127909320Y-92046317D01*
X127906838Y-92117320D01*
X127898573Y-92170407D01*
X127882175Y-92217779D01*
X127855291Y-92271638D01*
X127840111Y-92299486D01*
X127802345Y-92364099D01*
X127770682Y-92410878D01*
X127751631Y-92430264D01*
X127750997Y-92430349D01*
X127711586Y-92416227D01*
X127650207Y-92377032D01*
X127573765Y-92318651D01*
X127489162Y-92246972D01*
X127403300Y-92167884D01*
X127323083Y-92087275D01*
X127255413Y-92011032D01*
X127246563Y-92000074D01*
X127165100Y-91897632D01*
X127164681Y-92497491D01*
X127163827Y-92661164D01*
X127161631Y-92818473D01*
X127158299Y-92962252D01*
X127154035Y-93085331D01*
X127149044Y-93180543D01*
X127143531Y-93240721D01*
X127143427Y-93241443D01*
X127108312Y-93395799D01*
X127050940Y-93515940D01*
X126968571Y-93604143D01*
X126858464Y-93662683D01*
X126717878Y-93693837D01*
X126590574Y-93700600D01*
X126447065Y-93700600D01*
X126426180Y-93621225D01*
X126413898Y-93573530D01*
X126393680Y-93493894D01*
X126367835Y-93391454D01*
X126338670Y-93275344D01*
X126321549Y-93206965D01*
X126293029Y-93094242D01*
X126267769Y-92996880D01*
X126247633Y-92921875D01*
X126234487Y-92876223D01*
X126230493Y-92865515D01*
X126206727Y-92863729D01*
X126159801Y-92868633D01*
X126159597Y-92868664D01*
X126096011Y-92878377D01*
X125784398Y-93929780D01*
X125711779Y-94175125D01*
X125650240Y-94384262D01*
X125598724Y-94561539D01*
X125556175Y-94711304D01*
X125521538Y-94837906D01*
X125493755Y-94945692D01*
X125471772Y-95039011D01*
X125454532Y-95122212D01*
X125440978Y-95199642D01*
X125430055Y-95275649D01*
X125420707Y-95354583D01*
X125411877Y-95440790D01*
X125408224Y-95478600D01*
X125392932Y-95617206D01*
X125373578Y-95748442D01*
X125348378Y-95879450D01*
X125315551Y-96017374D01*
X125273316Y-96169357D01*
X125219890Y-96342540D01*
X125153492Y-96544068D01*
X125111996Y-96666085D01*
X125046321Y-96856645D01*
X124991613Y-97011512D01*
X124945465Y-97135159D01*
X124905468Y-97232057D01*
X124869214Y-97306678D01*
X124834293Y-97363493D01*
X124798298Y-97406975D01*
X124758820Y-97441595D01*
X124713450Y-97471825D01*
X124662495Y-97500661D01*
X124593377Y-97533938D01*
X124526981Y-97553494D01*
X124446114Y-97563354D01*
X124381945Y-97566340D01*
X124288188Y-97566591D01*
X124199119Y-97562326D01*
X124132591Y-97554447D01*
X124127683Y-97553457D01*
X124070076Y-97544346D01*
X123983951Y-97534615D01*
X123883076Y-97525703D01*
X123820767Y-97521322D01*
X123726367Y-97514855D01*
X123646907Y-97508413D01*
X123592426Y-97502868D01*
X123574280Y-97499914D01*
X123571739Y-97477568D01*
X123586058Y-97418855D01*
X123616583Y-97325947D01*
X123662658Y-97201017D01*
X123671220Y-97178742D01*
X123943661Y-96428737D01*
X124193189Y-95650621D01*
X124417462Y-94853284D01*
X124614135Y-94045616D01*
X124780867Y-93236505D01*
X124906980Y-92490676D01*
X124956927Y-92159168D01*
X124789157Y-92093266D01*
X124505063Y-92357183D01*
X124413754Y-92441104D01*
X124332570Y-92514013D01*
X124266741Y-92571349D01*
X124221498Y-92608554D01*
X124202325Y-92621100D01*
X124173087Y-92603625D01*
X124130270Y-92556514D01*
X124079730Y-92487742D01*
X124027325Y-92405281D01*
X123978911Y-92317104D01*
X123978673Y-92316631D01*
X123938790Y-92231213D01*
X123916557Y-92162141D01*
X123907160Y-92089880D01*
X123905640Y-92020298D01*
X123915715Y-91897094D01*
X123947601Y-91782722D01*
X124004322Y-91673273D01*
X124088901Y-91564839D01*
X124204359Y-91453511D01*
X124353722Y-91335380D01*
X124529850Y-91213244D01*
X124663467Y-91123254D01*
X124767032Y-91048883D01*
X124847005Y-90984325D01*
X124909845Y-90923775D01*
X124962012Y-90861425D01*
X125009965Y-90791471D01*
X125023816Y-90769242D01*
X125059963Y-90704492D01*
X125071503Y-90666212D01*
X125061911Y-90648718D01*
X125029652Y-90639067D01*
X124967046Y-90626401D01*
X124885746Y-90612988D01*
X124856636Y-90608761D01*
X124767362Y-90597204D01*
X124704211Y-90593684D01*
X124651483Y-90599694D01*
X124593479Y-90616723D01*
X124531889Y-90639603D01*
X124460693Y-90665816D01*
X124406928Y-90683698D01*
X124380794Y-90689895D01*
X124379883Y-90689605D01*
X124376278Y-90667428D01*
X124370971Y-90611731D01*
X124364713Y-90531257D01*
X124359051Y-90447416D01*
X124344098Y-90211106D01*
X124424972Y-90177315D01*
X124562970Y-90129789D01*
X124726856Y-90089453D01*
X124900354Y-90059713D01*
X125059882Y-90044349D01*
X125314440Y-90049206D01*
G37*
X125314440Y-90049206D02*
X125551969Y-90090973D01*
X125770412Y-90168920D01*
X125967711Y-90282321D01*
X126136829Y-90425387D01*
X126210618Y-90505923D01*
X126279899Y-90591979D01*
X126333797Y-90669647D01*
X126350271Y-90698418D01*
X126412088Y-90818319D01*
X126656302Y-90831910D01*
X126884693Y-90846065D01*
X127075099Y-90861700D01*
X127231871Y-90880114D01*
X127359357Y-90902606D01*
X127461906Y-90930478D01*
X127543867Y-90965028D01*
X127609590Y-91007556D01*
X127663422Y-91059362D01*
X127709714Y-91121746D01*
X127728506Y-91152355D01*
X127797186Y-91286687D01*
X127847530Y-91427650D01*
X127881561Y-91584170D01*
X127901304Y-91765171D01*
X127908369Y-91945195D01*
X127909320Y-92046317D01*
X127906838Y-92117320D01*
X127898573Y-92170407D01*
X127882175Y-92217779D01*
X127855291Y-92271638D01*
X127840111Y-92299486D01*
X127802345Y-92364099D01*
X127770682Y-92410878D01*
X127751631Y-92430264D01*
X127750997Y-92430349D01*
X127711586Y-92416227D01*
X127650207Y-92377032D01*
X127573765Y-92318651D01*
X127489162Y-92246972D01*
X127403300Y-92167884D01*
X127323083Y-92087275D01*
X127255413Y-92011032D01*
X127246563Y-92000074D01*
X127165100Y-91897632D01*
X127164681Y-92497491D01*
X127163827Y-92661164D01*
X127161631Y-92818473D01*
X127158299Y-92962252D01*
X127154035Y-93085331D01*
X127149044Y-93180543D01*
X127143531Y-93240721D01*
X127143427Y-93241443D01*
X127108312Y-93395799D01*
X127050940Y-93515940D01*
X126968571Y-93604143D01*
X126858464Y-93662683D01*
X126717878Y-93693837D01*
X126590574Y-93700600D01*
X126447065Y-93700600D01*
X126426180Y-93621225D01*
X126413898Y-93573530D01*
X126393680Y-93493894D01*
X126367835Y-93391454D01*
X126338670Y-93275344D01*
X126321549Y-93206965D01*
X126293029Y-93094242D01*
X126267769Y-92996880D01*
X126247633Y-92921875D01*
X126234487Y-92876223D01*
X126230493Y-92865515D01*
X126206727Y-92863729D01*
X126159801Y-92868633D01*
X126159597Y-92868664D01*
X126096011Y-92878377D01*
X125784398Y-93929780D01*
X125711779Y-94175125D01*
X125650240Y-94384262D01*
X125598724Y-94561539D01*
X125556175Y-94711304D01*
X125521538Y-94837906D01*
X125493755Y-94945692D01*
X125471772Y-95039011D01*
X125454532Y-95122212D01*
X125440978Y-95199642D01*
X125430055Y-95275649D01*
X125420707Y-95354583D01*
X125411877Y-95440790D01*
X125408224Y-95478600D01*
X125392932Y-95617206D01*
X125373578Y-95748442D01*
X125348378Y-95879450D01*
X125315551Y-96017374D01*
X125273316Y-96169357D01*
X125219890Y-96342540D01*
X125153492Y-96544068D01*
X125111996Y-96666085D01*
X125046321Y-96856645D01*
X124991613Y-97011512D01*
X124945465Y-97135159D01*
X124905468Y-97232057D01*
X124869214Y-97306678D01*
X124834293Y-97363493D01*
X124798298Y-97406975D01*
X124758820Y-97441595D01*
X124713450Y-97471825D01*
X124662495Y-97500661D01*
X124593377Y-97533938D01*
X124526981Y-97553494D01*
X124446114Y-97563354D01*
X124381945Y-97566340D01*
X124288188Y-97566591D01*
X124199119Y-97562326D01*
X124132591Y-97554447D01*
X124127683Y-97553457D01*
X124070076Y-97544346D01*
X123983951Y-97534615D01*
X123883076Y-97525703D01*
X123820767Y-97521322D01*
X123726367Y-97514855D01*
X123646907Y-97508413D01*
X123592426Y-97502868D01*
X123574280Y-97499914D01*
X123571739Y-97477568D01*
X123586058Y-97418855D01*
X123616583Y-97325947D01*
X123662658Y-97201017D01*
X123671220Y-97178742D01*
X123943661Y-96428737D01*
X124193189Y-95650621D01*
X124417462Y-94853284D01*
X124614135Y-94045616D01*
X124780867Y-93236505D01*
X124906980Y-92490676D01*
X124956927Y-92159168D01*
X124789157Y-92093266D01*
X124505063Y-92357183D01*
X124413754Y-92441104D01*
X124332570Y-92514013D01*
X124266741Y-92571349D01*
X124221498Y-92608554D01*
X124202325Y-92621100D01*
X124173087Y-92603625D01*
X124130270Y-92556514D01*
X124079730Y-92487742D01*
X124027325Y-92405281D01*
X123978911Y-92317104D01*
X123978673Y-92316631D01*
X123938790Y-92231213D01*
X123916557Y-92162141D01*
X123907160Y-92089880D01*
X123905640Y-92020298D01*
X123915715Y-91897094D01*
X123947601Y-91782722D01*
X124004322Y-91673273D01*
X124088901Y-91564839D01*
X124204359Y-91453511D01*
X124353722Y-91335380D01*
X124529850Y-91213244D01*
X124663467Y-91123254D01*
X124767032Y-91048883D01*
X124847005Y-90984325D01*
X124909845Y-90923775D01*
X124962012Y-90861425D01*
X125009965Y-90791471D01*
X125023816Y-90769242D01*
X125059963Y-90704492D01*
X125071503Y-90666212D01*
X125061911Y-90648718D01*
X125029652Y-90639067D01*
X124967046Y-90626401D01*
X124885746Y-90612988D01*
X124856636Y-90608761D01*
X124767362Y-90597204D01*
X124704211Y-90593684D01*
X124651483Y-90599694D01*
X124593479Y-90616723D01*
X124531889Y-90639603D01*
X124460693Y-90665816D01*
X124406928Y-90683698D01*
X124380794Y-90689895D01*
X124379883Y-90689605D01*
X124376278Y-90667428D01*
X124370971Y-90611731D01*
X124364713Y-90531257D01*
X124359051Y-90447416D01*
X124344098Y-90211106D01*
X124424972Y-90177315D01*
X124562970Y-90129789D01*
X124726856Y-90089453D01*
X124900354Y-90059713D01*
X125059882Y-90044349D01*
X125314440Y-90049206D01*
G36*
X100263153Y-87222786D02*
G01*
X100285084Y-87225586D01*
X100370469Y-87244124D01*
X100485165Y-87276215D01*
X100619654Y-87318553D01*
X100764418Y-87367828D01*
X100909939Y-87420732D01*
X101046697Y-87473956D01*
X101165175Y-87524191D01*
X101225350Y-87552422D01*
X101424449Y-87662771D01*
X101596959Y-87785159D01*
X101744282Y-87922626D01*
X101867820Y-88078210D01*
X101968976Y-88254952D01*
X102049152Y-88455892D01*
X102109750Y-88684069D01*
X102152172Y-88942523D01*
X102177820Y-89234293D01*
X102188096Y-89562421D01*
X102188433Y-89640276D01*
X102187312Y-89779428D01*
X102184093Y-89890244D01*
X102178990Y-89968796D01*
X102172218Y-90011154D01*
X102167803Y-90017600D01*
X102139091Y-90005056D01*
X102079401Y-89968669D01*
X101991391Y-89910308D01*
X101877714Y-89831839D01*
X101741025Y-89735131D01*
X101583981Y-89622051D01*
X101409235Y-89494467D01*
X101219443Y-89354247D01*
X101127611Y-89285863D01*
X100986256Y-89181003D01*
X100847628Y-89079378D01*
X100717526Y-88985150D01*
X100601746Y-88902479D01*
X100506089Y-88835527D01*
X100436353Y-88788454D01*
X100418923Y-88777309D01*
X100338636Y-88728301D01*
X100278976Y-88697415D01*
X100224892Y-88679982D01*
X100161336Y-88671335D01*
X100073259Y-88666805D01*
X100061168Y-88666348D01*
X99958578Y-88662119D01*
X99880428Y-88660132D01*
X99827449Y-88663555D01*
X99800378Y-88675561D01*
X99799947Y-88699317D01*
X99826891Y-88737995D01*
X99881945Y-88794764D01*
X99965842Y-88872794D01*
X100079316Y-88975255D01*
X100146807Y-89036126D01*
X100335305Y-89207624D01*
X100494110Y-89355755D01*
X100625754Y-89484606D01*
X100732769Y-89598265D01*
X100817685Y-89700817D01*
X100883036Y-89796350D01*
X100931351Y-89888951D01*
X100965164Y-89982706D01*
X100987005Y-90081703D01*
X100999406Y-90190028D01*
X101004899Y-90311768D01*
X101006022Y-90423199D01*
X101002660Y-90600685D01*
X100991509Y-90741228D01*
X100971645Y-90849660D01*
X100942142Y-90930810D01*
X100902078Y-90989508D01*
X100896574Y-90995215D01*
X100849927Y-91033299D01*
X100800947Y-91052601D01*
X100745425Y-91051352D01*
X100679150Y-91027783D01*
X100597914Y-90980124D01*
X100497505Y-90906608D01*
X100373714Y-90805463D01*
X100304600Y-90746449D01*
X100200904Y-90659265D01*
X100093681Y-90572943D01*
X99993150Y-90495463D01*
X99909532Y-90434806D01*
X99881267Y-90415849D01*
X99804486Y-90370205D01*
X99715493Y-90323343D01*
X99622573Y-90278871D01*
X99534010Y-90240396D01*
X99458092Y-90211526D01*
X99403104Y-90195868D01*
X99377707Y-90196604D01*
X99377814Y-90224000D01*
X99396257Y-90282493D01*
X99430284Y-90366472D01*
X99477145Y-90470326D01*
X99534089Y-90588445D01*
X99598364Y-90715216D01*
X99667220Y-90845030D01*
X99737907Y-90972274D01*
X99807673Y-91091339D01*
X99849536Y-91159025D01*
X99955101Y-91320318D01*
X100067449Y-91481115D01*
X100190008Y-91645649D01*
X100326208Y-91818151D01*
X100479477Y-92002856D01*
X100653244Y-92203994D01*
X100850938Y-92425797D01*
X101073797Y-92670118D01*
X101178518Y-92784463D01*
X101273205Y-92888952D01*
X101354226Y-92979488D01*
X101417947Y-93051973D01*
X101460735Y-93102308D01*
X101478956Y-93126396D01*
X101479350Y-93127568D01*
X101464714Y-93145760D01*
X101423687Y-93188898D01*
X101360588Y-93252794D01*
X101279734Y-93333256D01*
X101185446Y-93426094D01*
X101082042Y-93527118D01*
X100973842Y-93632138D01*
X100865163Y-93736964D01*
X100760326Y-93837406D01*
X100663648Y-93929272D01*
X100579450Y-94008374D01*
X100512050Y-94070521D01*
X100465766Y-94111522D01*
X100461320Y-94115251D01*
X100367305Y-94176464D01*
X100274852Y-94199299D01*
X100186336Y-94189395D01*
X100131268Y-94172547D01*
X100093611Y-94156102D01*
X100077073Y-94135684D01*
X100039616Y-94083288D01*
X99983524Y-94002344D01*
X99911084Y-93896282D01*
X99824578Y-93768532D01*
X99726293Y-93622523D01*
X99618513Y-93461685D01*
X99503522Y-93289448D01*
X99383607Y-93109242D01*
X99261050Y-92924497D01*
X99138138Y-92738642D01*
X99017156Y-92555108D01*
X98900387Y-92377323D01*
X98790117Y-92208718D01*
X98688630Y-92052723D01*
X98598212Y-91912767D01*
X98572513Y-91872746D01*
X98451022Y-91678184D01*
X98352590Y-91508845D01*
X98273179Y-91357431D01*
X98208749Y-91216641D01*
X98206494Y-91211288D01*
X98157282Y-91097737D01*
X98119436Y-91019576D01*
X98090367Y-90972224D01*
X98067490Y-90951102D01*
X98058276Y-90948933D01*
X98025440Y-90966829D01*
X98001135Y-91022880D01*
X97999690Y-91028308D01*
X97987409Y-91075776D01*
X97966865Y-91155202D01*
X97940392Y-91257560D01*
X97910324Y-91373824D01*
X97891568Y-91446350D01*
X97820087Y-91720249D01*
X97755480Y-91962646D01*
X97698195Y-92171961D01*
X97648682Y-92346616D01*
X97607390Y-92485031D01*
X97574767Y-92585628D01*
X97551264Y-92646828D01*
X97548463Y-92652691D01*
X97487699Y-92750108D01*
X97415831Y-92827526D01*
X97341537Y-92876509D01*
X97306837Y-92887582D01*
X97221364Y-92891627D01*
X97133884Y-92869710D01*
X97039492Y-92819211D01*
X96933285Y-92737513D01*
X96811450Y-92623091D01*
X96682829Y-92485426D01*
X96585490Y-92359282D01*
X96513720Y-92235604D01*
X96461804Y-92105337D01*
X96442343Y-92038137D01*
X96432310Y-91990488D01*
X96424445Y-91930100D01*
X96418530Y-91851910D01*
X96414342Y-91750857D01*
X96411662Y-91621878D01*
X96410269Y-91459912D01*
X96409933Y-91293736D01*
X96409933Y-90673767D01*
X96349814Y-90673767D01*
X96279898Y-90687313D01*
X96192315Y-90723262D01*
X96099821Y-90774582D01*
X96015173Y-90834238D01*
X95953691Y-90892171D01*
X95875823Y-90996581D01*
X95791854Y-91133461D01*
X95706247Y-91294290D01*
X95623462Y-91470544D01*
X95547960Y-91653699D01*
X95529933Y-91701782D01*
X95469172Y-91859985D01*
X95414906Y-91981606D01*
X95363311Y-92071122D01*
X95310561Y-92133006D01*
X95252830Y-92171735D01*
X95186293Y-92191783D01*
X95107125Y-92197625D01*
X95106067Y-92197627D01*
X95023137Y-92190706D01*
X94956039Y-92164439D01*
X94914240Y-92137005D01*
X94817023Y-92044045D01*
X94727856Y-91914847D01*
X94648228Y-91754996D01*
X94579628Y-91570074D01*
X94523545Y-91365665D01*
X94481466Y-91147355D01*
X94454882Y-90920726D01*
X94445281Y-90691362D01*
X94454151Y-90464848D01*
X94457798Y-90425073D01*
X94484782Y-90213683D01*
X94522911Y-90024985D01*
X94575508Y-89852604D01*
X94645897Y-89690168D01*
X94737400Y-89531303D01*
X94853340Y-89369637D01*
X94997041Y-89198797D01*
X95171826Y-89012408D01*
X95219839Y-88963572D01*
X95334224Y-88850436D01*
X95456134Y-88733918D01*
X95580035Y-88618948D01*
X95700394Y-88510455D01*
X95811676Y-88413370D01*
X95908348Y-88332622D01*
X95984876Y-88273141D01*
X96026333Y-88245089D01*
X96133431Y-88191441D01*
X96254461Y-88151267D01*
X96396943Y-88122938D01*
X96568397Y-88104823D01*
X96707231Y-88097436D01*
X96833699Y-88095271D01*
X96969824Y-88097243D01*
X97106689Y-88102782D01*
X97235374Y-88111316D01*
X97346960Y-88122275D01*
X97432531Y-88135089D01*
X97477357Y-88146706D01*
X97499387Y-88134809D01*
X97543326Y-88095239D01*
X97604188Y-88033014D01*
X97676984Y-87953150D01*
X97727752Y-87894841D01*
X97841171Y-87763523D01*
X97934070Y-87660568D01*
X98012776Y-87581611D01*
X98083617Y-87522285D01*
X98152922Y-87478224D01*
X98227017Y-87445060D01*
X98312231Y-87418428D01*
X98414891Y-87393960D01*
X98471011Y-87381958D01*
X98606421Y-87356625D01*
X98766742Y-87331792D01*
X98945505Y-87308016D01*
X99136239Y-87285854D01*
X99332475Y-87265866D01*
X99527744Y-87248607D01*
X99715577Y-87234637D01*
X99889504Y-87224511D01*
X100043055Y-87218790D01*
X100169761Y-87218028D01*
X100263153Y-87222786D01*
G37*
X100263153Y-87222786D02*
X100285084Y-87225586D01*
X100370469Y-87244124D01*
X100485165Y-87276215D01*
X100619654Y-87318553D01*
X100764418Y-87367828D01*
X100909939Y-87420732D01*
X101046697Y-87473956D01*
X101165175Y-87524191D01*
X101225350Y-87552422D01*
X101424449Y-87662771D01*
X101596959Y-87785159D01*
X101744282Y-87922626D01*
X101867820Y-88078210D01*
X101968976Y-88254952D01*
X102049152Y-88455892D01*
X102109750Y-88684069D01*
X102152172Y-88942523D01*
X102177820Y-89234293D01*
X102188096Y-89562421D01*
X102188433Y-89640276D01*
X102187312Y-89779428D01*
X102184093Y-89890244D01*
X102178990Y-89968796D01*
X102172218Y-90011154D01*
X102167803Y-90017600D01*
X102139091Y-90005056D01*
X102079401Y-89968669D01*
X101991391Y-89910308D01*
X101877714Y-89831839D01*
X101741025Y-89735131D01*
X101583981Y-89622051D01*
X101409235Y-89494467D01*
X101219443Y-89354247D01*
X101127611Y-89285863D01*
X100986256Y-89181003D01*
X100847628Y-89079378D01*
X100717526Y-88985150D01*
X100601746Y-88902479D01*
X100506089Y-88835527D01*
X100436353Y-88788454D01*
X100418923Y-88777309D01*
X100338636Y-88728301D01*
X100278976Y-88697415D01*
X100224892Y-88679982D01*
X100161336Y-88671335D01*
X100073259Y-88666805D01*
X100061168Y-88666348D01*
X99958578Y-88662119D01*
X99880428Y-88660132D01*
X99827449Y-88663555D01*
X99800378Y-88675561D01*
X99799947Y-88699317D01*
X99826891Y-88737995D01*
X99881945Y-88794764D01*
X99965842Y-88872794D01*
X100079316Y-88975255D01*
X100146807Y-89036126D01*
X100335305Y-89207624D01*
X100494110Y-89355755D01*
X100625754Y-89484606D01*
X100732769Y-89598265D01*
X100817685Y-89700817D01*
X100883036Y-89796350D01*
X100931351Y-89888951D01*
X100965164Y-89982706D01*
X100987005Y-90081703D01*
X100999406Y-90190028D01*
X101004899Y-90311768D01*
X101006022Y-90423199D01*
X101002660Y-90600685D01*
X100991509Y-90741228D01*
X100971645Y-90849660D01*
X100942142Y-90930810D01*
X100902078Y-90989508D01*
X100896574Y-90995215D01*
X100849927Y-91033299D01*
X100800947Y-91052601D01*
X100745425Y-91051352D01*
X100679150Y-91027783D01*
X100597914Y-90980124D01*
X100497505Y-90906608D01*
X100373714Y-90805463D01*
X100304600Y-90746449D01*
X100200904Y-90659265D01*
X100093681Y-90572943D01*
X99993150Y-90495463D01*
X99909532Y-90434806D01*
X99881267Y-90415849D01*
X99804486Y-90370205D01*
X99715493Y-90323343D01*
X99622573Y-90278871D01*
X99534010Y-90240396D01*
X99458092Y-90211526D01*
X99403104Y-90195868D01*
X99377707Y-90196604D01*
X99377814Y-90224000D01*
X99396257Y-90282493D01*
X99430284Y-90366472D01*
X99477145Y-90470326D01*
X99534089Y-90588445D01*
X99598364Y-90715216D01*
X99667220Y-90845030D01*
X99737907Y-90972274D01*
X99807673Y-91091339D01*
X99849536Y-91159025D01*
X99955101Y-91320318D01*
X100067449Y-91481115D01*
X100190008Y-91645649D01*
X100326208Y-91818151D01*
X100479477Y-92002856D01*
X100653244Y-92203994D01*
X100850938Y-92425797D01*
X101073797Y-92670118D01*
X101178518Y-92784463D01*
X101273205Y-92888952D01*
X101354226Y-92979488D01*
X101417947Y-93051973D01*
X101460735Y-93102308D01*
X101478956Y-93126396D01*
X101479350Y-93127568D01*
X101464714Y-93145760D01*
X101423687Y-93188898D01*
X101360588Y-93252794D01*
X101279734Y-93333256D01*
X101185446Y-93426094D01*
X101082042Y-93527118D01*
X100973842Y-93632138D01*
X100865163Y-93736964D01*
X100760326Y-93837406D01*
X100663648Y-93929272D01*
X100579450Y-94008374D01*
X100512050Y-94070521D01*
X100465766Y-94111522D01*
X100461320Y-94115251D01*
X100367305Y-94176464D01*
X100274852Y-94199299D01*
X100186336Y-94189395D01*
X100131268Y-94172547D01*
X100093611Y-94156102D01*
X100077073Y-94135684D01*
X100039616Y-94083288D01*
X99983524Y-94002344D01*
X99911084Y-93896282D01*
X99824578Y-93768532D01*
X99726293Y-93622523D01*
X99618513Y-93461685D01*
X99503522Y-93289448D01*
X99383607Y-93109242D01*
X99261050Y-92924497D01*
X99138138Y-92738642D01*
X99017156Y-92555108D01*
X98900387Y-92377323D01*
X98790117Y-92208718D01*
X98688630Y-92052723D01*
X98598212Y-91912767D01*
X98572513Y-91872746D01*
X98451022Y-91678184D01*
X98352590Y-91508845D01*
X98273179Y-91357431D01*
X98208749Y-91216641D01*
X98206494Y-91211288D01*
X98157282Y-91097737D01*
X98119436Y-91019576D01*
X98090367Y-90972224D01*
X98067490Y-90951102D01*
X98058276Y-90948933D01*
X98025440Y-90966829D01*
X98001135Y-91022880D01*
X97999690Y-91028308D01*
X97987409Y-91075776D01*
X97966865Y-91155202D01*
X97940392Y-91257560D01*
X97910324Y-91373824D01*
X97891568Y-91446350D01*
X97820087Y-91720249D01*
X97755480Y-91962646D01*
X97698195Y-92171961D01*
X97648682Y-92346616D01*
X97607390Y-92485031D01*
X97574767Y-92585628D01*
X97551264Y-92646828D01*
X97548463Y-92652691D01*
X97487699Y-92750108D01*
X97415831Y-92827526D01*
X97341537Y-92876509D01*
X97306837Y-92887582D01*
X97221364Y-92891627D01*
X97133884Y-92869710D01*
X97039492Y-92819211D01*
X96933285Y-92737513D01*
X96811450Y-92623091D01*
X96682829Y-92485426D01*
X96585490Y-92359282D01*
X96513720Y-92235604D01*
X96461804Y-92105337D01*
X96442343Y-92038137D01*
X96432310Y-91990488D01*
X96424445Y-91930100D01*
X96418530Y-91851910D01*
X96414342Y-91750857D01*
X96411662Y-91621878D01*
X96410269Y-91459912D01*
X96409933Y-91293736D01*
X96409933Y-90673767D01*
X96349814Y-90673767D01*
X96279898Y-90687313D01*
X96192315Y-90723262D01*
X96099821Y-90774582D01*
X96015173Y-90834238D01*
X95953691Y-90892171D01*
X95875823Y-90996581D01*
X95791854Y-91133461D01*
X95706247Y-91294290D01*
X95623462Y-91470544D01*
X95547960Y-91653699D01*
X95529933Y-91701782D01*
X95469172Y-91859985D01*
X95414906Y-91981606D01*
X95363311Y-92071122D01*
X95310561Y-92133006D01*
X95252830Y-92171735D01*
X95186293Y-92191783D01*
X95107125Y-92197625D01*
X95106067Y-92197627D01*
X95023137Y-92190706D01*
X94956039Y-92164439D01*
X94914240Y-92137005D01*
X94817023Y-92044045D01*
X94727856Y-91914847D01*
X94648228Y-91754996D01*
X94579628Y-91570074D01*
X94523545Y-91365665D01*
X94481466Y-91147355D01*
X94454882Y-90920726D01*
X94445281Y-90691362D01*
X94454151Y-90464848D01*
X94457798Y-90425073D01*
X94484782Y-90213683D01*
X94522911Y-90024985D01*
X94575508Y-89852604D01*
X94645897Y-89690168D01*
X94737400Y-89531303D01*
X94853340Y-89369637D01*
X94997041Y-89198797D01*
X95171826Y-89012408D01*
X95219839Y-88963572D01*
X95334224Y-88850436D01*
X95456134Y-88733918D01*
X95580035Y-88618948D01*
X95700394Y-88510455D01*
X95811676Y-88413370D01*
X95908348Y-88332622D01*
X95984876Y-88273141D01*
X96026333Y-88245089D01*
X96133431Y-88191441D01*
X96254461Y-88151267D01*
X96396943Y-88122938D01*
X96568397Y-88104823D01*
X96707231Y-88097436D01*
X96833699Y-88095271D01*
X96969824Y-88097243D01*
X97106689Y-88102782D01*
X97235374Y-88111316D01*
X97346960Y-88122275D01*
X97432531Y-88135089D01*
X97477357Y-88146706D01*
X97499387Y-88134809D01*
X97543326Y-88095239D01*
X97604188Y-88033014D01*
X97676984Y-87953150D01*
X97727752Y-87894841D01*
X97841171Y-87763523D01*
X97934070Y-87660568D01*
X98012776Y-87581611D01*
X98083617Y-87522285D01*
X98152922Y-87478224D01*
X98227017Y-87445060D01*
X98312231Y-87418428D01*
X98414891Y-87393960D01*
X98471011Y-87381958D01*
X98606421Y-87356625D01*
X98766742Y-87331792D01*
X98945505Y-87308016D01*
X99136239Y-87285854D01*
X99332475Y-87265866D01*
X99527744Y-87248607D01*
X99715577Y-87234637D01*
X99889504Y-87224511D01*
X100043055Y-87218790D01*
X100169761Y-87218028D01*
X100263153Y-87222786D01*
G36*
X114384678Y-89081301D02*
G01*
X114610502Y-89126766D01*
X114646662Y-89137636D01*
X114758776Y-89179025D01*
X114866675Y-89229415D01*
X114959976Y-89283123D01*
X115028295Y-89334468D01*
X115050818Y-89358770D01*
X115072223Y-89399091D01*
X115104777Y-89476485D01*
X115147141Y-89587576D01*
X115197974Y-89728989D01*
X115198979Y-89731850D01*
X115181567Y-89740455D01*
X115124021Y-89746966D01*
X115028497Y-89751246D01*
X114897149Y-89753160D01*
X114862214Y-89753250D01*
X114731090Y-89753792D01*
X114633357Y-89755892D01*
X114560078Y-89760570D01*
X114502312Y-89768845D01*
X114451122Y-89781736D01*
X114397570Y-89800262D01*
X114375320Y-89808767D01*
X114175648Y-89902689D01*
X113992418Y-90021344D01*
X113832268Y-90159112D01*
X113701835Y-90310376D01*
X113616477Y-90451071D01*
X113579814Y-90530739D01*
X113558154Y-90595249D01*
X113547652Y-90662102D01*
X113544458Y-90748798D01*
X113544350Y-90779155D01*
X113546524Y-90877579D01*
X113555142Y-90949989D01*
X113573346Y-91012575D01*
X113602227Y-91077366D01*
X113693123Y-91219649D01*
X113814832Y-91345988D01*
X113893965Y-91406169D01*
X113937541Y-91428567D01*
X114013627Y-91460654D01*
X114114357Y-91499400D01*
X114231862Y-91541776D01*
X114354901Y-91583641D01*
X114519893Y-91638645D01*
X114649626Y-91683592D01*
X114749270Y-91720977D01*
X114823998Y-91753293D01*
X114878979Y-91783034D01*
X114919385Y-91812694D01*
X114950388Y-91844767D01*
X114977157Y-91881746D01*
X114979054Y-91884659D01*
X115025364Y-91980486D01*
X115031998Y-92066773D01*
X114999182Y-92148120D01*
X114992484Y-92157937D01*
X114950800Y-92204081D01*
X114891860Y-92245682D01*
X114808869Y-92286302D01*
X114695034Y-92329505D01*
X114613267Y-92356805D01*
X114527683Y-92382359D01*
X114449129Y-92399941D01*
X114364855Y-92411342D01*
X114262115Y-92418354D01*
X114147600Y-92422286D01*
X113995571Y-92423819D01*
X113876923Y-92419199D01*
X113783080Y-92407918D01*
X113735108Y-92397737D01*
X113521574Y-92322590D01*
X113323141Y-92210567D01*
X113144102Y-92065725D01*
X112988751Y-91892117D01*
X112861381Y-91693798D01*
X112770334Y-91486559D01*
X112716492Y-91289669D01*
X112681067Y-91066564D01*
X112664687Y-90829443D01*
X112667980Y-90590506D01*
X112691574Y-90361951D01*
X112707769Y-90271600D01*
X112770324Y-90051540D01*
X112863690Y-89840061D01*
X112982950Y-89645126D01*
X113123188Y-89474698D01*
X113279485Y-89336739D01*
X113289488Y-89329510D01*
X113476774Y-89220313D01*
X113688105Y-89139739D01*
X113915311Y-89088942D01*
X114150225Y-89069078D01*
X114384678Y-89081301D01*
G37*
X114384678Y-89081301D02*
X114610502Y-89126766D01*
X114646662Y-89137636D01*
X114758776Y-89179025D01*
X114866675Y-89229415D01*
X114959976Y-89283123D01*
X115028295Y-89334468D01*
X115050818Y-89358770D01*
X115072223Y-89399091D01*
X115104777Y-89476485D01*
X115147141Y-89587576D01*
X115197974Y-89728989D01*
X115198979Y-89731850D01*
X115181567Y-89740455D01*
X115124021Y-89746966D01*
X115028497Y-89751246D01*
X114897149Y-89753160D01*
X114862214Y-89753250D01*
X114731090Y-89753792D01*
X114633357Y-89755892D01*
X114560078Y-89760570D01*
X114502312Y-89768845D01*
X114451122Y-89781736D01*
X114397570Y-89800262D01*
X114375320Y-89808767D01*
X114175648Y-89902689D01*
X113992418Y-90021344D01*
X113832268Y-90159112D01*
X113701835Y-90310376D01*
X113616477Y-90451071D01*
X113579814Y-90530739D01*
X113558154Y-90595249D01*
X113547652Y-90662102D01*
X113544458Y-90748798D01*
X113544350Y-90779155D01*
X113546524Y-90877579D01*
X113555142Y-90949989D01*
X113573346Y-91012575D01*
X113602227Y-91077366D01*
X113693123Y-91219649D01*
X113814832Y-91345988D01*
X113893965Y-91406169D01*
X113937541Y-91428567D01*
X114013627Y-91460654D01*
X114114357Y-91499400D01*
X114231862Y-91541776D01*
X114354901Y-91583641D01*
X114519893Y-91638645D01*
X114649626Y-91683592D01*
X114749270Y-91720977D01*
X114823998Y-91753293D01*
X114878979Y-91783034D01*
X114919385Y-91812694D01*
X114950388Y-91844767D01*
X114977157Y-91881746D01*
X114979054Y-91884659D01*
X115025364Y-91980486D01*
X115031998Y-92066773D01*
X114999182Y-92148120D01*
X114992484Y-92157937D01*
X114950800Y-92204081D01*
X114891860Y-92245682D01*
X114808869Y-92286302D01*
X114695034Y-92329505D01*
X114613267Y-92356805D01*
X114527683Y-92382359D01*
X114449129Y-92399941D01*
X114364855Y-92411342D01*
X114262115Y-92418354D01*
X114147600Y-92422286D01*
X113995571Y-92423819D01*
X113876923Y-92419199D01*
X113783080Y-92407918D01*
X113735108Y-92397737D01*
X113521574Y-92322590D01*
X113323141Y-92210567D01*
X113144102Y-92065725D01*
X112988751Y-91892117D01*
X112861381Y-91693798D01*
X112770334Y-91486559D01*
X112716492Y-91289669D01*
X112681067Y-91066564D01*
X112664687Y-90829443D01*
X112667980Y-90590506D01*
X112691574Y-90361951D01*
X112707769Y-90271600D01*
X112770324Y-90051540D01*
X112863690Y-89840061D01*
X112982950Y-89645126D01*
X113123188Y-89474698D01*
X113279485Y-89336739D01*
X113289488Y-89329510D01*
X113476774Y-89220313D01*
X113688105Y-89139739D01*
X113915311Y-89088942D01*
X114150225Y-89069078D01*
X114384678Y-89081301D01*
G36*
X50115138Y-33672172D02*
G01*
X50422357Y-33672879D01*
X50699817Y-33674034D01*
X50945912Y-33675622D01*
X51159039Y-33677624D01*
X51337590Y-33680023D01*
X51479961Y-33682802D01*
X51584546Y-33685942D01*
X51649740Y-33689427D01*
X51672805Y-33692576D01*
X51715334Y-33727727D01*
X51727978Y-33779299D01*
X51707429Y-33830763D01*
X51701700Y-33837033D01*
X51676346Y-33841626D01*
X51612341Y-33845801D01*
X51513366Y-33849559D01*
X51383101Y-33852900D01*
X51225226Y-33855823D01*
X51043422Y-33858328D01*
X50841368Y-33860416D01*
X50622746Y-33862087D01*
X50391236Y-33863340D01*
X50150519Y-33864176D01*
X49904273Y-33864594D01*
X49656181Y-33864595D01*
X49409922Y-33864178D01*
X49169177Y-33863344D01*
X48937626Y-33862092D01*
X48718949Y-33860423D01*
X48516827Y-33858337D01*
X48334941Y-33855833D01*
X48176970Y-33852911D01*
X48046595Y-33849572D01*
X47947497Y-33845816D01*
X47883356Y-33841642D01*
X47857851Y-33837051D01*
X47857833Y-33837033D01*
X47832361Y-33786908D01*
X47840545Y-33734354D01*
X47879079Y-33695901D01*
X47886728Y-33692576D01*
X47917929Y-33688818D01*
X47989857Y-33685390D01*
X48100906Y-33682309D01*
X48249472Y-33679593D01*
X48433947Y-33677260D01*
X48652728Y-33675326D01*
X48904208Y-33673810D01*
X49186783Y-33672728D01*
X49498846Y-33672099D01*
X49779767Y-33671933D01*
X50115138Y-33672172D01*
G37*
X50115138Y-33672172D02*
X50422357Y-33672879D01*
X50699817Y-33674034D01*
X50945912Y-33675622D01*
X51159039Y-33677624D01*
X51337590Y-33680023D01*
X51479961Y-33682802D01*
X51584546Y-33685942D01*
X51649740Y-33689427D01*
X51672805Y-33692576D01*
X51715334Y-33727727D01*
X51727978Y-33779299D01*
X51707429Y-33830763D01*
X51701700Y-33837033D01*
X51676346Y-33841626D01*
X51612341Y-33845801D01*
X51513366Y-33849559D01*
X51383101Y-33852900D01*
X51225226Y-33855823D01*
X51043422Y-33858328D01*
X50841368Y-33860416D01*
X50622746Y-33862087D01*
X50391236Y-33863340D01*
X50150519Y-33864176D01*
X49904273Y-33864594D01*
X49656181Y-33864595D01*
X49409922Y-33864178D01*
X49169177Y-33863344D01*
X48937626Y-33862092D01*
X48718949Y-33860423D01*
X48516827Y-33858337D01*
X48334941Y-33855833D01*
X48176970Y-33852911D01*
X48046595Y-33849572D01*
X47947497Y-33845816D01*
X47883356Y-33841642D01*
X47857851Y-33837051D01*
X47857833Y-33837033D01*
X47832361Y-33786908D01*
X47840545Y-33734354D01*
X47879079Y-33695901D01*
X47886728Y-33692576D01*
X47917929Y-33688818D01*
X47989857Y-33685390D01*
X48100906Y-33682309D01*
X48249472Y-33679593D01*
X48433947Y-33677260D01*
X48652728Y-33675326D01*
X48904208Y-33673810D01*
X49186783Y-33672728D01*
X49498846Y-33672099D01*
X49779767Y-33671933D01*
X50115138Y-33672172D01*
G36*
X176568100Y-33862433D02*
G01*
X175566211Y-33862433D01*
X175364205Y-33862144D01*
X175175234Y-33861315D01*
X175003495Y-33860004D01*
X174853185Y-33858270D01*
X174728500Y-33856171D01*
X174633637Y-33853765D01*
X174572793Y-33851111D01*
X174550211Y-33848322D01*
X174537357Y-33811947D01*
X174538587Y-33758629D01*
X174552229Y-33710713D01*
X174561500Y-33697333D01*
X174579039Y-33691004D01*
X174619672Y-33685708D01*
X174686031Y-33681380D01*
X174780744Y-33677955D01*
X174906444Y-33675366D01*
X175065759Y-33673548D01*
X175261320Y-33672434D01*
X175495758Y-33671961D01*
X175577500Y-33671933D01*
X176568100Y-33671933D01*
X176568100Y-33862433D01*
G37*
X176568100Y-33862433D02*
X175566211Y-33862433D01*
X175364205Y-33862144D01*
X175175234Y-33861315D01*
X175003495Y-33860004D01*
X174853185Y-33858270D01*
X174728500Y-33856171D01*
X174633637Y-33853765D01*
X174572793Y-33851111D01*
X174550211Y-33848322D01*
X174537357Y-33811947D01*
X174538587Y-33758629D01*
X174552229Y-33710713D01*
X174561500Y-33697333D01*
X174579039Y-33691004D01*
X174619672Y-33685708D01*
X174686031Y-33681380D01*
X174780744Y-33677955D01*
X174906444Y-33675366D01*
X175065759Y-33673548D01*
X175261320Y-33672434D01*
X175495758Y-33671961D01*
X175577500Y-33671933D01*
X176568100Y-33671933D01*
X176568100Y-33862433D01*
G36*
X172121161Y-27541745D02*
G01*
X172160292Y-27567759D01*
X172164688Y-27574542D01*
X172169136Y-27604286D01*
X172173078Y-27675984D01*
X172176515Y-27789681D01*
X172179449Y-27945423D01*
X172181878Y-28143254D01*
X172183805Y-28383219D01*
X172185229Y-28665364D01*
X172186151Y-28989734D01*
X172186571Y-29356373D01*
X172186600Y-29490125D01*
X172186583Y-29814523D01*
X172186492Y-30099244D01*
X172186269Y-30346944D01*
X172185855Y-30560280D01*
X172185192Y-30741906D01*
X172184221Y-30894481D01*
X172182883Y-31020659D01*
X172181119Y-31123098D01*
X172178872Y-31204452D01*
X172176081Y-31267379D01*
X172172690Y-31314535D01*
X172168638Y-31348575D01*
X172163867Y-31372157D01*
X172158319Y-31387936D01*
X172151935Y-31398568D01*
X172144656Y-31406709D01*
X172144267Y-31407100D01*
X172106323Y-31439572D01*
X172073760Y-31444962D01*
X172038433Y-31434005D01*
X172000361Y-31409293D01*
X171991132Y-31398634D01*
X171988793Y-31374447D01*
X171986632Y-31311600D01*
X171984650Y-31213768D01*
X171982852Y-31084622D01*
X171981241Y-30927836D01*
X171979819Y-30747085D01*
X171978590Y-30546041D01*
X171977558Y-30328377D01*
X171976726Y-30097768D01*
X171976096Y-29857886D01*
X171975672Y-29612404D01*
X171975457Y-29364997D01*
X171975454Y-29119337D01*
X171975667Y-28879098D01*
X171976099Y-28647953D01*
X171976753Y-28429576D01*
X171977632Y-28227640D01*
X171978740Y-28045819D01*
X171980079Y-27887785D01*
X171981653Y-27757212D01*
X171983465Y-27657773D01*
X171985519Y-27593143D01*
X171987781Y-27567081D01*
X172017537Y-27540673D01*
X172067786Y-27532472D01*
X172121161Y-27541745D01*
G37*
X172121161Y-27541745D02*
X172160292Y-27567759D01*
X172164688Y-27574542D01*
X172169136Y-27604286D01*
X172173078Y-27675984D01*
X172176515Y-27789681D01*
X172179449Y-27945423D01*
X172181878Y-28143254D01*
X172183805Y-28383219D01*
X172185229Y-28665364D01*
X172186151Y-28989734D01*
X172186571Y-29356373D01*
X172186600Y-29490125D01*
X172186583Y-29814523D01*
X172186492Y-30099244D01*
X172186269Y-30346944D01*
X172185855Y-30560280D01*
X172185192Y-30741906D01*
X172184221Y-30894481D01*
X172182883Y-31020659D01*
X172181119Y-31123098D01*
X172178872Y-31204452D01*
X172176081Y-31267379D01*
X172172690Y-31314535D01*
X172168638Y-31348575D01*
X172163867Y-31372157D01*
X172158319Y-31387936D01*
X172151935Y-31398568D01*
X172144656Y-31406709D01*
X172144267Y-31407100D01*
X172106323Y-31439572D01*
X172073760Y-31444962D01*
X172038433Y-31434005D01*
X172000361Y-31409293D01*
X171991132Y-31398634D01*
X171988793Y-31374447D01*
X171986632Y-31311600D01*
X171984650Y-31213768D01*
X171982852Y-31084622D01*
X171981241Y-30927836D01*
X171979819Y-30747085D01*
X171978590Y-30546041D01*
X171977558Y-30328377D01*
X171976726Y-30097768D01*
X171976096Y-29857886D01*
X171975672Y-29612404D01*
X171975457Y-29364997D01*
X171975454Y-29119337D01*
X171975667Y-28879098D01*
X171976099Y-28647953D01*
X171976753Y-28429576D01*
X171977632Y-28227640D01*
X171978740Y-28045819D01*
X171980079Y-27887785D01*
X171981653Y-27757212D01*
X171983465Y-27657773D01*
X171985519Y-27593143D01*
X171987781Y-27567081D01*
X172017537Y-27540673D01*
X172067786Y-27532472D01*
X172121161Y-27541745D01*
G36*
X54116804Y-28350843D02*
G01*
X54129791Y-28359328D01*
X54136053Y-28368849D01*
X54141443Y-28388198D01*
X54146026Y-28420281D01*
X54149864Y-28468004D01*
X54153019Y-28534272D01*
X54155554Y-28621991D01*
X54157533Y-28734065D01*
X54159017Y-28873402D01*
X54160069Y-29042905D01*
X54160753Y-29245481D01*
X54161130Y-29484035D01*
X54161263Y-29761473D01*
X54161267Y-29817958D01*
X54161083Y-30116738D01*
X54160504Y-30375450D01*
X54159493Y-30596358D01*
X54158008Y-30781727D01*
X54156010Y-30933820D01*
X54153461Y-31054902D01*
X54150320Y-31147237D01*
X54146548Y-31213088D01*
X54142106Y-31254720D01*
X54136955Y-31274397D01*
X54135867Y-31275867D01*
X54088212Y-31299084D01*
X54034455Y-31294243D01*
X53994504Y-31263504D01*
X53992678Y-31260325D01*
X53989156Y-31233063D01*
X53985894Y-31167779D01*
X53982903Y-31068785D01*
X53980196Y-30940390D01*
X53977787Y-30786905D01*
X53975689Y-30612642D01*
X53973913Y-30421911D01*
X53972474Y-30219023D01*
X53971383Y-30008288D01*
X53970654Y-29794018D01*
X53970299Y-29580523D01*
X53970332Y-29372114D01*
X53970766Y-29173102D01*
X53971612Y-28987798D01*
X53972884Y-28820511D01*
X53974596Y-28675554D01*
X53976758Y-28557237D01*
X53979386Y-28469870D01*
X53982491Y-28417765D01*
X53984168Y-28406493D01*
X54014328Y-28363896D01*
X54064743Y-28343337D01*
X54116804Y-28350843D01*
G37*
X54116804Y-28350843D02*
X54129791Y-28359328D01*
X54136053Y-28368849D01*
X54141443Y-28388198D01*
X54146026Y-28420281D01*
X54149864Y-28468004D01*
X54153019Y-28534272D01*
X54155554Y-28621991D01*
X54157533Y-28734065D01*
X54159017Y-28873402D01*
X54160069Y-29042905D01*
X54160753Y-29245481D01*
X54161130Y-29484035D01*
X54161263Y-29761473D01*
X54161267Y-29817958D01*
X54161083Y-30116738D01*
X54160504Y-30375450D01*
X54159493Y-30596358D01*
X54158008Y-30781727D01*
X54156010Y-30933820D01*
X54153461Y-31054902D01*
X54150320Y-31147237D01*
X54146548Y-31213088D01*
X54142106Y-31254720D01*
X54136955Y-31274397D01*
X54135867Y-31275867D01*
X54088212Y-31299084D01*
X54034455Y-31294243D01*
X53994504Y-31263504D01*
X53992678Y-31260325D01*
X53989156Y-31233063D01*
X53985894Y-31167779D01*
X53982903Y-31068785D01*
X53980196Y-30940390D01*
X53977787Y-30786905D01*
X53975689Y-30612642D01*
X53973913Y-30421911D01*
X53972474Y-30219023D01*
X53971383Y-30008288D01*
X53970654Y-29794018D01*
X53970299Y-29580523D01*
X53970332Y-29372114D01*
X53970766Y-29173102D01*
X53971612Y-28987798D01*
X53972884Y-28820511D01*
X53974596Y-28675554D01*
X53976758Y-28557237D01*
X53979386Y-28469870D01*
X53982491Y-28417765D01*
X53984168Y-28406493D01*
X54014328Y-28363896D01*
X54064743Y-28343337D01*
X54116804Y-28350843D01*
M02*
