<?xml version="1.0" standalone="no"?>
 <!DOCTYPE svg PUBLIC "-//W3C//DTD SVG 1.1//EN" 
 "http://www.w3.org/Graphics/SVG/1.1/DTD/svg11.dtd"> 
<svg
  xmlns:svg="http://www.w3.org/2000/svg"
  xmlns="http://www.w3.org/2000/svg"
  xmlns:xlink="http://www.w3.org/1999/xlink"
  xmlns:inkscape="http://www.inkscape.org/namespaces/inkscape"
  version="1.1"
  width="117.9830mm" height="141.9860mm" viewBox="0.0000 0.0000 117.9830 141.9860">
<title>SVG Image created as F_Mask_nuevo.svg date 2026-06-23T19:04:13 </title>
  <desc>Image generated by PCBNEW </desc>
<g style="fill:#000000; fill-opacity:1.0000;stroke:#000000; stroke-opacity:1.0000;
stroke-linecap:round; stroke-linejoin:round;"
 transform="translate(0 0) scale(1 1)">
<path style="fill:#000000; fill-opacity:1.0000; stroke:none;fill-rule:evenodd;"
d="M 71.3118,76.7131
71.4073,77.0634
71.0889,77.6206
70.4520,77.7321
69.6240,78.3849
69.0189,78.7511
68.2865,79.4040
67.8725,79.6110
67.2515,79.7543
66.8535,79.7065
66.9490,78.8945
68.0158,78.6238
68.2865,78.4645
69.3374,77.4933
70.1654,76.9200
71.0570,76.5857
Z" /> 
<path style="fill:#000000; fill-opacity:1.0000; stroke:none;fill-rule:evenodd;"
d="M 57.5069,72.8916
58.2234,73.1782
58.6055,73.5922
58.6692,74.0699
58.4622,74.5794
58.0323,75.0093
57.2999,75.0412
56.6471,75.2322
56.5674,75.5189
56.6311,79.2925
56.3286,79.6110
56.2490,79.6110
56.1375,78.1779
55.3096,75.7259
55.3732,73.6081
55.4529,73.3056
55.7235,72.8439
57.1247,72.8279
Z" /> 
<path style="fill:#000000; fill-opacity:1.0000; stroke:none;fill-rule:evenodd;"
d="M 60.7710,55.5997
60.8984,55.7748
60.8825,55.9500
60.1660,56.0136
59.7042,56.2843
59.2584,56.8257
59.2424,57.1919
59.5927,57.7174
60.2296,57.9880
60.7073,58.0836
60.7710,58.4020
60.7073,58.5135
60.3730,58.6090
59.3380,58.6090
58.9399,58.4498
58.7170,58.2269
58.5100,57.8129
58.4304,57.5104
58.4304,56.5391
58.7011,55.9659
59.1310,55.5360
60.0545,55.3130
Z" /> 
<path style="fill:#000000; fill-opacity:1.0000; stroke:none;fill-rule:evenodd;"
d="M 64.3377,73.1782
64.4969,73.3375
64.5924,73.6081
64.5288,74.8342
64.3377,75.3915
64.2103,76.4105
64.2103,77.9550
64.2899,78.3372
64.5606,78.6238
65.6593,78.6238
66.0255,78.7034
66.2802,78.8945
66.3758,79.0855
66.3599,79.3562
65.9777,79.6747
63.9237,79.6906
63.6530,79.5950
63.3346,79.2288
63.3346,78.1939
63.4619,77.9550
63.5893,76.4901
63.5893,73.3534
63.8600,73.0986
Z" /> 
<path style="fill:#000000; fill-opacity:1.0000; stroke:none;fill-rule:evenodd;"
d="M 67.1082,73.9266
67.6018,74.2610
67.9680,74.3884
68.0158,74.6113
67.7611,74.7864
66.4076,74.9138
66.0733,75.0730
65.5637,75.5825
65.4841,76.0443
65.3567,76.2195
65.3567,76.8723
65.4841,77.1111
65.5478,78.0665
65.4523,78.1620
64.8631,78.1302
64.6084,77.5729
64.6084,76.7290
64.7358,76.5538
64.8154,75.6622
65.0383,75.5029
65.0701,75.1367
65.3408,74.6750
65.6752,74.3565
66.5987,73.9107
Z" /> 
<path style="fill:#000000; fill-opacity:1.0000; stroke:none;fill-rule:evenodd;"
d="M 44.5936,78.9104
45.1509,79.4199
45.4535,79.8817
45.9471,80.3753
46.8387,81.0122
47.8737,81.4898
48.6539,81.4898
49.0201,81.4102
49.4500,81.0759
49.8163,80.6141
50.4691,80.6778
50.5168,80.8848
50.2302,81.4102
49.9436,81.6968
49.5456,81.9675
49.0520,82.1745
48.2558,82.2382
47.7622,82.0471
47.4279,82.0471
46.9661,81.8879
45.9630,81.2032
44.7051,79.8976
44.1796,79.5791
44.1637,79.3403
44.4663,78.8945
Z" /> 
<path style="fill:#000000; fill-opacity:1.0000; stroke:none;fill-rule:evenodd;"
d="M 67.1719,57.3671
68.0158,57.8766
68.6527,58.5135
68.8916,58.8797
69.1782,59.9784
69.1145,60.5675
68.9075,61.2681
68.5731,61.7936
68.3502,61.8413
68.1750,61.5229
68.1750,61.0611
68.4298,60.4401
68.4298,59.5962
68.2865,59.0389
68.0158,58.4976
67.8407,58.3224
67.3789,58.0517
67.0605,57.9721
65.4523,57.9880
64.7676,58.4498
64.5765,58.7523
64.4810,59.4848
63.8919,59.4848
63.8441,59.1504
64.1307,58.4976
64.5924,57.8766
65.0701,57.5581
65.4682,57.4785
65.6433,57.3511
66.5509,57.2238
Z" /> 
<path style="fill:#000000; fill-opacity:1.0000; stroke:none;fill-rule:evenodd;"
d="M 74.8944,76.4742
75.4676,77.1111
75.6587,77.5729
75.7383,78.8467
75.4676,79.9294
75.1969,80.4549
74.9740,80.6778
74.4486,80.9007
73.3499,80.9644
71.9487,80.6937
71.3755,80.3753
71.2003,80.2001
71.1844,80.0727
71.5029,79.9613
71.9009,79.9613
72.2035,80.1523
72.9041,80.2797
73.8116,80.2797
74.1938,80.2001
74.7033,79.8817
74.7670,79.6428
74.9740,79.3562
75.0536,78.5282
75.0536,77.7480
74.8944,77.3500
74.7192,77.1748
74.1938,76.9041
72.9996,76.8723
72.9518,76.4901
72.9996,76.4105
73.4295,76.3309
73.6683,76.2035
74.2575,76.2035
Z" /> 
<path style="fill:#000000; fill-opacity:1.0000; stroke:none;fill-rule:evenodd;"
d="M 50.3576,60.0261
51.3448,60.1854
51.9817,60.5675
52.5868,61.1726
53.0804,62.0005
53.3033,62.1120
53.2396,62.4145
53.0804,62.6056
52.9371,62.6056
52.1250,61.5706
51.4563,60.9178
51.0901,60.6790
50.7557,60.5834
49.1475,60.5834
48.2558,60.8541
47.6826,61.1726
47.2846,61.5706
47.0139,62.1439
46.9502,63.1151
47.0139,63.3699
47.3005,63.9590
47.7145,64.4845
47.8259,64.7552
47.7782,64.9462
47.3642,64.9781
47.2527,64.9144
46.7273,64.1342
46.4566,63.3699
46.4566,61.8891
46.5521,61.5547
46.9820,60.9337
47.2686,60.6790
48.1444,60.1694
49.0360,60.0261
49.2749,59.8988
50.1188,59.8988
Z" /> 
<path style="fill:#000000; fill-opacity:1.0000; stroke:none;fill-rule:evenodd;"
d="M 59.4017,65.8857
59.9271,65.8857
60.7869,66.2678
61.2805,66.6977
61.4238,66.7296
61.8856,67.3506
62.1722,68.1308
62.1722,69.1657
62.0448,69.3409
61.8856,70.0733
60.9143,70.9491
60.1182,71.2834
59.3380,71.2994
59.3539,71.1720
60.3889,70.0574
60.5003,69.7708
60.8984,69.3568
61.0417,68.9747
61.0417,68.0034
60.9462,67.6690
60.4685,67.0321
59.9271,66.7614
59.2106,66.6977
59.0036,66.8569
58.9240,67.0480
58.9240,68.8473
58.8444,69.2772
58.2712,69.9300
58.0801,70.0096
57.9368,69.9619
57.9846,66.7296
57.9209,66.3474
58.0005,65.9971
58.1279,65.9016
58.5896,65.8857
58.7648,65.7583
59.1628,65.7583
Z" /> 
<path style="fill:#000000; fill-opacity:1.0000; stroke:none;fill-rule:evenodd;"
d="M 51.9658,73.4330
51.9817,73.6241
51.7429,74.1336
50.6124,74.1495
49.7685,74.6272
49.3227,75.0730
48.7972,76.4105
48.7972,77.3181
48.9246,77.5570
49.0679,78.1939
49.5296,78.8785
50.1666,79.2448
50.5487,79.3881
51.5837,79.3881
52.4116,78.8626
53.7491,77.4933
53.8765,77.5251
54.0039,77.8276
54.0198,78.1461
52.8097,79.4040
51.9658,79.9294
51.2652,80.2001
50.0392,80.1364
49.2590,79.8498
48.6380,79.3881
48.6698,79.1811
48.4947,78.9104
48.4310,78.3849
48.2399,77.8276
48.1762,77.1748
47.9374,76.4901
48.0488,75.5825
48.3195,75.0730
48.9564,74.4361
49.7207,73.8629
50.1347,73.7514
50.5646,73.4011
51.8384,73.3375
Z" /> 
<path style="fill:#000000; fill-opacity:1.0000; stroke:none;fill-rule:evenodd;"
d="M 59.3698,73.0508
59.6883,73.4171
59.6883,75.0253
59.6246,75.5985
59.4972,75.8373
59.4335,76.2195
59.3698,78.2098
59.5927,78.6238
60.0386,78.8785
60.4366,78.8785
60.8984,78.6875
61.2169,78.3372
61.2965,78.0824
61.2965,74.3724
61.2328,74.1973
61.2328,73.4808
61.3761,73.3375
62.0289,73.3375
62.1722,73.4648
62.2996,73.9903
62.2996,76.4901
62.1722,78.1461
61.9015,78.7830
61.2487,79.4199
60.6755,79.4995
60.4366,79.6269
60.0386,79.6269
59.7997,79.4995
59.1469,79.4199
58.9399,79.3403
58.7170,79.1174
58.4463,78.5919
58.4304,75.5189
58.8603,75.0571
59.1947,74.0699
59.1788,73.6081
58.9399,73.0508
58.9877,72.9075
Z" /> 
<path style="fill:#000000; fill-opacity:1.0000; stroke:none;fill-rule:evenodd;"
d="M 56.0261,66.0130
56.1853,66.2837
56.0579,67.5575
56.0579,68.7836
55.9305,69.0224
55.9305,69.9937
56.0898,70.3918
56.2968,70.5828
58.0164,70.5988
58.2075,70.5192
58.9240,69.8026
59.2106,69.3727
59.6564,68.9747
60.2615,67.8760
60.4048,67.9397
60.6277,68.3378
60.6118,68.6084
60.2296,69.0065
60.1660,69.2453
59.9271,69.4046
59.8634,69.7071
59.6564,70.0096
58.6692,71.0605
58.0801,71.4745
57.5706,71.6019
56.1535,71.6019
55.9146,71.7293
55.5802,71.7293
55.3414,71.6019
55.0070,71.5860
54.7523,71.3312
54.7523,71.1401
55.3096,69.9937
55.3732,67.4939
55.3096,66.9843
55.0866,66.6977
55.0707,66.5544
55.1981,66.2519
55.4529,65.9653
55.8509,65.9016
Z" /> 
<path style="fill:#000000; fill-opacity:1.0000; stroke:none;fill-rule:evenodd;"
d="M 43.8134,67.8919
43.8293,68.0830
43.6860,68.4970
43.3039,68.6721
43.0173,68.7040
42.6511,69.0702
42.4282,69.5319
42.4282,71.5860
42.8421,72.4299
43.1447,72.7324
43.7179,73.0190
44.8165,73.3375
48.2081,73.3375
49.0360,73.1305
49.6889,72.7961
50.2462,72.3343
50.6602,72.3980
50.6920,72.5095
50.2143,72.9872
49.4500,73.4967
48.9087,73.7674
48.3195,73.8947
48.1444,74.0221
46.2177,74.0858
46.0426,74.0221
44.9439,74.0221
44.7051,73.8947
44.1160,73.8947
43.4790,73.7674
42.7625,73.3534
42.3485,72.9394
42.0779,72.4139
41.8072,71.3949
41.8072,71.0605
41.6798,70.8217
41.6798,69.9778
41.8868,69.3409
42.3326,68.5129
42.8262,68.0830
43.4790,67.7964
43.6860,67.7964
Z" /> 
<path style="fill:#000000; fill-opacity:1.0000; stroke:none;fill-rule:evenodd;"
d="M 53.4148,66.0290
54.1950,66.4748
54.5771,66.8569
54.8478,67.4302
54.9115,68.9110
54.8478,69.6116
54.3860,70.6784
53.7969,71.3312
52.7301,71.9840
51.1856,72.0477
50.6283,71.8407
50.1029,71.3949
49.7685,70.8854
50.0232,69.9300
50.0232,68.7677
49.8322,68.4651
49.9755,67.8442
50.2780,67.8123
50.5805,68.2581
50.4532,69.2772
50.4532,70.0574
50.5487,70.4555
50.8353,70.8217
51.2493,71.1083
52.4116,71.1083
52.9371,70.9491
53.2555,70.7580
53.8128,70.2007
53.9721,69.8822
54.1631,68.9747
54.0835,68.0034
53.8288,67.6212
53.3192,67.1754
53.0326,67.1436
52.6027,66.9525
51.9021,66.9366
51.2652,66.3793
51.2334,66.2360
51.4404,66.0290
51.8862,65.8857
52.9212,65.8857
Z" /> 
<path style="fill:#000000; fill-opacity:1.0000; stroke:none;fill-rule:evenodd;"
d="M 70.9297,74.5476
71.5825,74.6909
72.0920,75.1049
72.3468,75.5189
72.4901,75.9647
72.4901,77.8913
72.4105,78.3372
72.0920,78.8785
71.5188,79.3562
70.6271,79.6906
69.9106,79.6906
69.5444,79.6110
69.4170,79.4995
69.4329,79.2129
70.8023,78.2575
71.4073,78.1461
71.7258,77.8117
71.8691,77.3818
71.8691,76.6653
71.6621,76.0921
71.0889,75.4552
70.2450,75.1686
69.9106,75.1686
69.2737,75.4392
68.8756,75.8373
68.6686,76.3468
68.6527,77.3181
68.3980,77.6366
68.0636,77.8913
67.9362,77.8595
67.6655,77.3181
67.6655,76.6653
67.7929,76.4264
67.8725,75.9647
68.0954,75.5985
68.1273,75.3437
68.5890,74.8501
68.6686,74.5635
69.5444,74.6113
70.3724,74.5476
70.6908,74.4202
Z" /> 
<path style="fill:#000000; fill-opacity:1.0000; stroke:none;fill-rule:evenodd;"
d="M 53.6855,73.4171
54.0039,73.7355
54.1154,74.0858
54.3224,74.3724
54.4179,74.8183
54.7841,75.6303
54.8637,76.0443
55.5484,77.9391
55.6758,78.4486
55.6758,78.9741
55.8032,79.2129
55.7235,79.4358
55.1981,79.5473
54.9593,79.4358
54.6727,78.6556
54.5930,78.1302
54.4179,77.8276
54.2905,76.9200
54.1154,76.6175
54.0198,76.0443
53.8128,75.6303
53.5581,75.4233
52.9849,75.4392
52.6505,75.7577
52.4753,76.2354
52.3161,76.4264
52.2206,76.9200
51.9977,77.2544
51.6155,78.1461
51.4404,78.7352
51.2652,78.8626
50.7398,78.8148
50.8512,78.1302
51.0901,77.5729
51.1219,77.3181
51.2811,77.1111
51.3607,76.6016
51.7429,75.7895
51.8225,75.3915
52.2365,74.6272
52.3320,74.1814
52.6027,73.5922
52.8575,73.3534
53.4944,73.3375
Z" /> 
<path style="fill:#000000; fill-opacity:1.0000; stroke:none;fill-rule:evenodd;"
d="M 49.6570,65.9016
50.1506,66.2360
50.3895,66.2997
51.9658,67.8123
52.3639,68.4651
53.2237,69.3250
53.4944,69.5001
53.4944,69.5956
53.2237,69.8663
52.9052,69.8026
51.3767,68.2741
51.0741,67.7964
50.8671,67.6690
50.7079,67.4302
50.5328,67.3665
49.5296,66.5226
48.7813,66.2519
46.7910,66.2519
45.8993,66.7773
45.2465,67.6212
44.9917,68.2104
44.9121,68.9747
45.1828,70.0415
45.3898,70.3918
45.6923,70.6943
46.2177,71.0287
46.5362,71.1083
47.6985,71.1083
48.1762,70.9650
48.4151,70.7261
48.6857,70.2485
48.6857,69.2772
48.4788,69.0224
48.2081,68.9269
47.5552,68.9269
47.3164,68.7995
45.4853,68.7836
45.4535,68.5129
45.7082,68.2422
47.4438,68.2422
48.0011,68.4333
49.0360,68.5129
49.4978,68.8314
49.5615,69.6753
49.2749,70.7102
48.5265,71.5223
47.8896,71.7770
47.3005,71.8567
47.1253,71.9840
46.7910,71.9840
46.5521,71.8567
46.0267,71.7770
45.4375,71.5064
44.7688,70.9013
44.2274,69.6753
44.2274,67.9397
44.4344,67.3028
44.6892,66.9206
45.3261,66.2837
45.7560,65.9812
46.9183,65.5035
48.4628,65.4398
Z" /> 
<path style="fill:#000000; fill-opacity:1.0000; stroke:none;fill-rule:evenodd;"
d="M 45.8993,74.5476
46.6636,74.5476
46.7750,74.6272
47.1253,75.3437
47.3960,76.1558
47.3960,76.5538
47.6508,77.1748
47.7782,77.8117
47.7782,78.2098
47.9692,78.7034
48.0329,79.2288
48.1603,79.4677
48.0329,80.1842
48.2240,80.5504
48.1762,80.9485
47.7622,80.8848
47.3005,80.5504
47.1572,79.7384
47.1572,79.2129
47.0298,78.9741
46.9024,78.2098
46.9024,77.6206
46.6158,76.8404
46.2974,76.4583
46.1063,76.3787
45.4535,76.3787
45.0395,76.7290
44.6892,77.2226
44.5777,77.6047
44.1796,78.1620
43.9886,78.3053
43.8771,78.6556
43.3039,79.7384
42.3167,80.6300
41.5843,80.9007
41.1862,80.9007
40.9474,80.7733
40.4060,80.6778
39.6576,79.9931
39.5143,79.5473
39.5143,79.2129
39.3869,78.9741
39.3869,78.5123
39.5143,78.3372
39.6258,77.6843
40.3423,76.9360
40.6767,76.8404
41.7753,76.8404
42.0938,76.9200
42.9218,77.3977
42.8103,77.8276
42.6670,77.9550
42.4122,77.9550
41.7116,77.5888
40.7404,77.5888
40.4219,77.7799
40.0875,78.1939
40.0716,79.2925
40.4219,79.8339
40.7404,80.0250
41.5206,80.0250
41.9186,79.8976
42.4441,79.4199
42.7148,78.9900
42.8740,78.8785
43.1765,78.2416
43.3357,78.0824
43.4154,77.7480
43.9886,76.6016
44.8484,75.1526
45.1350,74.4680
45.6604,74.4202
Z" /> 
<path style="fill:#000000; fill-opacity:1.0000; stroke:none;fill-rule:evenodd;"
d="M 52.8575,57.0964
54.2746,57.7651
54.7523,58.2428
55.1026,58.8956
55.1663,59.9943
55.0389,60.9497
54.9115,61.1885
54.8478,62.0324
54.6567,62.4623
54.5294,63.2425
54.2746,63.9909
54.2746,64.3730
54.3383,64.4686
56.3605,64.4845
56.6311,64.3253
56.8381,64.0705
57.1725,62.9718
57.3477,62.6852
57.7298,61.5547
57.9049,61.3159
57.9846,60.8700
58.1916,60.4242
58.4463,60.0421
58.9558,59.6440
59.4335,59.8032
59.9749,60.4083
60.5003,61.6980
60.7869,63.2266
60.9780,63.6247
61.3124,63.9113
61.8378,64.0227
62.1563,63.9590
62.7454,63.5291
63.2072,62.7967
63.3346,62.1439
63.4619,61.9050
63.5416,61.2203
64.0352,61.1248
64.0829,61.9687
63.6849,63.4177
63.1913,64.3730
62.2200,64.7233
61.3124,64.7074
60.6914,64.3889
60.2933,64.0068
60.0227,63.3699
59.9430,62.7808
59.6724,62.1279
59.4176,61.9209
58.7807,61.9209
58.3667,62.4623
57.8253,63.9272
57.4750,64.5800
57.4432,64.8189
57.0929,65.3443
53.9243,65.4239
53.4944,65.3443
53.0963,65.0736
53.0804,64.4367
53.5262,63.4495
53.6058,62.9081
53.7651,62.6534
54.0994,61.5229
54.1631,59.1504
54.0835,58.8319
53.7810,58.3861
53.3033,57.9880
52.6027,57.7811
51.5677,57.7811
50.9945,58.0517
50.7238,58.3224
50.5328,58.6409
50.4213,59.4370
49.9755,59.5007
49.8322,59.3574
49.8322,59.0230
49.9596,58.7842
50.0392,58.3224
50.2939,57.8766
50.5805,57.6218
51.5200,57.1123
51.9499,57.0327
Z" /> 
<path style="fill:#000000; fill-opacity:1.0000; stroke:none;fill-rule:evenodd;"
d="M 52.6546,42.4831
52.8388,42.4929
53.2421,42.5281
53.6142,42.5793
53.9638,42.6483
54.2995,42.7367
54.6299,42.8465
54.7341,42.8857
55.0394,43.0177
55.3076,43.1649
55.5424,43.3302
55.7473,43.5168
55.9261,43.7278
56.0822,43.9663
56.1643,44.1195
56.2840,44.3919
56.3890,44.6966
56.4778,45.0253
56.5488,45.3702
56.6004,45.7231
56.6312,46.0761
56.6395,46.4210
56.6359,46.5610
56.6034,46.9936
56.5428,47.4032
56.4549,47.7874
56.3400,48.1442
56.1989,48.4713
56.0322,48.7665
56.0200,48.7854
55.8166,49.0578
55.5830,49.3009
55.3196,49.5144
55.0271,49.6979
54.7061,49.8511
54.3572,49.9737
53.9809,50.0652
53.7543,50.1034
53.6336,50.1181
53.4860,50.1320
53.3168,50.1449
53.1316,50.1566
52.9358,50.1670
52.7348,50.1758
52.5340,50.1829
52.3391,50.1881
52.1553,50.1912
51.9881,50.1921
51.8430,50.1906
51.7255,50.1865
51.6409,50.1796
51.6044,50.1730
51.4487,50.1131
51.3164,50.0236
51.2060,49.9025
51.1160,49.7480
51.0449,49.5579
51.0002,49.3769
50.9843,49.2932
50.9701,49.2056
50.9574,49.1106
50.9460,49.0045
50.9356,48.8837
50.9259,48.7445
50.9168,48.5833
50.9080,48.3964
50.8993,48.1803
50.8904,47.9312
50.8812,47.6456
50.8755,47.4606
50.8670,47.1870
50.8592,46.9417
50.8516,46.7186
50.8440,46.5121
50.8361,46.3161
50.8275,46.1248
50.8181,45.9325
50.8076,45.7331
50.7955,45.5209
50.7953,45.5173
52.2574,45.5173
52.3848,45.7561
52.4485,48.2560
52.5281,48.4470
52.7192,48.5903
53.7542,48.5903
54.2637,48.3833
54.4547,48.1923
54.6617,47.7624
54.7891,46.9025
54.9165,46.6637
54.9165,45.5650
54.7095,44.9600
54.2796,44.6256
53.8019,44.5301
53.6268,44.4027
52.7829,44.4027
52.5440,44.5301
52.3052,44.5460
52.2574,44.6256
52.2574,45.5173
50.7953,45.5173
50.7818,45.2900
50.7660,45.0346
50.7479,44.7487
50.7399,44.6256
50.7271,44.4266
50.7268,44.4206
50.7125,44.1945
50.6992,43.9724
50.6870,43.7594
50.6763,43.5609
50.6673,43.3822
50.6604,43.2284
50.6557,43.1049
50.6535,43.0169
50.6534,42.9995
50.6534,42.7135
50.8280,42.6884
50.9042,42.6768
51.0123,42.6597
51.1422,42.6386
51.2843,42.6151
51.4285,42.5909
51.4366,42.5896
51.6899,42.5486
51.9112,42.5177
52.1094,42.4964
52.2934,42.4839
52.4722,42.4797
Z" /> 
<path style="fill:#000000; fill-opacity:1.0000; stroke:none;fill-rule:evenodd;"
d="M 65.1338,60.0261
66.1051,60.1535
66.9968,60.6790
67.3789,61.0611
67.6337,61.4433
67.8407,62.0802
67.7770,63.4336
67.5063,64.1979
67.0286,64.8348
66.0414,65.4080
65.6433,65.4876
65.3408,65.6628
63.8600,65.7424
63.6849,65.8697
63.0639,65.8857
62.8250,66.2519
62.8250,66.7933
62.9683,67.0799
63.3505,67.4939
64.2581,67.5416
64.9587,67.4779
65.2134,67.7008
65.0861,68.0034
64.8472,68.1626
63.7326,68.2900
63.2549,68.6084
63.0798,68.9110
63.0002,69.2772
63.0002,70.1211
63.3346,70.8217
63.7326,70.9809
64.8950,70.9809
65.2930,71.1083
66.3599,71.8248
67.4108,72.7961
68.3820,73.3215
69.2259,73.4011
69.4648,73.5285
69.9265,73.5285
70.1654,73.4011
70.7067,73.3056
71.5188,72.7006
71.9009,72.2388
72.1239,71.7133
72.2512,70.7421
72.3786,70.5032
72.4423,68.8314
72.3786,68.2581
72.2512,68.0193
72.1239,66.9843
71.5188,66.2041
71.0730,65.9334
70.4361,65.9494
70.1972,66.2837
70.3246,66.6659
70.3883,71.2038
70.3087,71.5700
70.1813,71.7133
69.7195,71.7930
69.5285,71.7133
69.1463,71.3312
68.8597,70.7421
68.6368,70.4873
68.5572,70.1529
68.1273,69.4205
68.0317,69.0861
67.1241,68.2422
66.5828,68.2581
66.3439,68.4970
66.2643,68.7040
66.2962,70.9172
66.1051,70.9491
65.3408,70.5192
65.3567,70.0733
65.2453,69.9300
65.2453,68.9587
65.1338,68.6562
65.5637,68.3696
65.7548,67.9556
65.7548,67.6849
65.5956,67.2232
65.3090,66.9366
65.3090,66.2360
65.3567,66.1564
66.4076,65.8697
66.6624,65.7105
66.8853,65.7264
67.2356,66.1404
67.4267,66.6977
68.0158,67.6212
68.1750,68.0193
68.5094,68.4333
69.0826,69.6275
69.2419,69.8186
69.3374,69.8186
69.4488,69.6753
69.3852,65.9653
69.4648,65.5991
69.6718,65.1851
69.8947,64.9622
70.4201,64.7392
71.2003,64.9462
72.0283,65.4558
72.5856,66.1404
72.7608,66.7296
72.9200,66.9843
72.9996,67.9556
73.1270,68.1945
73.1907,70.1848
72.9359,70.9331
72.8722,71.5860
72.3627,72.7324
72.0920,73.1145
71.5984,73.5445
71.1844,73.7514
70.4838,73.8947
70.0539,74.0858
68.7005,74.0858
67.8088,73.7514
67.0445,73.2419
66.2484,72.5254
65.2771,72.0000
64.5128,71.7930
64.2581,71.8567
62.7136,71.8567
62.0130,71.5223
61.6945,71.2357
61.7105,71.0446
62.1722,70.5669
62.4270,70.0415
62.5703,69.0224
62.6977,68.6403
62.5703,68.4014
62.5066,67.7964
62.1881,66.9843
61.9652,66.8251
61.9015,66.6500
61.5194,66.2519
61.5194,66.0130
62.0448,65.5194
62.7773,65.2488
65.2771,65.1214
65.9777,64.8666
66.5509,64.4686
66.8853,64.1342
67.2834,63.3062
67.2834,62.2712
66.9968,61.5547
66.6305,61.1885
66.0573,60.9019
65.0861,60.5834
63.5416,60.5834
63.2072,60.6790
62.6499,61.0452
62.0130,61.6821
61.9493,61.8572
61.4238,62.4782
61.2169,62.5419
61.0417,62.0961
61.0576,61.9209
61.3124,61.7776
61.7582,61.0611
62.2041,60.6153
62.9843,60.1694
63.9396,60.0261
64.1148,59.8988
64.8950,59.8988
Z" /> 
<path style="fill:#000000; fill-opacity:1.0000; stroke:none;fill-rule:evenodd;"
d="M 66.0276,41.9299
66.1157,41.9323
66.5624,41.9596
66.9794,42.0140
67.3701,42.0964
67.7380,42.2079
68.0868,42.3493
68.4198,42.5217
68.5368,42.5916
68.7836,42.7682
68.9994,42.9719
69.1825,43.2000
69.3310,43.4499
69.4434,43.7189
69.5177,44.0045
69.5344,44.1072
69.5483,44.3506
69.5239,44.5866
69.4636,44.8112
69.3696,45.0205
69.2443,45.2102
69.0898,45.3764
68.9085,45.5150
68.7026,45.6220
68.6760,45.6327
68.5967,45.6587
68.4848,45.6890
68.3496,45.7217
68.2003,45.7547
68.0463,45.7861
67.8968,45.8139
67.7610,45.8361
67.6483,45.8509
67.6437,45.8513
67.5679,45.8599
67.5254,45.8692
67.5073,45.8838
67.5047,45.9083
67.5061,45.9225
67.5127,45.9789
67.7667,45.9834
68.0312,46.0033
68.2712,46.0545
68.4926,46.1391
68.7015,46.2590
68.8079,46.3365
69.0023,46.5146
69.1754,46.7265
69.3251,46.9682
69.4490,47.2358
69.5449,47.5253
69.5907,47.7207
69.6144,47.8842
69.6269,48.0690
69.6283,48.2619
69.6188,48.4493
69.5985,48.6177
69.5799,48.7094
69.4961,48.9647
69.3774,49.1972
69.2247,49.4064
69.0393,49.5914
68.8222,49.7518
68.5745,49.8868
68.2974,49.9957
67.9919,50.0780
67.6593,50.1328
67.3006,50.1596
67.1370,50.1624
67.0136,50.1635
66.9107,50.1667
66.8344,50.1715
66.7906,50.1776
66.7824,50.1820
66.7687,50.1918
66.7260,50.1972
66.6521,50.1981
66.5448,50.1945
66.4019,50.1863
66.2211,50.1733
66.0310,50.1582
65.7730,50.1360
65.5535,50.1149
65.3685,50.0943
65.2144,50.0737
65.0871,50.0526
64.9829,50.0305
64.8980,50.0068
64.8725,49.9981
64.6432,49.8951
64.4386,49.7593
64.2610,49.5943
64.1132,49.4036
63.9976,49.1905
63.9168,48.9586
63.8733,48.7113
63.8679,48.6353
63.8652,48.5592
63.8652,48.4912
63.8691,48.4234
63.8755,48.3674
65.7757,48.3674
65.9031,48.5744
66.3012,48.8929
67.3202,48.8929
67.7024,48.5585
67.9094,48.1923
67.7661,47.2369
67.4317,46.9025
67.1292,46.8229
66.6037,46.8388
66.3171,47.0458
66.0783,47.1095
65.7917,47.5235
65.7757,48.3674
63.8755,48.3674
63.8777,48.3481
63.8919,48.2575
63.9129,48.1439
63.9414,47.9996
63.9541,47.9368
63.9967,47.7179
64.0372,47.4933
64.0744,47.2708
64.1071,47.0585
64.1341,46.8639
64.1542,46.6951
64.1661,46.5610
64.1700,46.4947
64.1711,46.4580
64.1687,46.4531
64.1622,46.4822
64.1509,46.5475
64.1345,46.6514
64.1238,46.7197
64.0615,47.0518
63.9773,47.3913
63.8752,47.7255
63.7590,48.0412
63.6580,48.2729
63.4822,48.6055
63.2851,48.9019
63.0652,49.1638
62.8209,49.3925
62.5506,49.5896
62.2526,49.7565
61.9252,49.8946
61.8315,49.9272
61.6613,49.9828
61.5091,50.0291
61.3688,50.0670
61.2343,50.0971
61.0998,50.1201
60.9590,50.1369
60.8061,50.1480
60.6349,50.1543
60.4395,50.1564
60.2137,50.1550
59.9562,50.1511
59.5640,50.1422
59.2026,50.1304
58.8736,50.1159
58.5785,50.0988
58.3190,50.0792
58.0966,50.0571
57.9129,50.0327
57.7694,50.0061
57.7340,49.9976
57.5209,49.9216
57.3101,49.8039
57.1027,49.6452
56.9280,49.4767
56.8347,49.3727
56.7386,49.2572
56.6470,49.1393
56.5671,49.0287
56.5060,48.9346
56.4859,48.8988
56.4589,48.8124
56.4555,48.7000
56.4760,48.5589
56.5205,48.3862
56.5285,48.3601
56.6267,48.0180
56.7021,47.6961
56.7566,47.3816
56.7921,47.0618
56.8105,46.7241
56.8143,46.4551
56.8083,46.1418
56.7895,45.8430
56.7567,45.5481
56.7082,45.2464
56.6428,44.9274
56.5687,44.6185
56.5226,44.4442
56.4793,44.3011
56.4340,44.1788
56.3822,44.0669
56.3191,43.9549
56.2401,43.8323
56.1711,43.7324
56.0997,43.6302
56.0293,43.5286
55.9673,43.4383
55.9210,43.3699
55.9147,43.3605
55.8345,43.2397
55.8785,43.0950
55.9581,42.9009
56.0699,42.7331
56.2123,42.5926
56.3834,42.4807
56.5813,42.3986
56.8044,42.3473
57.0508,42.3281
57.0688,42.3280
57.3167,42.3466
57.5467,42.4029
57.7576,42.4966
57.9482,42.6272
58.0392,42.7096
58.1341,42.8141
58.2104,42.9237
58.2726,43.0474
58.3250,43.1942
58.3722,43.3730
58.3786,43.4011
58.4387,43.6858
58.4827,43.9368
58.5111,44.1592
58.5244,44.3582
58.5232,44.5390
58.5084,44.7028
58.4947,44.8674
58.5011,45.0246
58.5053,45.0627
58.5118,45.1190
58.5220,45.2125
58.5355,45.3382
58.5516,45.4911
58.5699,45.6663
58.5899,45.8588
58.6109,46.0637
58.6326,46.2760
58.6330,46.2797
58.6591,46.5358
58.6818,46.7536
58.7019,46.9369
58.7204,47.0893
58.7381,47.2147
58.7561,47.3169
58.7751,47.3997
58.7962,47.4667
58.8202,47.5219
58.8480,47.5688
58.8806,47.6115
58.9188,47.6535
58.9637,47.6987
58.9805,47.7154
59.1364,47.8491
59.3117,47.9577
59.5158,48.0465
59.5752,48.0673
59.6360,48.0861
59.6933,48.0995
59.7561,48.1083
59.8337,48.1134
59.9352,48.1157
60.0696,48.1161
60.0726,48.1161
60.2511,48.1132
60.3979,48.1039
60.5234,48.0864
60.6380,48.0586
60.7520,48.0187
60.8663,47.9691
61.0540,47.8626
61.2091,47.7308
61.3283,47.5812
61.3866,47.4856
61.4359,47.3869
61.4797,47.2761
61.5215,47.1440
61.5648,46.9813
61.5761,46.9356
61.6058,46.8086
61.6328,46.6793
61.6577,46.5441
61.6808,46.3994
61.6965,46.2858
61.7027,46.2414
61.7236,46.0665
61.7283,46.0212
61.7439,45.8709
61.7642,45.6511
61.7731,45.5450
61.7848,45.4032
61.8062,45.1237
61.8287,44.8089
61.8499,44.4972
61.8635,44.2956
61.8767,44.1028
61.8892,43.9240
61.9005,43.7640
61.9104,43.6279
61.9185,43.5206
61.9244,43.4472
61.9270,43.4189
61.9516,43.2775
61.9971,43.1385
62.0678,42.9906
62.1305,42.8824
62.2544,42.6993
62.3786,42.5552
62.5063,42.4470
62.6088,42.3862
62.6843,42.3513
62.7460,42.3307
62.8108,42.3210
62.8956,42.3186
62.9297,42.3188
63.1372,42.3377
63.3443,42.3881
63.5411,42.4660
63.7177,42.5677
63.8522,42.6773
63.9554,42.8001
64.0424,42.9459
64.1035,43.0975
64.1165,43.1464
64.1276,43.2137
64.1394,43.3177
64.1515,43.4529
64.1637,43.6136
64.1755,43.7943
64.1866,43.9895
64.1967,44.1934
64.2053,44.4006
64.2121,44.6054
64.2138,44.6666
64.2182,44.8141
64.2234,44.9492
64.2290,45.0656
64.2348,45.1570
64.2403,45.2172
64.2442,45.2381
64.2499,45.2337
64.2545,45.1925
64.2579,45.1200
64.2603,45.0215
64.2616,44.9026
64.2619,44.7688
64.2612,44.6255
64.2605,44.5619
65.7598,44.5619
65.9190,44.9600
66.4126,45.2784
67.2725,45.2466
67.7024,44.8485
67.7820,44.5619
67.7820,43.8454
67.6864,43.5747
67.4635,43.3518
67.1928,43.2562
66.6674,43.2562
66.2056,43.4155
65.9827,43.6384
65.7598,44.1001
65.7598,44.5619
64.2605,44.5619
64.2595,44.4782
64.2569,44.3323
64.2534,44.1934
64.2501,44.1001
64.2489,44.0669
64.2436,43.9583
64.2375,43.8730
64.2374,43.8717
64.2269,43.7397
64.2184,43.5973
64.2127,43.4628
64.2109,43.3648
64.2124,43.2542
64.2188,43.1703
64.2326,43.0974
64.2562,43.0201
64.2715,42.9772
64.3757,42.7538
64.5153,42.5481
64.6853,42.3649
64.8806,42.2095
65.0964,42.0868
65.2003,42.0431
65.3232,42.0005
65.4403,41.9688
65.5606,41.9469
65.6926,41.9339
65.8454,41.9286
Z" /> 
<path style="fill:#000000; fill-opacity:1.0000; 
stroke:#000000; stroke-width:0.0100; stroke-opacity:1; 
stroke-linecap:round; stroke-linejoin:round;fill-rule:evenodd;"
d="M 122.4719,0.0578
121.4813,0.0578
121.2342,0.0575
121.0267,0.0566
120.8564,0.0550
120.7204,0.0527
120.6163,0.0495
120.5414,0.0455
120.4930,0.0405
120.4685,0.0345
120.4653,0.0324
120.4441,-0.0089
120.4399,-0.0374
120.4405,-0.0591
120.4445,-0.0772
120.4554,-0.0920
120.4766,-0.1039
120.5118,-0.1133
120.5644,-0.1203
120.6378,-0.1254
120.7355,-0.1289
120.8611,-0.1310
121.0179,-0.1322
121.2096,-0.1326
121.4395,-0.1327
122.4719,-0.1327
Z" /> 
<path style="fill:#000000; fill-opacity:1.0000; 
stroke:#000000; stroke-width:0.0100; stroke-opacity:1; 
stroke-linecap:round; stroke-linejoin:round;fill-rule:evenodd;"
d="M 122.4719,142.0650
121.4189,142.0646
121.2113,142.0643
121.0163,142.0633
120.8381,142.0619
120.6809,142.0600
120.5486,142.0578
120.4456,142.0552
120.3759,142.0524
120.3437,142.0493
120.3422,142.0488
120.3102,142.0055
120.3047,141.9478
120.3217,141.9051
120.3299,141.8958
120.3420,141.8880
120.3617,141.8815
120.3924,141.8762
120.4377,141.8719
120.5012,141.8685
120.5864,141.8658
120.6968,141.8637
120.8361,141.8620
121.0077,141.8605
121.2152,141.8591
121.4119,141.8580
122.4719,141.8522
Z" /> 
<path style="fill:#000000; fill-opacity:1.0000; 
stroke:#000000; stroke-width:0.0100; stroke-opacity:1; 
stroke-linecap:round; stroke-linejoin:round;fill-rule:evenodd;"
d="M 0.0101,-5.4645
0.0232,-5.4536
0.0340,-5.4323
0.0428,-5.3977
0.0498,-5.3469
0.0551,-5.2771
0.0591,-5.1853
0.0618,-5.0687
0.0636,-4.9243
0.0646,-4.7495
0.0650,-4.5412
0.0651,-4.2966
0.0651,-4.0128
0.0651,-3.9832
0.0651,-3.7017
0.0649,-3.4595
0.0646,-3.2537
0.0639,-3.0811
0.0629,-2.9389
0.0614,-2.8239
0.0594,-2.7332
0.0568,-2.6637
0.0534,-2.6125
0.0493,-2.5765
0.0443,-2.5528
0.0383,-2.5382
0.0313,-2.5299
0.0241,-2.5253
-0.0139,-2.5069
-0.0383,-2.5092
-0.0687,-2.5298
-0.0757,-2.5373
-0.0817,-2.5506
-0.0868,-2.5727
-0.0910,-2.6066
-0.0944,-2.6553
-0.0971,-2.7217
-0.0990,-2.8089
-0.1003,-2.9197
-0.1010,-3.0573
-0.1012,-3.2246
-0.1010,-3.4245
-0.1004,-3.6601
-0.0994,-3.9344
-0.0992,-4.0062
-0.0937,-5.4561
-0.0449,-5.4630
-0.0237,-5.4663
-0.0055,-5.4677
Z" /> 
<path style="fill:#000000; fill-opacity:1.0000; 
stroke:#000000; stroke-width:0.0100; stroke-opacity:1; 
stroke-linecap:round; stroke-linejoin:round;fill-rule:evenodd;"
d="M -3.7116,141.8536
-3.4533,141.8546
-3.2230,141.8561
-3.0227,141.8581
-2.8548,141.8607
-2.7212,141.8638
-2.6243,141.8673
-2.5662,141.8712
-2.5504,141.8739
-2.5079,141.9033
-2.4961,141.9544
-2.5046,142.0074
-2.5215,142.0396
-2.5371,142.0449
-2.5743,142.0494
-2.6353,142.0533
-2.7223,142.0566
-2.8376,142.0593
-2.9834,142.0614
-3.1621,142.0629
-3.3759,142.0640
-3.6270,142.0647
-3.9178,142.0650
-3.9805,142.0650
-4.2644,142.0649
-4.5089,142.0646
-4.7171,142.0640
-4.8918,142.0631
-5.0360,142.0618
-5.1528,142.0600
-5.2451,142.0577
-5.3158,142.0547
-5.3679,142.0511
-5.4044,142.0468
-5.4283,142.0416
-5.4425,142.0355
-5.4473,142.0317
-5.4777,141.9774
-5.4680,141.9227
-5.4335,141.8863
-5.4202,141.8796
-5.3986,141.8739
-5.3657,141.8691
-5.3185,141.8651
-5.2538,141.8618
-5.1688,141.8591
-5.0602,141.8571
-4.9252,141.8556
-4.7606,141.8545
-4.5634,141.8538
-4.3307,141.8534
-4.0593,141.8533
-3.9956,141.8533
Z" /> 
<path style="fill:#000000; fill-opacity:1.0000; 
stroke:#000000; stroke-width:0.0100; stroke-opacity:1; 
stroke-linecap:round; stroke-linejoin:round;fill-rule:evenodd;"
d="M 118.0039,144.4236
118.0360,144.4477
118.0426,144.4578
118.0482,144.4759
118.0531,144.5050
118.0571,144.5480
118.0604,144.6080
118.0631,144.6878
118.0652,144.7906
118.0667,144.9191
118.0679,145.0764
118.0686,145.2655
118.0690,145.4894
118.0692,145.7509
118.0693,145.9146
118.0691,146.2135
118.0685,146.4723
118.0675,146.6933
118.0660,146.8788
118.0640,147.0310
118.0615,147.1522
118.0583,147.2446
118.0545,147.3106
118.0501,147.3523
118.0450,147.3721
118.0439,147.3736
117.9969,147.3964
117.9398,147.3959
117.8922,147.3738
117.8795,147.3580
117.8745,147.3269
117.8701,147.2538
117.8664,147.1389
117.8633,146.9826
117.8609,146.7851
117.8591,146.5468
117.8580,146.2679
117.8576,145.9488
117.8576,145.9081
117.8576,145.6295
117.8578,145.3901
117.8581,145.1869
117.8588,145.0168
117.8598,144.8766
117.8613,144.7634
117.8634,144.6739
117.8661,144.6052
117.8696,144.5541
117.8739,144.5176
117.8792,144.4926
117.8854,144.4759
117.8928,144.4645
117.8999,144.4568
117.9540,144.4196
Z" /> 
<path style="fill:#000000; fill-opacity:1.0000; 
stroke:#000000; stroke-width:0.0100; stroke-opacity:1; 
stroke-linecap:round; stroke-linejoin:round;fill-rule:evenodd;"
d="M 118.0226,-6.2807
118.0439,-6.2668
118.0485,-6.2523
118.0525,-6.2171
118.0561,-6.1593
118.0592,-6.0770
118.0618,-5.9680
118.0639,-5.8304
118.0657,-5.6622
118.0671,-5.4615
118.0681,-5.2262
118.0688,-4.9543
118.0691,-4.6438
118.0693,-4.3343
118.0691,-3.9879
118.0687,-3.6819
118.0680,-3.4142
118.0669,-3.1828
118.0655,-2.9858
118.0637,-2.8212
118.0615,-2.6869
118.0588,-2.5810
118.0557,-2.5015
118.0521,-2.4464
118.0480,-2.4137
118.0439,-2.4018
118.0026,-2.3806
117.9740,-2.3764
117.9254,-2.3878
117.9042,-2.4018
117.8995,-2.4163
117.8955,-2.4515
117.8919,-2.5092
117.8888,-2.5916
117.8862,-2.7006
117.8841,-2.8381
117.8823,-3.0063
117.8809,-3.2071
117.8799,-3.4424
117.8792,-3.7143
117.8789,-4.0248
117.8788,-4.3343
117.8789,-4.6807
117.8793,-4.9867
117.8800,-5.2544
117.8811,-5.4857
117.8825,-5.6827
117.8843,-5.8474
117.8865,-5.9816
117.8892,-6.0875
117.8923,-6.1670
117.8959,-6.2221
117.9000,-6.2549
117.9042,-6.2668
117.9454,-6.2880
117.9740,-6.2922
Z" /> 
<path style="fill:#000000; fill-opacity:1.0000; 
stroke:#000000; stroke-width:0.0100; stroke-opacity:1; 
stroke-linecap:round; stroke-linejoin:round;fill-rule:evenodd;"
d="M 0.0280,144.3181
0.0489,144.3388
0.0512,144.3629
0.0534,144.4257
0.0554,144.5234
0.0572,144.6525
0.0588,144.8092
0.0602,144.9899
0.0614,145.1909
0.0625,145.4084
0.0633,145.6390
0.0639,145.8788
0.0643,146.1242
0.0646,146.3716
0.0646,146.6172
0.0644,146.8575
0.0639,147.0886
0.0633,147.3070
0.0624,147.5089
0.0613,147.6908
0.0599,147.8488
0.0584,147.9794
0.0566,148.0789
0.0545,148.1437
0.0522,148.1698
0.0249,148.1912
-0.0247,148.2030
-0.0768,148.2028
-0.1113,148.1892
-0.1134,148.1664
-0.1153,148.1043
-0.1172,148.0059
-0.1189,147.8741
-0.1205,147.7121
-0.1219,147.5227
-0.1231,147.3090
-0.1241,147.0740
-0.1248,146.8206
-0.1252,146.5520
-0.1254,146.2711
-0.1254,146.2532
-0.1254,145.9244
-0.1253,145.6354
-0.1251,145.3835
-0.1247,145.1662
-0.1240,144.9809
-0.1231,144.8249
-0.1218,144.6957
-0.1201,144.5906
-0.1179,144.5072
-0.1152,144.4428
-0.1120,144.3947
-0.1081,144.3605
-0.1036,144.3375
-0.0983,144.3231
-0.0923,144.3148
-0.0854,144.3099
-0.0846,144.3095
-0.0273,144.2988
Z" /> 
<path style="fill:#000000; fill-opacity:1.0000; 
stroke:#000000; stroke-width:0.0100; stroke-opacity:1; 
stroke-linecap:round; stroke-linejoin:round;fill-rule:evenodd;"
d="M -3.6860,-0.1326
-3.4307,-0.1324
-3.2101,-0.1317
-3.0219,-0.1306
-2.8636,-0.1289
-2.7325,-0.1263
-2.6263,-0.1228
-2.5424,-0.1183
-2.4784,-0.1125
-2.4317,-0.1054
-2.3998,-0.0967
-2.3802,-0.0865
-2.3705,-0.0744
-2.3681,-0.0604
-2.3705,-0.0444
-2.3753,-0.0261
-2.3763,-0.0221
-2.4053,0.0259
-2.4376,0.0444
-2.4656,0.0463
-2.5327,0.0482
-2.6359,0.0499
-2.7720,0.0515
-2.9378,0.0530
-3.1303,0.0543
-3.3462,0.0554
-3.5825,0.0563
-3.8359,0.0570
-4.1034,0.0574
-4.3276,0.0575
-4.6523,0.0575
-4.9374,0.0573
-5.1853,0.0569
-5.3988,0.0563
-5.5805,0.0554
-5.7329,0.0541
-5.8587,0.0524
-5.9606,0.0503
-6.0411,0.0477
-6.1028,0.0446
-6.1485,0.0409
-6.1807,0.0366
-6.2020,0.0316
-6.2150,0.0260
-6.2167,0.0249
-6.2554,-0.0200
-6.2595,-0.0682
-6.2284,-0.1075
-6.2228,-0.1108
-6.1930,-0.1152
-6.1213,-0.1192
-6.0076,-0.1226
-5.8518,-0.1256
-5.6539,-0.1280
-5.4138,-0.1299
-5.1316,-0.1313
-4.8071,-0.1323
-4.4404,-0.1327
-4.3113,-0.1327
-3.9787,-0.1327
Z" /> 
</g> 
</svg>
