G04 #@! TF.GenerationSoftware,KiCad,Pcbnew,5.1.10-88a1d61d58~88~ubuntu20.04.1*
G04 #@! TF.CreationDate,2021-09-29T14:47:52-05:00*
G04 #@! TF.ProjectId,panelv8,70616e65-6c76-4382-9e6b-696361645f70,rev?*
G04 #@! TF.SameCoordinates,Original*
G04 #@! TF.FileFunction,Profile,NP*
%FSLAX46Y46*%
G04 Gerber Fmt 4.6, Leading zero omitted, Abs format (unit mm)*
G04 Created by KiCad (PCBNEW 5.1.10-88a1d61d58~88~ubuntu20.04.1) date 2021-09-29 14:47:52*
%MOMM*%
%LPD*%
G01*
G04 APERTURE LIST*
G04 #@! TA.AperFunction,Profile*
%ADD10C,0.100000*%
G04 #@! TD*
G04 APERTURE END LIST*
D10*
X170290000Y-69200000D02*
X168490000Y-69200000D01*
X168490000Y-65210000D02*
X170290000Y-65210000D01*
X168490000Y-69200000D02*
X168490000Y-65210000D01*
X170290000Y-65210000D02*
X170290000Y-69200000D01*
X170290000Y-106700000D02*
X168490000Y-106700000D01*
X168490000Y-102710000D02*
X170290000Y-102710000D01*
X168490000Y-106700000D02*
X168490000Y-102710000D01*
X170290000Y-102710000D02*
X170290000Y-106700000D01*
X170290000Y-144200000D02*
X168490000Y-144200000D01*
X168490000Y-140210000D02*
X170290000Y-140210000D01*
X168490000Y-144200000D02*
X168490000Y-140210000D01*
X170290000Y-140210000D02*
X170290000Y-144200000D01*
X58090000Y-144200000D02*
X56290000Y-144200000D01*
X56290000Y-140210000D02*
X58090000Y-140210000D01*
X56290000Y-144200000D02*
X56290000Y-140210000D01*
X58090000Y-140210000D02*
X58090000Y-144200000D01*
X58090000Y-106700000D02*
X56290000Y-106700000D01*
X56290000Y-102710000D02*
X58090000Y-102710000D01*
X56290000Y-106700000D02*
X56290000Y-102710000D01*
X58090000Y-102710000D02*
X58090000Y-106700000D01*
X58090000Y-69200000D02*
X56290000Y-69200000D01*
X56290000Y-65210000D02*
X58090000Y-65210000D01*
X56290000Y-69200000D02*
X56290000Y-65210000D01*
X58090000Y-65210000D02*
X58090000Y-69200000D01*
X74780000Y-35700000D02*
X74780000Y-37500000D01*
X70790000Y-37500000D02*
X70790000Y-35700000D01*
X74780000Y-37500000D02*
X70790000Y-37500000D01*
X70790000Y-35700000D02*
X74780000Y-35700000D01*
X115280000Y-35700000D02*
X115280000Y-37500000D01*
X111290000Y-37500000D02*
X111290000Y-35700000D01*
X115280000Y-37500000D02*
X111290000Y-37500000D01*
X111290000Y-35700000D02*
X115280000Y-35700000D01*
X155780000Y-35700000D02*
X155780000Y-37500000D01*
X151790000Y-37500000D02*
X151790000Y-35700000D01*
X155780000Y-37500000D02*
X151790000Y-37500000D01*
X151790000Y-35700000D02*
X155780000Y-35700000D01*
X155780000Y-171900000D02*
X155780000Y-173700000D01*
X151790000Y-173700000D02*
X151790000Y-171900000D01*
X155780000Y-173700000D02*
X151790000Y-173700000D01*
X151790000Y-171900000D02*
X155780000Y-171900000D01*
X115280000Y-171900000D02*
X115280000Y-173700000D01*
X111290000Y-173700000D02*
X111290000Y-171900000D01*
X115280000Y-173700000D02*
X111290000Y-173700000D01*
X111290000Y-171900000D02*
X115280000Y-171900000D01*
X74780000Y-171900000D02*
X74780000Y-173700000D01*
X70790000Y-171900000D02*
X74780000Y-171900000D01*
X70790000Y-173700000D02*
X70790000Y-171900000D01*
X74780000Y-173700000D02*
X70790000Y-173700000D01*
X171766361Y-33719960D02*
X54766361Y-33719960D01*
X54266361Y-34219960D02*
G75*
G02*
X54766361Y-33719960I500000J0D01*
G01*
X54266361Y-34219960D02*
X54266361Y-175219960D01*
X54766361Y-175719960D02*
G75*
G02*
X54266361Y-175219960I0J500000D01*
G01*
X172266361Y-175219960D02*
G75*
G02*
X171766361Y-175719960I-500000J0D01*
G01*
X172266361Y-175219960D02*
X172266361Y-34219960D01*
X54766361Y-175719960D02*
X171766361Y-175719960D01*
X165866361Y-167719960D02*
G75*
G03*
X165866361Y-167719960I-1600000J0D01*
G01*
X63866360Y-167719960D02*
G75*
G03*
X63866360Y-167719960I-1599999J0D01*
G01*
X81266361Y-97719960D02*
G75*
G03*
X81266361Y-97719960I-4000000J0D01*
G01*
X153266361Y-97719960D02*
G75*
G03*
X153266361Y-97719960I-4000000J0D01*
G01*
X145266361Y-128719960D02*
G75*
G03*
X145266361Y-128719960I-12000000J0D01*
G01*
X105266361Y-128719960D02*
G75*
G03*
X105266361Y-128719960I-12000000J0D01*
G01*
X125266361Y-153719960D02*
G75*
G03*
X125266361Y-153719960I-12000000J0D01*
G01*
X165266361Y-153719960D02*
G75*
G03*
X165266361Y-153719960I-12000000J0D01*
G01*
X85266361Y-153719960D02*
G75*
G03*
X85266361Y-153719960I-12000000J0D01*
G01*
X71766361Y-63719960D02*
G75*
G03*
X71766361Y-63719960I-3500000J0D01*
G01*
X86766361Y-63719960D02*
G75*
G03*
X86766361Y-63719960I-3500000J0D01*
G01*
X161766361Y-63719960D02*
G75*
G03*
X161766361Y-63719960I-3500000J0D01*
G01*
X147266361Y-63719960D02*
G75*
G03*
X147266361Y-63719960I-4000000J0D01*
G01*
X127266361Y-63719960D02*
G75*
G03*
X127266361Y-63719960I-4000000J0D01*
G01*
X107266361Y-63719960D02*
G75*
G03*
X107266361Y-63719960I-4000000J0D01*
G01*
X171766361Y-33719960D02*
G75*
G02*
X172266361Y-34219960I0J-500000D01*
G01*
M02*
